G04 #@! TF.GenerationSoftware,KiCad,Pcbnew,(5.1.5)-3*
G04 #@! TF.CreationDate,2020-04-22T10:50:03+08:00*
G04 #@! TF.ProjectId,RDMA,52444d41-2e6b-4696-9361-645f70636258,1.0*
G04 #@! TF.SameCoordinates,Original*
G04 #@! TF.FileFunction,Soldermask,Bot*
G04 #@! TF.FilePolarity,Negative*
%FSLAX46Y46*%
G04 Gerber Fmt 4.6, Leading zero omitted, Abs format (unit mm)*
G04 Created by KiCad (PCBNEW (5.1.5)-3) date 2020-04-22 10:50:03*
%MOMM*%
%LPD*%
G04 APERTURE LIST*
%ADD10C,0.100000*%
G04 APERTURE END LIST*
D10*
G36*
X153839420Y-102458586D02*
G01*
X154138877Y-102518151D01*
X154703041Y-102751835D01*
X155210775Y-103091092D01*
X155642568Y-103522885D01*
X155981825Y-104030619D01*
X156215509Y-104594783D01*
X156215509Y-104594785D01*
X156334640Y-105193695D01*
X156334640Y-105804345D01*
X156295125Y-106003000D01*
X156215509Y-106403257D01*
X155981825Y-106967421D01*
X155642568Y-107475155D01*
X155210775Y-107906948D01*
X154703041Y-108246205D01*
X154138877Y-108479889D01*
X153839420Y-108539455D01*
X153539965Y-108599020D01*
X152929315Y-108599020D01*
X152629860Y-108539455D01*
X152330403Y-108479889D01*
X151766239Y-108246205D01*
X151258505Y-107906948D01*
X150826712Y-107475155D01*
X150487455Y-106967421D01*
X150253771Y-106403257D01*
X150174155Y-106003000D01*
X150134640Y-105804345D01*
X150134640Y-105193695D01*
X150253771Y-104594785D01*
X150253771Y-104594783D01*
X150487455Y-104030619D01*
X150826712Y-103522885D01*
X151258505Y-103091092D01*
X151766239Y-102751835D01*
X152330403Y-102518151D01*
X152629860Y-102458586D01*
X152929315Y-102399020D01*
X153539965Y-102399020D01*
X153839420Y-102458586D01*
G37*
G36*
X95839420Y-102458586D02*
G01*
X96138877Y-102518151D01*
X96703041Y-102751835D01*
X97210775Y-103091092D01*
X97642568Y-103522885D01*
X97981825Y-104030619D01*
X98215509Y-104594783D01*
X98215509Y-104594785D01*
X98334640Y-105193695D01*
X98334640Y-105804345D01*
X98295125Y-106003000D01*
X98215509Y-106403257D01*
X97981825Y-106967421D01*
X97642568Y-107475155D01*
X97210775Y-107906948D01*
X96703041Y-108246205D01*
X96138877Y-108479889D01*
X95839420Y-108539455D01*
X95539965Y-108599020D01*
X94929315Y-108599020D01*
X94629860Y-108539455D01*
X94330403Y-108479889D01*
X93766239Y-108246205D01*
X93258505Y-107906948D01*
X92826712Y-107475155D01*
X92487455Y-106967421D01*
X92253771Y-106403257D01*
X92174155Y-106003000D01*
X92134640Y-105804345D01*
X92134640Y-105193695D01*
X92253771Y-104594785D01*
X92253771Y-104594783D01*
X92487455Y-104030619D01*
X92826712Y-103522885D01*
X93258505Y-103091092D01*
X93766239Y-102751835D01*
X94330403Y-102518151D01*
X94629860Y-102458586D01*
X94929315Y-102399020D01*
X95539965Y-102399020D01*
X95839420Y-102458586D01*
G37*
G36*
X144299740Y-105248627D02*
G01*
X144348136Y-105258253D01*
X144385902Y-105273896D01*
X144439311Y-105296019D01*
X144439312Y-105296020D01*
X144521369Y-105350848D01*
X144591152Y-105420631D01*
X144593082Y-105423520D01*
X144645981Y-105502689D01*
X144668104Y-105556098D01*
X144683747Y-105593864D01*
X144692268Y-105636704D01*
X144703000Y-105690655D01*
X144703000Y-105789345D01*
X144683747Y-105886135D01*
X144645981Y-105977311D01*
X144645980Y-105977312D01*
X144591152Y-106059369D01*
X144521369Y-106129152D01*
X144480062Y-106156752D01*
X144439311Y-106183981D01*
X144385902Y-106206104D01*
X144348136Y-106221747D01*
X144299740Y-106231374D01*
X144251345Y-106241000D01*
X144152655Y-106241000D01*
X144104260Y-106231373D01*
X144055864Y-106221747D01*
X144018098Y-106206104D01*
X143964689Y-106183981D01*
X143923938Y-106156752D01*
X143882631Y-106129152D01*
X143812848Y-106059369D01*
X143758020Y-105977312D01*
X143758019Y-105977311D01*
X143720253Y-105886135D01*
X143701000Y-105789345D01*
X143701000Y-105690655D01*
X143711732Y-105636704D01*
X143720253Y-105593864D01*
X143735896Y-105556098D01*
X143758019Y-105502689D01*
X143810918Y-105423520D01*
X143812848Y-105420631D01*
X143882631Y-105350848D01*
X143964688Y-105296020D01*
X143964689Y-105296019D01*
X144018098Y-105273896D01*
X144055864Y-105258253D01*
X144104260Y-105248626D01*
X144152655Y-105239000D01*
X144251345Y-105239000D01*
X144299740Y-105248627D01*
G37*
G36*
X147299740Y-105248627D02*
G01*
X147348136Y-105258253D01*
X147385902Y-105273896D01*
X147439311Y-105296019D01*
X147439312Y-105296020D01*
X147521369Y-105350848D01*
X147591152Y-105420631D01*
X147593082Y-105423520D01*
X147645981Y-105502689D01*
X147668104Y-105556098D01*
X147683747Y-105593864D01*
X147692268Y-105636704D01*
X147703000Y-105690655D01*
X147703000Y-105789345D01*
X147683747Y-105886135D01*
X147645981Y-105977311D01*
X147645980Y-105977312D01*
X147591152Y-106059369D01*
X147521369Y-106129152D01*
X147480062Y-106156752D01*
X147439311Y-106183981D01*
X147385902Y-106206104D01*
X147348136Y-106221747D01*
X147299740Y-106231374D01*
X147251345Y-106241000D01*
X147152655Y-106241000D01*
X147104260Y-106231373D01*
X147055864Y-106221747D01*
X147018098Y-106206104D01*
X146964689Y-106183981D01*
X146923938Y-106156752D01*
X146882631Y-106129152D01*
X146812848Y-106059369D01*
X146758020Y-105977312D01*
X146758019Y-105977311D01*
X146720253Y-105886135D01*
X146701000Y-105789345D01*
X146701000Y-105690655D01*
X146711732Y-105636704D01*
X146720253Y-105593864D01*
X146735896Y-105556098D01*
X146758019Y-105502689D01*
X146810918Y-105423520D01*
X146812848Y-105420631D01*
X146882631Y-105350848D01*
X146964688Y-105296020D01*
X146964689Y-105296019D01*
X147018098Y-105273896D01*
X147055864Y-105258253D01*
X147104260Y-105248626D01*
X147152655Y-105239000D01*
X147251345Y-105239000D01*
X147299740Y-105248627D01*
G37*
G36*
X130075000Y-106199000D02*
G01*
X126973000Y-106199000D01*
X126973000Y-103097000D01*
X130075000Y-103097000D01*
X130075000Y-106199000D01*
G37*
G36*
X123746585Y-103126802D02*
G01*
X123896410Y-103156604D01*
X124178674Y-103273521D01*
X124432705Y-103443259D01*
X124648741Y-103659295D01*
X124818479Y-103913326D01*
X124935396Y-104195590D01*
X124995000Y-104495240D01*
X124995000Y-104800760D01*
X124935396Y-105100410D01*
X124818479Y-105382674D01*
X124648741Y-105636705D01*
X124432705Y-105852741D01*
X124178674Y-106022479D01*
X123896410Y-106139396D01*
X123746585Y-106169198D01*
X123596761Y-106199000D01*
X123291239Y-106199000D01*
X123141415Y-106169198D01*
X122991590Y-106139396D01*
X122709326Y-106022479D01*
X122455295Y-105852741D01*
X122239259Y-105636705D01*
X122069521Y-105382674D01*
X121952604Y-105100410D01*
X121893000Y-104800760D01*
X121893000Y-104495240D01*
X121952604Y-104195590D01*
X122069521Y-103913326D01*
X122239259Y-103659295D01*
X122455295Y-103443259D01*
X122709326Y-103273521D01*
X122991590Y-103156604D01*
X123141415Y-103126802D01*
X123291239Y-103097000D01*
X123596761Y-103097000D01*
X123746585Y-103126802D01*
G37*
G36*
X103592795Y-103822156D02*
G01*
X103699150Y-103843311D01*
X103799334Y-103884809D01*
X103899520Y-103926307D01*
X104079844Y-104046795D01*
X104233205Y-104200156D01*
X104353693Y-104380480D01*
X104353693Y-104380481D01*
X104436689Y-104580850D01*
X104479000Y-104793561D01*
X104479000Y-105010439D01*
X104436689Y-105223150D01*
X104406505Y-105296020D01*
X104353693Y-105423520D01*
X104233205Y-105603844D01*
X104079844Y-105757205D01*
X103899520Y-105877693D01*
X103699150Y-105960689D01*
X103615586Y-105977311D01*
X103486440Y-106003000D01*
X103269560Y-106003000D01*
X103140414Y-105977311D01*
X103056850Y-105960689D01*
X102856480Y-105877693D01*
X102676156Y-105757205D01*
X102522795Y-105603844D01*
X102402307Y-105423520D01*
X102349495Y-105296020D01*
X102319311Y-105223150D01*
X102277000Y-105010439D01*
X102277000Y-104793561D01*
X102319311Y-104580850D01*
X102402307Y-104380481D01*
X102402307Y-104380480D01*
X102522795Y-104200156D01*
X102676156Y-104046795D01*
X102856480Y-103926307D01*
X102956666Y-103884809D01*
X103056850Y-103843311D01*
X103163205Y-103822156D01*
X103269560Y-103801000D01*
X103486440Y-103801000D01*
X103592795Y-103822156D01*
G37*
G36*
X101939000Y-106003000D02*
G01*
X99737000Y-106003000D01*
X99737000Y-103801000D01*
X101939000Y-103801000D01*
X101939000Y-106003000D01*
G37*
G36*
X106132795Y-103822156D02*
G01*
X106239150Y-103843311D01*
X106339334Y-103884809D01*
X106439520Y-103926307D01*
X106619844Y-104046795D01*
X106773205Y-104200156D01*
X106893693Y-104380480D01*
X106893693Y-104380481D01*
X106976689Y-104580850D01*
X107019000Y-104793561D01*
X107019000Y-105010439D01*
X106976689Y-105223150D01*
X106946505Y-105296020D01*
X106893693Y-105423520D01*
X106773205Y-105603844D01*
X106619844Y-105757205D01*
X106439520Y-105877693D01*
X106239150Y-105960689D01*
X106155586Y-105977311D01*
X106026440Y-106003000D01*
X105809560Y-106003000D01*
X105680414Y-105977311D01*
X105596850Y-105960689D01*
X105396480Y-105877693D01*
X105216156Y-105757205D01*
X105062795Y-105603844D01*
X104942307Y-105423520D01*
X104889495Y-105296020D01*
X104859311Y-105223150D01*
X104817000Y-105010439D01*
X104817000Y-104793561D01*
X104859311Y-104580850D01*
X104942307Y-104380481D01*
X104942307Y-104380480D01*
X105062795Y-104200156D01*
X105216156Y-104046795D01*
X105396480Y-103926307D01*
X105496666Y-103884809D01*
X105596850Y-103843311D01*
X105703205Y-103822156D01*
X105809560Y-103801000D01*
X106026440Y-103801000D01*
X106132795Y-103822156D01*
G37*
G36*
X108672795Y-103822156D02*
G01*
X108779150Y-103843311D01*
X108879334Y-103884809D01*
X108979520Y-103926307D01*
X109159844Y-104046795D01*
X109313205Y-104200156D01*
X109433693Y-104380480D01*
X109433693Y-104380481D01*
X109516689Y-104580850D01*
X109559000Y-104793561D01*
X109559000Y-105010439D01*
X109516689Y-105223150D01*
X109486505Y-105296020D01*
X109433693Y-105423520D01*
X109313205Y-105603844D01*
X109159844Y-105757205D01*
X108979520Y-105877693D01*
X108779150Y-105960689D01*
X108695586Y-105977311D01*
X108566440Y-106003000D01*
X108349560Y-106003000D01*
X108220414Y-105977311D01*
X108136850Y-105960689D01*
X107936480Y-105877693D01*
X107756156Y-105757205D01*
X107602795Y-105603844D01*
X107482307Y-105423520D01*
X107429495Y-105296020D01*
X107399311Y-105223150D01*
X107357000Y-105010439D01*
X107357000Y-104793561D01*
X107399311Y-104580850D01*
X107482307Y-104380481D01*
X107482307Y-104380480D01*
X107602795Y-104200156D01*
X107756156Y-104046795D01*
X107936480Y-103926307D01*
X108036666Y-103884809D01*
X108136850Y-103843311D01*
X108243205Y-103822156D01*
X108349560Y-103801000D01*
X108566440Y-103801000D01*
X108672795Y-103822156D01*
G37*
G36*
X116292795Y-103822156D02*
G01*
X116399150Y-103843311D01*
X116499334Y-103884809D01*
X116599520Y-103926307D01*
X116779844Y-104046795D01*
X116933205Y-104200156D01*
X117053693Y-104380480D01*
X117053693Y-104380481D01*
X117136689Y-104580850D01*
X117179000Y-104793561D01*
X117179000Y-105010439D01*
X117136689Y-105223150D01*
X117106505Y-105296020D01*
X117053693Y-105423520D01*
X116933205Y-105603844D01*
X116779844Y-105757205D01*
X116599520Y-105877693D01*
X116399150Y-105960689D01*
X116315586Y-105977311D01*
X116186440Y-106003000D01*
X115969560Y-106003000D01*
X115840414Y-105977311D01*
X115756850Y-105960689D01*
X115556480Y-105877693D01*
X115376156Y-105757205D01*
X115222795Y-105603844D01*
X115102307Y-105423520D01*
X115049495Y-105296020D01*
X115019311Y-105223150D01*
X114977000Y-105010439D01*
X114977000Y-104793561D01*
X115019311Y-104580850D01*
X115102307Y-104380481D01*
X115102307Y-104380480D01*
X115222795Y-104200156D01*
X115376156Y-104046795D01*
X115556480Y-103926307D01*
X115656666Y-103884809D01*
X115756850Y-103843311D01*
X115863205Y-103822156D01*
X115969560Y-103801000D01*
X116186440Y-103801000D01*
X116292795Y-103822156D01*
G37*
G36*
X113752795Y-103822156D02*
G01*
X113859150Y-103843311D01*
X113959334Y-103884809D01*
X114059520Y-103926307D01*
X114239844Y-104046795D01*
X114393205Y-104200156D01*
X114513693Y-104380480D01*
X114513693Y-104380481D01*
X114596689Y-104580850D01*
X114639000Y-104793561D01*
X114639000Y-105010439D01*
X114596689Y-105223150D01*
X114566505Y-105296020D01*
X114513693Y-105423520D01*
X114393205Y-105603844D01*
X114239844Y-105757205D01*
X114059520Y-105877693D01*
X113859150Y-105960689D01*
X113775586Y-105977311D01*
X113646440Y-106003000D01*
X113429560Y-106003000D01*
X113300414Y-105977311D01*
X113216850Y-105960689D01*
X113016480Y-105877693D01*
X112836156Y-105757205D01*
X112682795Y-105603844D01*
X112562307Y-105423520D01*
X112509495Y-105296020D01*
X112479311Y-105223150D01*
X112437000Y-105010439D01*
X112437000Y-104793561D01*
X112479311Y-104580850D01*
X112562307Y-104380481D01*
X112562307Y-104380480D01*
X112682795Y-104200156D01*
X112836156Y-104046795D01*
X113016480Y-103926307D01*
X113116666Y-103884809D01*
X113216850Y-103843311D01*
X113323205Y-103822156D01*
X113429560Y-103801000D01*
X113646440Y-103801000D01*
X113752795Y-103822156D01*
G37*
G36*
X111212795Y-103822156D02*
G01*
X111319150Y-103843311D01*
X111419334Y-103884809D01*
X111519520Y-103926307D01*
X111699844Y-104046795D01*
X111853205Y-104200156D01*
X111973693Y-104380480D01*
X111973693Y-104380481D01*
X112056689Y-104580850D01*
X112099000Y-104793561D01*
X112099000Y-105010439D01*
X112056689Y-105223150D01*
X112026505Y-105296020D01*
X111973693Y-105423520D01*
X111853205Y-105603844D01*
X111699844Y-105757205D01*
X111519520Y-105877693D01*
X111319150Y-105960689D01*
X111235586Y-105977311D01*
X111106440Y-106003000D01*
X110889560Y-106003000D01*
X110760414Y-105977311D01*
X110676850Y-105960689D01*
X110476480Y-105877693D01*
X110296156Y-105757205D01*
X110142795Y-105603844D01*
X110022307Y-105423520D01*
X109969495Y-105296020D01*
X109939311Y-105223150D01*
X109897000Y-105010439D01*
X109897000Y-104793561D01*
X109939311Y-104580850D01*
X110022307Y-104380481D01*
X110022307Y-104380480D01*
X110142795Y-104200156D01*
X110296156Y-104046795D01*
X110476480Y-103926307D01*
X110576666Y-103884809D01*
X110676850Y-103843311D01*
X110783205Y-103822156D01*
X110889560Y-103801000D01*
X111106440Y-103801000D01*
X111212795Y-103822156D01*
G37*
G36*
X118832795Y-103822156D02*
G01*
X118939150Y-103843311D01*
X119039334Y-103884809D01*
X119139520Y-103926307D01*
X119319844Y-104046795D01*
X119473205Y-104200156D01*
X119593693Y-104380480D01*
X119593693Y-104380481D01*
X119676689Y-104580850D01*
X119719000Y-104793561D01*
X119719000Y-105010439D01*
X119676689Y-105223150D01*
X119646505Y-105296020D01*
X119593693Y-105423520D01*
X119473205Y-105603844D01*
X119319844Y-105757205D01*
X119139520Y-105877693D01*
X118939150Y-105960689D01*
X118855586Y-105977311D01*
X118726440Y-106003000D01*
X118509560Y-106003000D01*
X118380414Y-105977311D01*
X118296850Y-105960689D01*
X118096480Y-105877693D01*
X117916156Y-105757205D01*
X117762795Y-105603844D01*
X117642307Y-105423520D01*
X117589495Y-105296020D01*
X117559311Y-105223150D01*
X117517000Y-105010439D01*
X117517000Y-104793561D01*
X117559311Y-104580850D01*
X117642307Y-104380481D01*
X117642307Y-104380480D01*
X117762795Y-104200156D01*
X117916156Y-104046795D01*
X118096480Y-103926307D01*
X118196666Y-103884809D01*
X118296850Y-103843311D01*
X118403205Y-103822156D01*
X118509560Y-103801000D01*
X118726440Y-103801000D01*
X118832795Y-103822156D01*
G37*
G36*
X95972794Y-97980155D02*
G01*
X96079150Y-98001311D01*
X96179334Y-98042809D01*
X96279520Y-98084307D01*
X96459844Y-98204795D01*
X96613205Y-98358156D01*
X96733693Y-98538480D01*
X96816689Y-98738851D01*
X96859000Y-98951560D01*
X96859000Y-99168440D01*
X96816689Y-99381149D01*
X96733693Y-99581520D01*
X96613205Y-99761844D01*
X96459844Y-99915205D01*
X96279520Y-100035693D01*
X96179334Y-100077191D01*
X96079150Y-100118689D01*
X95972794Y-100139845D01*
X95866440Y-100161000D01*
X95649560Y-100161000D01*
X95543206Y-100139845D01*
X95436850Y-100118689D01*
X95336666Y-100077191D01*
X95236480Y-100035693D01*
X95056156Y-99915205D01*
X94902795Y-99761844D01*
X94782307Y-99581520D01*
X94699311Y-99381149D01*
X94657000Y-99168440D01*
X94657000Y-98951560D01*
X94699311Y-98738851D01*
X94782307Y-98538480D01*
X94902795Y-98358156D01*
X95056156Y-98204795D01*
X95236480Y-98084307D01*
X95336666Y-98042809D01*
X95436850Y-98001311D01*
X95543206Y-97980155D01*
X95649560Y-97959000D01*
X95866440Y-97959000D01*
X95972794Y-97980155D01*
G37*
G36*
X123430512Y-96258927D02*
G01*
X123579812Y-96288624D01*
X123743784Y-96356544D01*
X123891354Y-96455147D01*
X124016853Y-96580646D01*
X124115456Y-96728216D01*
X124183376Y-96892188D01*
X124218000Y-97066259D01*
X124218000Y-97243741D01*
X124183376Y-97417812D01*
X124115456Y-97581784D01*
X124016853Y-97729354D01*
X123891354Y-97854853D01*
X123743784Y-97953456D01*
X123579812Y-98021376D01*
X123430512Y-98051073D01*
X123405742Y-98056000D01*
X123228258Y-98056000D01*
X123203488Y-98051073D01*
X123054188Y-98021376D01*
X122890216Y-97953456D01*
X122742646Y-97854853D01*
X122617147Y-97729354D01*
X122518544Y-97581784D01*
X122450624Y-97417812D01*
X122416000Y-97243741D01*
X122416000Y-97066259D01*
X122450624Y-96892188D01*
X122518544Y-96728216D01*
X122617147Y-96580646D01*
X122742646Y-96455147D01*
X122890216Y-96356544D01*
X123054188Y-96288624D01*
X123203488Y-96258927D01*
X123228258Y-96254000D01*
X123405742Y-96254000D01*
X123430512Y-96258927D01*
G37*
G36*
X120890512Y-96258927D02*
G01*
X121039812Y-96288624D01*
X121203784Y-96356544D01*
X121351354Y-96455147D01*
X121476853Y-96580646D01*
X121575456Y-96728216D01*
X121643376Y-96892188D01*
X121678000Y-97066259D01*
X121678000Y-97243741D01*
X121643376Y-97417812D01*
X121575456Y-97581784D01*
X121476853Y-97729354D01*
X121351354Y-97854853D01*
X121203784Y-97953456D01*
X121039812Y-98021376D01*
X120890512Y-98051073D01*
X120865742Y-98056000D01*
X120688258Y-98056000D01*
X120663488Y-98051073D01*
X120514188Y-98021376D01*
X120350216Y-97953456D01*
X120202646Y-97854853D01*
X120077147Y-97729354D01*
X119978544Y-97581784D01*
X119910624Y-97417812D01*
X119876000Y-97243741D01*
X119876000Y-97066259D01*
X119910624Y-96892188D01*
X119978544Y-96728216D01*
X120077147Y-96580646D01*
X120202646Y-96455147D01*
X120350216Y-96356544D01*
X120514188Y-96288624D01*
X120663488Y-96258927D01*
X120688258Y-96254000D01*
X120865742Y-96254000D01*
X120890512Y-96258927D01*
G37*
G36*
X119138000Y-98056000D02*
G01*
X117336000Y-98056000D01*
X117336000Y-96254000D01*
X119138000Y-96254000D01*
X119138000Y-98056000D01*
G37*
G36*
X95972794Y-95440155D02*
G01*
X96079150Y-95461311D01*
X96279520Y-95544307D01*
X96459844Y-95664795D01*
X96613205Y-95818156D01*
X96733693Y-95998480D01*
X96816689Y-96198851D01*
X96859000Y-96411560D01*
X96859000Y-96628440D01*
X96816689Y-96841149D01*
X96733693Y-97041520D01*
X96613205Y-97221844D01*
X96459844Y-97375205D01*
X96279520Y-97495693D01*
X96179334Y-97537191D01*
X96079150Y-97578689D01*
X96063600Y-97581782D01*
X95866440Y-97621000D01*
X95649560Y-97621000D01*
X95452400Y-97581782D01*
X95436850Y-97578689D01*
X95336666Y-97537191D01*
X95236480Y-97495693D01*
X95056156Y-97375205D01*
X94902795Y-97221844D01*
X94782307Y-97041520D01*
X94699311Y-96841149D01*
X94657000Y-96628440D01*
X94657000Y-96411560D01*
X94699311Y-96198851D01*
X94782307Y-95998480D01*
X94902795Y-95818156D01*
X95056156Y-95664795D01*
X95236480Y-95544307D01*
X95436850Y-95461311D01*
X95543206Y-95440155D01*
X95649560Y-95419000D01*
X95866440Y-95419000D01*
X95972794Y-95440155D01*
G37*
G36*
X95972795Y-92900156D02*
G01*
X96079150Y-92921311D01*
X96279520Y-93004307D01*
X96459844Y-93124795D01*
X96613205Y-93278156D01*
X96733693Y-93458480D01*
X96816689Y-93658851D01*
X96859000Y-93871560D01*
X96859000Y-94088440D01*
X96816689Y-94301149D01*
X96733693Y-94501520D01*
X96613205Y-94681844D01*
X96459844Y-94835205D01*
X96279520Y-94955693D01*
X96179334Y-94997191D01*
X96079150Y-95038689D01*
X95972794Y-95059845D01*
X95866440Y-95081000D01*
X95649560Y-95081000D01*
X95543206Y-95059845D01*
X95436850Y-95038689D01*
X95236480Y-94955693D01*
X95056156Y-94835205D01*
X94902795Y-94681844D01*
X94782307Y-94501520D01*
X94699311Y-94301149D01*
X94657000Y-94088440D01*
X94657000Y-93871560D01*
X94699311Y-93658851D01*
X94782307Y-93458480D01*
X94902795Y-93278156D01*
X95056156Y-93124795D01*
X95236480Y-93004307D01*
X95436850Y-92921311D01*
X95543205Y-92900156D01*
X95649560Y-92879000D01*
X95866440Y-92879000D01*
X95972795Y-92900156D01*
G37*
G36*
X96859000Y-92541000D02*
G01*
X94657000Y-92541000D01*
X94657000Y-90339000D01*
X96859000Y-90339000D01*
X96859000Y-92541000D01*
G37*
G36*
X129075390Y-86242017D02*
G01*
X129193864Y-86291091D01*
X129300488Y-86362335D01*
X129391165Y-86453012D01*
X129462409Y-86559636D01*
X129511483Y-86678110D01*
X129536500Y-86803882D01*
X129536500Y-86932118D01*
X129511483Y-87057890D01*
X129462409Y-87176364D01*
X129391165Y-87282988D01*
X129300488Y-87373665D01*
X129193864Y-87444909D01*
X129193863Y-87444910D01*
X129193862Y-87444910D01*
X129075390Y-87493983D01*
X128949619Y-87519000D01*
X128821381Y-87519000D01*
X128695610Y-87493983D01*
X128577138Y-87444910D01*
X128577137Y-87444910D01*
X128577136Y-87444909D01*
X128470512Y-87373665D01*
X128379835Y-87282988D01*
X128308591Y-87176364D01*
X128259517Y-87057890D01*
X128234500Y-86932118D01*
X128234500Y-86803882D01*
X128259517Y-86678110D01*
X128308591Y-86559636D01*
X128379835Y-86453012D01*
X128470512Y-86362335D01*
X128577136Y-86291091D01*
X128695610Y-86242017D01*
X128821381Y-86217000D01*
X128949619Y-86217000D01*
X129075390Y-86242017D01*
G37*
G36*
X121575390Y-86242017D02*
G01*
X121693864Y-86291091D01*
X121800488Y-86362335D01*
X121891165Y-86453012D01*
X121962409Y-86559636D01*
X122011483Y-86678110D01*
X122036500Y-86803882D01*
X122036500Y-86932118D01*
X122011483Y-87057890D01*
X121962409Y-87176364D01*
X121891165Y-87282988D01*
X121800488Y-87373665D01*
X121693864Y-87444909D01*
X121693863Y-87444910D01*
X121693862Y-87444910D01*
X121575390Y-87493983D01*
X121449619Y-87519000D01*
X121321381Y-87519000D01*
X121195610Y-87493983D01*
X121077138Y-87444910D01*
X121077137Y-87444910D01*
X121077136Y-87444909D01*
X120970512Y-87373665D01*
X120879835Y-87282988D01*
X120808591Y-87176364D01*
X120759517Y-87057890D01*
X120734500Y-86932118D01*
X120734500Y-86803882D01*
X120759517Y-86678110D01*
X120808591Y-86559636D01*
X120879835Y-86453012D01*
X120970512Y-86362335D01*
X121077136Y-86291091D01*
X121195610Y-86242017D01*
X121321381Y-86217000D01*
X121449619Y-86217000D01*
X121575390Y-86242017D01*
G37*
G36*
X149515064Y-82872889D02*
G01*
X149706333Y-82952115D01*
X149706335Y-82952116D01*
X149878473Y-83067135D01*
X150024865Y-83213527D01*
X150139885Y-83385667D01*
X150219111Y-83576936D01*
X150259500Y-83779984D01*
X150259500Y-83987016D01*
X150219111Y-84190064D01*
X150139885Y-84381333D01*
X150139884Y-84381335D01*
X150024865Y-84553473D01*
X149878473Y-84699865D01*
X149706335Y-84814884D01*
X149706334Y-84814885D01*
X149706333Y-84814885D01*
X149515064Y-84894111D01*
X149312016Y-84934500D01*
X149104984Y-84934500D01*
X148901936Y-84894111D01*
X148710667Y-84814885D01*
X148710666Y-84814885D01*
X148710665Y-84814884D01*
X148538527Y-84699865D01*
X148392135Y-84553473D01*
X148277116Y-84381335D01*
X148277115Y-84381333D01*
X148197889Y-84190064D01*
X148157500Y-83987016D01*
X148157500Y-83779984D01*
X148197889Y-83576936D01*
X148277115Y-83385667D01*
X148392135Y-83213527D01*
X148538527Y-83067135D01*
X148710665Y-82952116D01*
X148710667Y-82952115D01*
X148901936Y-82872889D01*
X149104984Y-82832500D01*
X149312016Y-82832500D01*
X149515064Y-82872889D01*
G37*
G36*
X145259500Y-84934500D02*
G01*
X143157500Y-84934500D01*
X143157500Y-82832500D01*
X145259500Y-82832500D01*
X145259500Y-84934500D01*
G37*
G36*
X153707485Y-76403322D02*
G01*
X154138877Y-76489131D01*
X154703041Y-76722815D01*
X155210775Y-77062072D01*
X155642568Y-77493865D01*
X155981825Y-78001599D01*
X156215509Y-78565763D01*
X156334640Y-79164677D01*
X156334640Y-79775323D01*
X156215509Y-80374237D01*
X155981825Y-80938401D01*
X155642568Y-81446135D01*
X155210775Y-81877928D01*
X154703041Y-82217185D01*
X154138877Y-82450869D01*
X153839420Y-82510435D01*
X153539965Y-82570000D01*
X152929315Y-82570000D01*
X152629860Y-82510435D01*
X152330403Y-82450869D01*
X151766239Y-82217185D01*
X151258505Y-81877928D01*
X150826712Y-81446135D01*
X150487455Y-80938401D01*
X150253771Y-80374237D01*
X150134640Y-79775323D01*
X150134640Y-79164677D01*
X150253771Y-78565763D01*
X150487455Y-78001599D01*
X150826712Y-77493865D01*
X151258505Y-77062072D01*
X151766239Y-76722815D01*
X152330403Y-76489131D01*
X152761795Y-76403322D01*
X152929315Y-76370000D01*
X153539965Y-76370000D01*
X153707485Y-76403322D01*
G37*
G36*
X121264642Y-76255281D02*
G01*
X121410414Y-76315662D01*
X121410416Y-76315663D01*
X121541608Y-76403322D01*
X121653178Y-76514892D01*
X121740837Y-76646084D01*
X121740838Y-76646086D01*
X121801219Y-76791858D01*
X121832000Y-76946607D01*
X121832000Y-77104393D01*
X121801219Y-77259142D01*
X121740838Y-77404914D01*
X121740837Y-77404916D01*
X121653178Y-77536108D01*
X121541608Y-77647678D01*
X121410416Y-77735337D01*
X121410415Y-77735338D01*
X121410414Y-77735338D01*
X121264642Y-77795719D01*
X121109893Y-77826500D01*
X120952107Y-77826500D01*
X120797358Y-77795719D01*
X120651586Y-77735338D01*
X120651585Y-77735338D01*
X120651584Y-77735337D01*
X120520392Y-77647678D01*
X120408822Y-77536108D01*
X120321163Y-77404916D01*
X120321162Y-77404914D01*
X120260781Y-77259142D01*
X120230000Y-77104393D01*
X120230000Y-76946607D01*
X120260781Y-76791858D01*
X120321162Y-76646086D01*
X120321163Y-76646084D01*
X120408822Y-76514892D01*
X120520392Y-76403322D01*
X120651584Y-76315663D01*
X120651586Y-76315662D01*
X120797358Y-76255281D01*
X120952107Y-76224500D01*
X121109893Y-76224500D01*
X121264642Y-76255281D01*
G37*
G36*
X118724642Y-76255281D02*
G01*
X118870414Y-76315662D01*
X118870416Y-76315663D01*
X119001608Y-76403322D01*
X119113178Y-76514892D01*
X119200837Y-76646084D01*
X119200838Y-76646086D01*
X119261219Y-76791858D01*
X119292000Y-76946607D01*
X119292000Y-77104393D01*
X119261219Y-77259142D01*
X119200838Y-77404914D01*
X119200837Y-77404916D01*
X119113178Y-77536108D01*
X119001608Y-77647678D01*
X118870416Y-77735337D01*
X118870415Y-77735338D01*
X118870414Y-77735338D01*
X118724642Y-77795719D01*
X118569893Y-77826500D01*
X118412107Y-77826500D01*
X118257358Y-77795719D01*
X118111586Y-77735338D01*
X118111585Y-77735338D01*
X118111584Y-77735337D01*
X117980392Y-77647678D01*
X117868822Y-77536108D01*
X117781163Y-77404916D01*
X117781162Y-77404914D01*
X117720781Y-77259142D01*
X117690000Y-77104393D01*
X117690000Y-76946607D01*
X117720781Y-76791858D01*
X117781162Y-76646086D01*
X117781163Y-76646084D01*
X117868822Y-76514892D01*
X117980392Y-76403322D01*
X118111584Y-76315663D01*
X118111586Y-76315662D01*
X118257358Y-76255281D01*
X118412107Y-76224500D01*
X118569893Y-76224500D01*
X118724642Y-76255281D01*
G37*
G36*
X116752000Y-77826500D02*
G01*
X115150000Y-77826500D01*
X115150000Y-76224500D01*
X116752000Y-76224500D01*
X116752000Y-77826500D01*
G37*
G36*
X123804642Y-76255281D02*
G01*
X123950414Y-76315662D01*
X123950416Y-76315663D01*
X124081608Y-76403322D01*
X124193178Y-76514892D01*
X124280837Y-76646084D01*
X124280838Y-76646086D01*
X124341219Y-76791858D01*
X124372000Y-76946607D01*
X124372000Y-77104393D01*
X124341219Y-77259142D01*
X124280838Y-77404914D01*
X124280837Y-77404916D01*
X124193178Y-77536108D01*
X124081608Y-77647678D01*
X123950416Y-77735337D01*
X123950415Y-77735338D01*
X123950414Y-77735338D01*
X123804642Y-77795719D01*
X123649893Y-77826500D01*
X123492107Y-77826500D01*
X123337358Y-77795719D01*
X123191586Y-77735338D01*
X123191585Y-77735338D01*
X123191584Y-77735337D01*
X123060392Y-77647678D01*
X122948822Y-77536108D01*
X122861163Y-77404916D01*
X122861162Y-77404914D01*
X122800781Y-77259142D01*
X122770000Y-77104393D01*
X122770000Y-76946607D01*
X122800781Y-76791858D01*
X122861162Y-76646086D01*
X122861163Y-76646084D01*
X122948822Y-76514892D01*
X123060392Y-76403322D01*
X123191584Y-76315663D01*
X123191586Y-76315662D01*
X123337358Y-76255281D01*
X123492107Y-76224500D01*
X123649893Y-76224500D01*
X123804642Y-76255281D01*
G37*
G36*
X126344642Y-76255281D02*
G01*
X126490414Y-76315662D01*
X126490416Y-76315663D01*
X126621608Y-76403322D01*
X126733178Y-76514892D01*
X126820837Y-76646084D01*
X126820838Y-76646086D01*
X126881219Y-76791858D01*
X126912000Y-76946607D01*
X126912000Y-77104393D01*
X126881219Y-77259142D01*
X126820838Y-77404914D01*
X126820837Y-77404916D01*
X126733178Y-77536108D01*
X126621608Y-77647678D01*
X126490416Y-77735337D01*
X126490415Y-77735338D01*
X126490414Y-77735338D01*
X126344642Y-77795719D01*
X126189893Y-77826500D01*
X126032107Y-77826500D01*
X125877358Y-77795719D01*
X125731586Y-77735338D01*
X125731585Y-77735338D01*
X125731584Y-77735337D01*
X125600392Y-77647678D01*
X125488822Y-77536108D01*
X125401163Y-77404916D01*
X125401162Y-77404914D01*
X125340781Y-77259142D01*
X125310000Y-77104393D01*
X125310000Y-76946607D01*
X125340781Y-76791858D01*
X125401162Y-76646086D01*
X125401163Y-76646084D01*
X125488822Y-76514892D01*
X125600392Y-76403322D01*
X125731584Y-76315663D01*
X125731586Y-76315662D01*
X125877358Y-76255281D01*
X126032107Y-76224500D01*
X126189893Y-76224500D01*
X126344642Y-76255281D01*
G37*
G36*
X128884642Y-76255281D02*
G01*
X129030414Y-76315662D01*
X129030416Y-76315663D01*
X129161608Y-76403322D01*
X129273178Y-76514892D01*
X129360837Y-76646084D01*
X129360838Y-76646086D01*
X129421219Y-76791858D01*
X129452000Y-76946607D01*
X129452000Y-77104393D01*
X129421219Y-77259142D01*
X129360838Y-77404914D01*
X129360837Y-77404916D01*
X129273178Y-77536108D01*
X129161608Y-77647678D01*
X129030416Y-77735337D01*
X129030415Y-77735338D01*
X129030414Y-77735338D01*
X128884642Y-77795719D01*
X128729893Y-77826500D01*
X128572107Y-77826500D01*
X128417358Y-77795719D01*
X128271586Y-77735338D01*
X128271585Y-77735338D01*
X128271584Y-77735337D01*
X128140392Y-77647678D01*
X128028822Y-77536108D01*
X127941163Y-77404916D01*
X127941162Y-77404914D01*
X127880781Y-77259142D01*
X127850000Y-77104393D01*
X127850000Y-76946607D01*
X127880781Y-76791858D01*
X127941162Y-76646086D01*
X127941163Y-76646084D01*
X128028822Y-76514892D01*
X128140392Y-76403322D01*
X128271584Y-76315663D01*
X128271586Y-76315662D01*
X128417358Y-76255281D01*
X128572107Y-76224500D01*
X128729893Y-76224500D01*
X128884642Y-76255281D01*
G37*
G36*
X153755000Y-75523000D02*
G01*
X151553000Y-75523000D01*
X151553000Y-73321000D01*
X153755000Y-73321000D01*
X153755000Y-75523000D01*
G37*
G36*
X152868795Y-70802156D02*
G01*
X152975150Y-70823311D01*
X153175520Y-70906307D01*
X153355844Y-71026795D01*
X153509205Y-71180156D01*
X153629693Y-71360480D01*
X153712689Y-71560851D01*
X153755000Y-71773560D01*
X153755000Y-71990440D01*
X153712689Y-72203149D01*
X153629693Y-72403520D01*
X153509205Y-72583844D01*
X153355844Y-72737205D01*
X153175520Y-72857693D01*
X152975150Y-72940689D01*
X152868794Y-72961845D01*
X152762440Y-72983000D01*
X152545560Y-72983000D01*
X152439206Y-72961845D01*
X152332850Y-72940689D01*
X152132480Y-72857693D01*
X151952156Y-72737205D01*
X151798795Y-72583844D01*
X151678307Y-72403520D01*
X151595311Y-72203149D01*
X151553000Y-71990440D01*
X151553000Y-71773560D01*
X151595311Y-71560851D01*
X151678307Y-71360480D01*
X151798795Y-71180156D01*
X151952156Y-71026795D01*
X152132480Y-70906307D01*
X152232666Y-70864809D01*
X152332850Y-70823311D01*
X152439205Y-70802156D01*
X152545560Y-70781000D01*
X152762440Y-70781000D01*
X152868795Y-70802156D01*
G37*
G36*
X152868794Y-68262155D02*
G01*
X152975150Y-68283311D01*
X153075334Y-68324809D01*
X153175520Y-68366307D01*
X153355844Y-68486795D01*
X153509205Y-68640156D01*
X153629693Y-68820480D01*
X153712689Y-69020851D01*
X153755000Y-69233560D01*
X153755000Y-69450440D01*
X153712689Y-69663149D01*
X153629693Y-69863520D01*
X153509205Y-70043844D01*
X153355844Y-70197205D01*
X153175520Y-70317693D01*
X152975150Y-70400689D01*
X152868795Y-70421844D01*
X152762440Y-70443000D01*
X152545560Y-70443000D01*
X152439205Y-70421844D01*
X152332850Y-70400689D01*
X152132480Y-70317693D01*
X151952156Y-70197205D01*
X151798795Y-70043844D01*
X151678307Y-69863520D01*
X151595311Y-69663149D01*
X151553000Y-69450440D01*
X151553000Y-69233560D01*
X151595311Y-69020851D01*
X151678307Y-68820480D01*
X151798795Y-68640156D01*
X151952156Y-68486795D01*
X152132480Y-68366307D01*
X152232666Y-68324809D01*
X152332850Y-68283311D01*
X152439206Y-68262155D01*
X152545560Y-68241000D01*
X152762440Y-68241000D01*
X152868794Y-68262155D01*
G37*
G36*
X95516000Y-69989000D02*
G01*
X93714000Y-69989000D01*
X93714000Y-68187000D01*
X95516000Y-68187000D01*
X95516000Y-69989000D01*
G37*
G36*
X152868795Y-65722156D02*
G01*
X152975150Y-65743311D01*
X153075334Y-65784809D01*
X153175520Y-65826307D01*
X153355844Y-65946795D01*
X153509205Y-66100156D01*
X153629693Y-66280480D01*
X153671191Y-66380666D01*
X153712689Y-66480850D01*
X153755000Y-66693561D01*
X153755000Y-66910439D01*
X153712848Y-67122353D01*
X153712689Y-67123149D01*
X153629693Y-67323520D01*
X153509205Y-67503844D01*
X153355844Y-67657205D01*
X153175520Y-67777693D01*
X153075334Y-67819191D01*
X152975150Y-67860689D01*
X152868795Y-67881844D01*
X152762440Y-67903000D01*
X152545560Y-67903000D01*
X152439205Y-67881844D01*
X152332850Y-67860689D01*
X152232666Y-67819191D01*
X152132480Y-67777693D01*
X151952156Y-67657205D01*
X151798795Y-67503844D01*
X151678307Y-67323520D01*
X151595311Y-67123149D01*
X151595153Y-67122353D01*
X151553000Y-66910439D01*
X151553000Y-66693561D01*
X151595311Y-66480850D01*
X151678307Y-66280480D01*
X151798795Y-66100156D01*
X151952156Y-65946795D01*
X152132480Y-65826307D01*
X152232666Y-65784809D01*
X152332850Y-65743311D01*
X152439205Y-65722156D01*
X152545560Y-65701000D01*
X152762440Y-65701000D01*
X152868795Y-65722156D01*
G37*
G36*
X94728512Y-65651927D02*
G01*
X94877812Y-65681624D01*
X95041784Y-65749544D01*
X95189354Y-65848147D01*
X95314853Y-65973646D01*
X95413456Y-66121216D01*
X95481376Y-66285188D01*
X95516000Y-66459259D01*
X95516000Y-66636741D01*
X95481376Y-66810812D01*
X95413456Y-66974784D01*
X95314853Y-67122354D01*
X95189354Y-67247853D01*
X95041784Y-67346456D01*
X94877812Y-67414376D01*
X94728512Y-67444073D01*
X94703742Y-67449000D01*
X94526258Y-67449000D01*
X94501488Y-67444073D01*
X94352188Y-67414376D01*
X94188216Y-67346456D01*
X94040646Y-67247853D01*
X93915147Y-67122354D01*
X93816544Y-66974784D01*
X93748624Y-66810812D01*
X93714000Y-66636741D01*
X93714000Y-66459259D01*
X93748624Y-66285188D01*
X93816544Y-66121216D01*
X93915147Y-65973646D01*
X94040646Y-65848147D01*
X94188216Y-65749544D01*
X94352188Y-65681624D01*
X94501488Y-65651927D01*
X94526258Y-65647000D01*
X94703742Y-65647000D01*
X94728512Y-65651927D01*
G37*
G36*
X152868795Y-63182156D02*
G01*
X152975150Y-63203311D01*
X153175520Y-63286307D01*
X153355844Y-63406795D01*
X153509205Y-63560156D01*
X153629693Y-63740480D01*
X153712689Y-63940850D01*
X153755000Y-64153561D01*
X153755000Y-64370439D01*
X153712848Y-64582353D01*
X153712689Y-64583149D01*
X153629693Y-64783520D01*
X153509205Y-64963844D01*
X153355844Y-65117205D01*
X153175520Y-65237693D01*
X153075334Y-65279191D01*
X152975150Y-65320689D01*
X152868794Y-65341845D01*
X152762440Y-65363000D01*
X152545560Y-65363000D01*
X152439206Y-65341845D01*
X152332850Y-65320689D01*
X152132480Y-65237693D01*
X151952156Y-65117205D01*
X151798795Y-64963844D01*
X151678307Y-64783520D01*
X151595311Y-64583149D01*
X151595153Y-64582353D01*
X151553000Y-64370439D01*
X151553000Y-64153561D01*
X151595311Y-63940850D01*
X151678307Y-63740480D01*
X151798795Y-63560156D01*
X151952156Y-63406795D01*
X152132480Y-63286307D01*
X152332850Y-63203311D01*
X152439205Y-63182156D01*
X152545560Y-63161000D01*
X152762440Y-63161000D01*
X152868795Y-63182156D01*
G37*
G36*
X94728512Y-63111927D02*
G01*
X94877812Y-63141624D01*
X95041784Y-63209544D01*
X95189354Y-63308147D01*
X95314853Y-63433646D01*
X95413456Y-63581216D01*
X95481376Y-63745188D01*
X95516000Y-63919259D01*
X95516000Y-64096741D01*
X95481376Y-64270812D01*
X95413456Y-64434784D01*
X95314853Y-64582354D01*
X95189354Y-64707853D01*
X95041784Y-64806456D01*
X94877812Y-64874376D01*
X94728512Y-64904073D01*
X94703742Y-64909000D01*
X94526258Y-64909000D01*
X94501488Y-64904073D01*
X94352188Y-64874376D01*
X94188216Y-64806456D01*
X94040646Y-64707853D01*
X93915147Y-64582354D01*
X93816544Y-64434784D01*
X93748624Y-64270812D01*
X93714000Y-64096741D01*
X93714000Y-63919259D01*
X93748624Y-63745188D01*
X93816544Y-63581216D01*
X93915147Y-63433646D01*
X94040646Y-63308147D01*
X94188216Y-63209544D01*
X94352188Y-63141624D01*
X94501488Y-63111927D01*
X94526258Y-63107000D01*
X94703742Y-63107000D01*
X94728512Y-63111927D01*
G37*
G36*
X138378500Y-63194500D02*
G01*
X136576500Y-63194500D01*
X136576500Y-61392500D01*
X138378500Y-61392500D01*
X138378500Y-63194500D01*
G37*
G36*
X135051012Y-61397427D02*
G01*
X135200312Y-61427124D01*
X135364284Y-61495044D01*
X135511854Y-61593647D01*
X135637353Y-61719146D01*
X135735956Y-61866716D01*
X135803876Y-62030688D01*
X135838500Y-62204759D01*
X135838500Y-62382241D01*
X135803876Y-62556312D01*
X135735956Y-62720284D01*
X135637353Y-62867854D01*
X135511854Y-62993353D01*
X135364284Y-63091956D01*
X135200312Y-63159876D01*
X135051012Y-63189573D01*
X135026242Y-63194500D01*
X134848758Y-63194500D01*
X134823988Y-63189573D01*
X134674688Y-63159876D01*
X134510716Y-63091956D01*
X134363146Y-62993353D01*
X134237647Y-62867854D01*
X134139044Y-62720284D01*
X134071124Y-62556312D01*
X134036500Y-62382241D01*
X134036500Y-62204759D01*
X134071124Y-62030688D01*
X134139044Y-61866716D01*
X134237647Y-61719146D01*
X134363146Y-61593647D01*
X134510716Y-61495044D01*
X134674688Y-61427124D01*
X134823988Y-61397427D01*
X134848758Y-61392500D01*
X135026242Y-61392500D01*
X135051012Y-61397427D01*
G37*
G36*
X152868795Y-60642156D02*
G01*
X152975150Y-60663311D01*
X153075334Y-60704809D01*
X153175520Y-60746307D01*
X153355844Y-60866795D01*
X153509205Y-61020156D01*
X153629693Y-61200480D01*
X153629693Y-61200481D01*
X153712689Y-61400850D01*
X153717915Y-61427124D01*
X153742727Y-61551858D01*
X153755000Y-61613561D01*
X153755000Y-61830439D01*
X153715168Y-62030689D01*
X153712689Y-62043149D01*
X153629693Y-62243520D01*
X153509205Y-62423844D01*
X153355844Y-62577205D01*
X153175520Y-62697693D01*
X153120985Y-62720282D01*
X152975150Y-62780689D01*
X152868794Y-62801845D01*
X152762440Y-62823000D01*
X152545560Y-62823000D01*
X152439206Y-62801845D01*
X152332850Y-62780689D01*
X152187015Y-62720282D01*
X152132480Y-62697693D01*
X151952156Y-62577205D01*
X151798795Y-62423844D01*
X151678307Y-62243520D01*
X151595311Y-62043149D01*
X151592833Y-62030689D01*
X151553000Y-61830439D01*
X151553000Y-61613561D01*
X151565274Y-61551858D01*
X151590085Y-61427124D01*
X151595311Y-61400850D01*
X151678307Y-61200481D01*
X151678307Y-61200480D01*
X151798795Y-61020156D01*
X151952156Y-60866795D01*
X152132480Y-60746307D01*
X152232666Y-60704809D01*
X152332850Y-60663311D01*
X152439205Y-60642156D01*
X152545560Y-60621000D01*
X152762440Y-60621000D01*
X152868795Y-60642156D01*
G37*
G36*
X116184642Y-61015281D02*
G01*
X116330414Y-61075662D01*
X116330416Y-61075663D01*
X116461608Y-61163322D01*
X116573178Y-61274892D01*
X116657340Y-61400851D01*
X116660838Y-61406086D01*
X116721219Y-61551858D01*
X116752000Y-61706607D01*
X116752000Y-61864393D01*
X116721219Y-62019142D01*
X116660838Y-62164914D01*
X116660837Y-62164916D01*
X116573178Y-62296108D01*
X116461608Y-62407678D01*
X116330416Y-62495337D01*
X116330415Y-62495338D01*
X116330414Y-62495338D01*
X116184642Y-62555719D01*
X116029893Y-62586500D01*
X115872107Y-62586500D01*
X115717358Y-62555719D01*
X115571586Y-62495338D01*
X115571585Y-62495338D01*
X115571584Y-62495337D01*
X115440392Y-62407678D01*
X115328822Y-62296108D01*
X115241163Y-62164916D01*
X115241162Y-62164914D01*
X115180781Y-62019142D01*
X115150000Y-61864393D01*
X115150000Y-61706607D01*
X115180781Y-61551858D01*
X115241162Y-61406086D01*
X115244660Y-61400851D01*
X115328822Y-61274892D01*
X115440392Y-61163322D01*
X115571584Y-61075663D01*
X115571586Y-61075662D01*
X115717358Y-61015281D01*
X115872107Y-60984500D01*
X116029893Y-60984500D01*
X116184642Y-61015281D01*
G37*
G36*
X118724642Y-61015281D02*
G01*
X118870414Y-61075662D01*
X118870416Y-61075663D01*
X119001608Y-61163322D01*
X119113178Y-61274892D01*
X119197340Y-61400851D01*
X119200838Y-61406086D01*
X119261219Y-61551858D01*
X119292000Y-61706607D01*
X119292000Y-61864393D01*
X119261219Y-62019142D01*
X119200838Y-62164914D01*
X119200837Y-62164916D01*
X119113178Y-62296108D01*
X119001608Y-62407678D01*
X118870416Y-62495337D01*
X118870415Y-62495338D01*
X118870414Y-62495338D01*
X118724642Y-62555719D01*
X118569893Y-62586500D01*
X118412107Y-62586500D01*
X118257358Y-62555719D01*
X118111586Y-62495338D01*
X118111585Y-62495338D01*
X118111584Y-62495337D01*
X117980392Y-62407678D01*
X117868822Y-62296108D01*
X117781163Y-62164916D01*
X117781162Y-62164914D01*
X117720781Y-62019142D01*
X117690000Y-61864393D01*
X117690000Y-61706607D01*
X117720781Y-61551858D01*
X117781162Y-61406086D01*
X117784660Y-61400851D01*
X117868822Y-61274892D01*
X117980392Y-61163322D01*
X118111584Y-61075663D01*
X118111586Y-61075662D01*
X118257358Y-61015281D01*
X118412107Y-60984500D01*
X118569893Y-60984500D01*
X118724642Y-61015281D01*
G37*
G36*
X123804642Y-61015281D02*
G01*
X123950414Y-61075662D01*
X123950416Y-61075663D01*
X124081608Y-61163322D01*
X124193178Y-61274892D01*
X124277340Y-61400851D01*
X124280838Y-61406086D01*
X124341219Y-61551858D01*
X124372000Y-61706607D01*
X124372000Y-61864393D01*
X124341219Y-62019142D01*
X124280838Y-62164914D01*
X124280837Y-62164916D01*
X124193178Y-62296108D01*
X124081608Y-62407678D01*
X123950416Y-62495337D01*
X123950415Y-62495338D01*
X123950414Y-62495338D01*
X123804642Y-62555719D01*
X123649893Y-62586500D01*
X123492107Y-62586500D01*
X123337358Y-62555719D01*
X123191586Y-62495338D01*
X123191585Y-62495338D01*
X123191584Y-62495337D01*
X123060392Y-62407678D01*
X122948822Y-62296108D01*
X122861163Y-62164916D01*
X122861162Y-62164914D01*
X122800781Y-62019142D01*
X122770000Y-61864393D01*
X122770000Y-61706607D01*
X122800781Y-61551858D01*
X122861162Y-61406086D01*
X122864660Y-61400851D01*
X122948822Y-61274892D01*
X123060392Y-61163322D01*
X123191584Y-61075663D01*
X123191586Y-61075662D01*
X123337358Y-61015281D01*
X123492107Y-60984500D01*
X123649893Y-60984500D01*
X123804642Y-61015281D01*
G37*
G36*
X126344642Y-61015281D02*
G01*
X126490414Y-61075662D01*
X126490416Y-61075663D01*
X126621608Y-61163322D01*
X126733178Y-61274892D01*
X126817340Y-61400851D01*
X126820838Y-61406086D01*
X126881219Y-61551858D01*
X126912000Y-61706607D01*
X126912000Y-61864393D01*
X126881219Y-62019142D01*
X126820838Y-62164914D01*
X126820837Y-62164916D01*
X126733178Y-62296108D01*
X126621608Y-62407678D01*
X126490416Y-62495337D01*
X126490415Y-62495338D01*
X126490414Y-62495338D01*
X126344642Y-62555719D01*
X126189893Y-62586500D01*
X126032107Y-62586500D01*
X125877358Y-62555719D01*
X125731586Y-62495338D01*
X125731585Y-62495338D01*
X125731584Y-62495337D01*
X125600392Y-62407678D01*
X125488822Y-62296108D01*
X125401163Y-62164916D01*
X125401162Y-62164914D01*
X125340781Y-62019142D01*
X125310000Y-61864393D01*
X125310000Y-61706607D01*
X125340781Y-61551858D01*
X125401162Y-61406086D01*
X125404660Y-61400851D01*
X125488822Y-61274892D01*
X125600392Y-61163322D01*
X125731584Y-61075663D01*
X125731586Y-61075662D01*
X125877358Y-61015281D01*
X126032107Y-60984500D01*
X126189893Y-60984500D01*
X126344642Y-61015281D01*
G37*
G36*
X128884642Y-61015281D02*
G01*
X129030414Y-61075662D01*
X129030416Y-61075663D01*
X129161608Y-61163322D01*
X129273178Y-61274892D01*
X129357340Y-61400851D01*
X129360838Y-61406086D01*
X129421219Y-61551858D01*
X129452000Y-61706607D01*
X129452000Y-61864393D01*
X129421219Y-62019142D01*
X129360838Y-62164914D01*
X129360837Y-62164916D01*
X129273178Y-62296108D01*
X129161608Y-62407678D01*
X129030416Y-62495337D01*
X129030415Y-62495338D01*
X129030414Y-62495338D01*
X128884642Y-62555719D01*
X128729893Y-62586500D01*
X128572107Y-62586500D01*
X128417358Y-62555719D01*
X128271586Y-62495338D01*
X128271585Y-62495338D01*
X128271584Y-62495337D01*
X128140392Y-62407678D01*
X128028822Y-62296108D01*
X127941163Y-62164916D01*
X127941162Y-62164914D01*
X127880781Y-62019142D01*
X127850000Y-61864393D01*
X127850000Y-61706607D01*
X127880781Y-61551858D01*
X127941162Y-61406086D01*
X127944660Y-61400851D01*
X128028822Y-61274892D01*
X128140392Y-61163322D01*
X128271584Y-61075663D01*
X128271586Y-61075662D01*
X128417358Y-61015281D01*
X128572107Y-60984500D01*
X128729893Y-60984500D01*
X128884642Y-61015281D01*
G37*
G36*
X121264642Y-61015281D02*
G01*
X121410414Y-61075662D01*
X121410416Y-61075663D01*
X121541608Y-61163322D01*
X121653178Y-61274892D01*
X121737340Y-61400851D01*
X121740838Y-61406086D01*
X121801219Y-61551858D01*
X121832000Y-61706607D01*
X121832000Y-61864393D01*
X121801219Y-62019142D01*
X121740838Y-62164914D01*
X121740837Y-62164916D01*
X121653178Y-62296108D01*
X121541608Y-62407678D01*
X121410416Y-62495337D01*
X121410415Y-62495338D01*
X121410414Y-62495338D01*
X121264642Y-62555719D01*
X121109893Y-62586500D01*
X120952107Y-62586500D01*
X120797358Y-62555719D01*
X120651586Y-62495338D01*
X120651585Y-62495338D01*
X120651584Y-62495337D01*
X120520392Y-62407678D01*
X120408822Y-62296108D01*
X120321163Y-62164916D01*
X120321162Y-62164914D01*
X120260781Y-62019142D01*
X120230000Y-61864393D01*
X120230000Y-61706607D01*
X120260781Y-61551858D01*
X120321162Y-61406086D01*
X120324660Y-61400851D01*
X120408822Y-61274892D01*
X120520392Y-61163322D01*
X120651584Y-61075663D01*
X120651586Y-61075662D01*
X120797358Y-61015281D01*
X120952107Y-60984500D01*
X121109893Y-60984500D01*
X121264642Y-61015281D01*
G37*
G36*
X95839420Y-53458586D02*
G01*
X96138877Y-53518151D01*
X96703041Y-53751835D01*
X97210775Y-54091092D01*
X97642568Y-54522885D01*
X97981825Y-55030619D01*
X98215509Y-55594783D01*
X98334640Y-56193697D01*
X98334640Y-56804343D01*
X98215509Y-57403257D01*
X97981825Y-57967421D01*
X97642568Y-58475155D01*
X97210775Y-58906948D01*
X96703041Y-59246205D01*
X96138877Y-59479889D01*
X95839420Y-59539455D01*
X95539965Y-59599020D01*
X94929315Y-59599020D01*
X94629860Y-59539455D01*
X94330403Y-59479889D01*
X93766239Y-59246205D01*
X93258505Y-58906948D01*
X92826712Y-58475155D01*
X92487455Y-57967421D01*
X92253771Y-57403257D01*
X92134640Y-56804343D01*
X92134640Y-56193697D01*
X92253771Y-55594783D01*
X92487455Y-55030619D01*
X92826712Y-54522885D01*
X93258505Y-54091092D01*
X93766239Y-53751835D01*
X94330403Y-53518151D01*
X94629860Y-53458586D01*
X94929315Y-53399020D01*
X95539965Y-53399020D01*
X95839420Y-53458586D01*
G37*
G36*
X153839420Y-53458586D02*
G01*
X154138877Y-53518151D01*
X154703041Y-53751835D01*
X155210775Y-54091092D01*
X155642568Y-54522885D01*
X155981825Y-55030619D01*
X156215509Y-55594783D01*
X156334640Y-56193697D01*
X156334640Y-56804343D01*
X156215509Y-57403257D01*
X155981825Y-57967421D01*
X155642568Y-58475155D01*
X155210775Y-58906948D01*
X154703041Y-59246205D01*
X154138877Y-59479889D01*
X153839420Y-59539455D01*
X153539965Y-59599020D01*
X152929315Y-59599020D01*
X152629860Y-59539455D01*
X152330403Y-59479889D01*
X151766239Y-59246205D01*
X151258505Y-58906948D01*
X150826712Y-58475155D01*
X150487455Y-57967421D01*
X150253771Y-57403257D01*
X150134640Y-56804343D01*
X150134640Y-56193697D01*
X150253771Y-55594783D01*
X150487455Y-55030619D01*
X150826712Y-54522885D01*
X151258505Y-54091092D01*
X151766239Y-53751835D01*
X152330403Y-53518151D01*
X152629860Y-53458586D01*
X152929315Y-53399020D01*
X153539965Y-53399020D01*
X153839420Y-53458586D01*
G37*
G36*
X107837452Y-56871147D02*
G01*
X107986752Y-56900844D01*
X108150724Y-56968764D01*
X108298294Y-57067367D01*
X108423793Y-57192866D01*
X108522396Y-57340436D01*
X108590316Y-57504408D01*
X108624940Y-57678479D01*
X108624940Y-57855961D01*
X108590316Y-58030032D01*
X108522396Y-58194004D01*
X108423793Y-58341574D01*
X108298294Y-58467073D01*
X108150724Y-58565676D01*
X107986752Y-58633596D01*
X107837452Y-58663293D01*
X107812682Y-58668220D01*
X107635198Y-58668220D01*
X107610428Y-58663293D01*
X107461128Y-58633596D01*
X107297156Y-58565676D01*
X107149586Y-58467073D01*
X107024087Y-58341574D01*
X106925484Y-58194004D01*
X106857564Y-58030032D01*
X106822940Y-57855961D01*
X106822940Y-57678479D01*
X106857564Y-57504408D01*
X106925484Y-57340436D01*
X107024087Y-57192866D01*
X107149586Y-57067367D01*
X107297156Y-56968764D01*
X107461128Y-56900844D01*
X107610428Y-56871147D01*
X107635198Y-56866220D01*
X107812682Y-56866220D01*
X107837452Y-56871147D01*
G37*
G36*
X101004940Y-58668220D02*
G01*
X99202940Y-58668220D01*
X99202940Y-56866220D01*
X101004940Y-56866220D01*
X101004940Y-58668220D01*
G37*
G36*
X105297452Y-56871147D02*
G01*
X105446752Y-56900844D01*
X105610724Y-56968764D01*
X105758294Y-57067367D01*
X105883793Y-57192866D01*
X105982396Y-57340436D01*
X106050316Y-57504408D01*
X106084940Y-57678479D01*
X106084940Y-57855961D01*
X106050316Y-58030032D01*
X105982396Y-58194004D01*
X105883793Y-58341574D01*
X105758294Y-58467073D01*
X105610724Y-58565676D01*
X105446752Y-58633596D01*
X105297452Y-58663293D01*
X105272682Y-58668220D01*
X105095198Y-58668220D01*
X105070428Y-58663293D01*
X104921128Y-58633596D01*
X104757156Y-58565676D01*
X104609586Y-58467073D01*
X104484087Y-58341574D01*
X104385484Y-58194004D01*
X104317564Y-58030032D01*
X104282940Y-57855961D01*
X104282940Y-57678479D01*
X104317564Y-57504408D01*
X104385484Y-57340436D01*
X104484087Y-57192866D01*
X104609586Y-57067367D01*
X104757156Y-56968764D01*
X104921128Y-56900844D01*
X105070428Y-56871147D01*
X105095198Y-56866220D01*
X105272682Y-56866220D01*
X105297452Y-56871147D01*
G37*
G36*
X120537452Y-56871147D02*
G01*
X120686752Y-56900844D01*
X120850724Y-56968764D01*
X120998294Y-57067367D01*
X121123793Y-57192866D01*
X121222396Y-57340436D01*
X121290316Y-57504408D01*
X121324940Y-57678479D01*
X121324940Y-57855961D01*
X121290316Y-58030032D01*
X121222396Y-58194004D01*
X121123793Y-58341574D01*
X120998294Y-58467073D01*
X120850724Y-58565676D01*
X120686752Y-58633596D01*
X120537452Y-58663293D01*
X120512682Y-58668220D01*
X120335198Y-58668220D01*
X120310428Y-58663293D01*
X120161128Y-58633596D01*
X119997156Y-58565676D01*
X119849586Y-58467073D01*
X119724087Y-58341574D01*
X119625484Y-58194004D01*
X119557564Y-58030032D01*
X119522940Y-57855961D01*
X119522940Y-57678479D01*
X119557564Y-57504408D01*
X119625484Y-57340436D01*
X119724087Y-57192866D01*
X119849586Y-57067367D01*
X119997156Y-56968764D01*
X120161128Y-56900844D01*
X120310428Y-56871147D01*
X120335198Y-56866220D01*
X120512682Y-56866220D01*
X120537452Y-56871147D01*
G37*
G36*
X115457452Y-56871147D02*
G01*
X115606752Y-56900844D01*
X115770724Y-56968764D01*
X115918294Y-57067367D01*
X116043793Y-57192866D01*
X116142396Y-57340436D01*
X116210316Y-57504408D01*
X116244940Y-57678479D01*
X116244940Y-57855961D01*
X116210316Y-58030032D01*
X116142396Y-58194004D01*
X116043793Y-58341574D01*
X115918294Y-58467073D01*
X115770724Y-58565676D01*
X115606752Y-58633596D01*
X115457452Y-58663293D01*
X115432682Y-58668220D01*
X115255198Y-58668220D01*
X115230428Y-58663293D01*
X115081128Y-58633596D01*
X114917156Y-58565676D01*
X114769586Y-58467073D01*
X114644087Y-58341574D01*
X114545484Y-58194004D01*
X114477564Y-58030032D01*
X114442940Y-57855961D01*
X114442940Y-57678479D01*
X114477564Y-57504408D01*
X114545484Y-57340436D01*
X114644087Y-57192866D01*
X114769586Y-57067367D01*
X114917156Y-56968764D01*
X115081128Y-56900844D01*
X115230428Y-56871147D01*
X115255198Y-56866220D01*
X115432682Y-56866220D01*
X115457452Y-56871147D01*
G37*
G36*
X110377452Y-56871147D02*
G01*
X110526752Y-56900844D01*
X110690724Y-56968764D01*
X110838294Y-57067367D01*
X110963793Y-57192866D01*
X111062396Y-57340436D01*
X111130316Y-57504408D01*
X111164940Y-57678479D01*
X111164940Y-57855961D01*
X111130316Y-58030032D01*
X111062396Y-58194004D01*
X110963793Y-58341574D01*
X110838294Y-58467073D01*
X110690724Y-58565676D01*
X110526752Y-58633596D01*
X110377452Y-58663293D01*
X110352682Y-58668220D01*
X110175198Y-58668220D01*
X110150428Y-58663293D01*
X110001128Y-58633596D01*
X109837156Y-58565676D01*
X109689586Y-58467073D01*
X109564087Y-58341574D01*
X109465484Y-58194004D01*
X109397564Y-58030032D01*
X109362940Y-57855961D01*
X109362940Y-57678479D01*
X109397564Y-57504408D01*
X109465484Y-57340436D01*
X109564087Y-57192866D01*
X109689586Y-57067367D01*
X109837156Y-56968764D01*
X110001128Y-56900844D01*
X110150428Y-56871147D01*
X110175198Y-56866220D01*
X110352682Y-56866220D01*
X110377452Y-56871147D01*
G37*
G36*
X112917452Y-56871147D02*
G01*
X113066752Y-56900844D01*
X113230724Y-56968764D01*
X113378294Y-57067367D01*
X113503793Y-57192866D01*
X113602396Y-57340436D01*
X113670316Y-57504408D01*
X113704940Y-57678479D01*
X113704940Y-57855961D01*
X113670316Y-58030032D01*
X113602396Y-58194004D01*
X113503793Y-58341574D01*
X113378294Y-58467073D01*
X113230724Y-58565676D01*
X113066752Y-58633596D01*
X112917452Y-58663293D01*
X112892682Y-58668220D01*
X112715198Y-58668220D01*
X112690428Y-58663293D01*
X112541128Y-58633596D01*
X112377156Y-58565676D01*
X112229586Y-58467073D01*
X112104087Y-58341574D01*
X112005484Y-58194004D01*
X111937564Y-58030032D01*
X111902940Y-57855961D01*
X111902940Y-57678479D01*
X111937564Y-57504408D01*
X112005484Y-57340436D01*
X112104087Y-57192866D01*
X112229586Y-57067367D01*
X112377156Y-56968764D01*
X112541128Y-56900844D01*
X112690428Y-56871147D01*
X112715198Y-56866220D01*
X112892682Y-56866220D01*
X112917452Y-56871147D01*
G37*
G36*
X117997452Y-56871147D02*
G01*
X118146752Y-56900844D01*
X118310724Y-56968764D01*
X118458294Y-57067367D01*
X118583793Y-57192866D01*
X118682396Y-57340436D01*
X118750316Y-57504408D01*
X118784940Y-57678479D01*
X118784940Y-57855961D01*
X118750316Y-58030032D01*
X118682396Y-58194004D01*
X118583793Y-58341574D01*
X118458294Y-58467073D01*
X118310724Y-58565676D01*
X118146752Y-58633596D01*
X117997452Y-58663293D01*
X117972682Y-58668220D01*
X117795198Y-58668220D01*
X117770428Y-58663293D01*
X117621128Y-58633596D01*
X117457156Y-58565676D01*
X117309586Y-58467073D01*
X117184087Y-58341574D01*
X117085484Y-58194004D01*
X117017564Y-58030032D01*
X116982940Y-57855961D01*
X116982940Y-57678479D01*
X117017564Y-57504408D01*
X117085484Y-57340436D01*
X117184087Y-57192866D01*
X117309586Y-57067367D01*
X117457156Y-56968764D01*
X117621128Y-56900844D01*
X117770428Y-56871147D01*
X117795198Y-56866220D01*
X117972682Y-56866220D01*
X117997452Y-56871147D01*
G37*
G36*
X102757452Y-56871147D02*
G01*
X102906752Y-56900844D01*
X103070724Y-56968764D01*
X103218294Y-57067367D01*
X103343793Y-57192866D01*
X103442396Y-57340436D01*
X103510316Y-57504408D01*
X103544940Y-57678479D01*
X103544940Y-57855961D01*
X103510316Y-58030032D01*
X103442396Y-58194004D01*
X103343793Y-58341574D01*
X103218294Y-58467073D01*
X103070724Y-58565676D01*
X102906752Y-58633596D01*
X102757452Y-58663293D01*
X102732682Y-58668220D01*
X102555198Y-58668220D01*
X102530428Y-58663293D01*
X102381128Y-58633596D01*
X102217156Y-58565676D01*
X102069586Y-58467073D01*
X101944087Y-58341574D01*
X101845484Y-58194004D01*
X101777564Y-58030032D01*
X101742940Y-57855961D01*
X101742940Y-57678479D01*
X101777564Y-57504408D01*
X101845484Y-57340436D01*
X101944087Y-57192866D01*
X102069586Y-57067367D01*
X102217156Y-56968764D01*
X102381128Y-56900844D01*
X102530428Y-56871147D01*
X102555198Y-56866220D01*
X102732682Y-56866220D01*
X102757452Y-56871147D01*
G37*
G36*
X145937452Y-56871147D02*
G01*
X146086752Y-56900844D01*
X146250724Y-56968764D01*
X146398294Y-57067367D01*
X146523793Y-57192866D01*
X146622396Y-57340436D01*
X146690316Y-57504408D01*
X146724940Y-57678479D01*
X146724940Y-57855961D01*
X146690316Y-58030032D01*
X146622396Y-58194004D01*
X146523793Y-58341574D01*
X146398294Y-58467073D01*
X146250724Y-58565676D01*
X146086752Y-58633596D01*
X145937452Y-58663293D01*
X145912682Y-58668220D01*
X145735198Y-58668220D01*
X145710428Y-58663293D01*
X145561128Y-58633596D01*
X145397156Y-58565676D01*
X145249586Y-58467073D01*
X145124087Y-58341574D01*
X145025484Y-58194004D01*
X144957564Y-58030032D01*
X144922940Y-57855961D01*
X144922940Y-57678479D01*
X144957564Y-57504408D01*
X145025484Y-57340436D01*
X145124087Y-57192866D01*
X145249586Y-57067367D01*
X145397156Y-56968764D01*
X145561128Y-56900844D01*
X145710428Y-56871147D01*
X145735198Y-56866220D01*
X145912682Y-56866220D01*
X145937452Y-56871147D01*
G37*
G36*
X140857452Y-56871147D02*
G01*
X141006752Y-56900844D01*
X141170724Y-56968764D01*
X141318294Y-57067367D01*
X141443793Y-57192866D01*
X141542396Y-57340436D01*
X141610316Y-57504408D01*
X141644940Y-57678479D01*
X141644940Y-57855961D01*
X141610316Y-58030032D01*
X141542396Y-58194004D01*
X141443793Y-58341574D01*
X141318294Y-58467073D01*
X141170724Y-58565676D01*
X141006752Y-58633596D01*
X140857452Y-58663293D01*
X140832682Y-58668220D01*
X140655198Y-58668220D01*
X140630428Y-58663293D01*
X140481128Y-58633596D01*
X140317156Y-58565676D01*
X140169586Y-58467073D01*
X140044087Y-58341574D01*
X139945484Y-58194004D01*
X139877564Y-58030032D01*
X139842940Y-57855961D01*
X139842940Y-57678479D01*
X139877564Y-57504408D01*
X139945484Y-57340436D01*
X140044087Y-57192866D01*
X140169586Y-57067367D01*
X140317156Y-56968764D01*
X140481128Y-56900844D01*
X140630428Y-56871147D01*
X140655198Y-56866220D01*
X140832682Y-56866220D01*
X140857452Y-56871147D01*
G37*
G36*
X143397452Y-56871147D02*
G01*
X143546752Y-56900844D01*
X143710724Y-56968764D01*
X143858294Y-57067367D01*
X143983793Y-57192866D01*
X144082396Y-57340436D01*
X144150316Y-57504408D01*
X144184940Y-57678479D01*
X144184940Y-57855961D01*
X144150316Y-58030032D01*
X144082396Y-58194004D01*
X143983793Y-58341574D01*
X143858294Y-58467073D01*
X143710724Y-58565676D01*
X143546752Y-58633596D01*
X143397452Y-58663293D01*
X143372682Y-58668220D01*
X143195198Y-58668220D01*
X143170428Y-58663293D01*
X143021128Y-58633596D01*
X142857156Y-58565676D01*
X142709586Y-58467073D01*
X142584087Y-58341574D01*
X142485484Y-58194004D01*
X142417564Y-58030032D01*
X142382940Y-57855961D01*
X142382940Y-57678479D01*
X142417564Y-57504408D01*
X142485484Y-57340436D01*
X142584087Y-57192866D01*
X142709586Y-57067367D01*
X142857156Y-56968764D01*
X143021128Y-56900844D01*
X143170428Y-56871147D01*
X143195198Y-56866220D01*
X143372682Y-56866220D01*
X143397452Y-56871147D01*
G37*
G36*
X148477452Y-56871147D02*
G01*
X148626752Y-56900844D01*
X148790724Y-56968764D01*
X148938294Y-57067367D01*
X149063793Y-57192866D01*
X149162396Y-57340436D01*
X149230316Y-57504408D01*
X149264940Y-57678479D01*
X149264940Y-57855961D01*
X149230316Y-58030032D01*
X149162396Y-58194004D01*
X149063793Y-58341574D01*
X148938294Y-58467073D01*
X148790724Y-58565676D01*
X148626752Y-58633596D01*
X148477452Y-58663293D01*
X148452682Y-58668220D01*
X148275198Y-58668220D01*
X148250428Y-58663293D01*
X148101128Y-58633596D01*
X147937156Y-58565676D01*
X147789586Y-58467073D01*
X147664087Y-58341574D01*
X147565484Y-58194004D01*
X147497564Y-58030032D01*
X147462940Y-57855961D01*
X147462940Y-57678479D01*
X147497564Y-57504408D01*
X147565484Y-57340436D01*
X147664087Y-57192866D01*
X147789586Y-57067367D01*
X147937156Y-56968764D01*
X148101128Y-56900844D01*
X148250428Y-56871147D01*
X148275198Y-56866220D01*
X148452682Y-56866220D01*
X148477452Y-56871147D01*
G37*
G36*
X123077452Y-56871147D02*
G01*
X123226752Y-56900844D01*
X123390724Y-56968764D01*
X123538294Y-57067367D01*
X123663793Y-57192866D01*
X123762396Y-57340436D01*
X123830316Y-57504408D01*
X123864940Y-57678479D01*
X123864940Y-57855961D01*
X123830316Y-58030032D01*
X123762396Y-58194004D01*
X123663793Y-58341574D01*
X123538294Y-58467073D01*
X123390724Y-58565676D01*
X123226752Y-58633596D01*
X123077452Y-58663293D01*
X123052682Y-58668220D01*
X122875198Y-58668220D01*
X122850428Y-58663293D01*
X122701128Y-58633596D01*
X122537156Y-58565676D01*
X122389586Y-58467073D01*
X122264087Y-58341574D01*
X122165484Y-58194004D01*
X122097564Y-58030032D01*
X122062940Y-57855961D01*
X122062940Y-57678479D01*
X122097564Y-57504408D01*
X122165484Y-57340436D01*
X122264087Y-57192866D01*
X122389586Y-57067367D01*
X122537156Y-56968764D01*
X122701128Y-56900844D01*
X122850428Y-56871147D01*
X122875198Y-56866220D01*
X123052682Y-56866220D01*
X123077452Y-56871147D01*
G37*
G36*
X125617452Y-56871147D02*
G01*
X125766752Y-56900844D01*
X125930724Y-56968764D01*
X126078294Y-57067367D01*
X126203793Y-57192866D01*
X126302396Y-57340436D01*
X126370316Y-57504408D01*
X126404940Y-57678479D01*
X126404940Y-57855961D01*
X126370316Y-58030032D01*
X126302396Y-58194004D01*
X126203793Y-58341574D01*
X126078294Y-58467073D01*
X125930724Y-58565676D01*
X125766752Y-58633596D01*
X125617452Y-58663293D01*
X125592682Y-58668220D01*
X125415198Y-58668220D01*
X125390428Y-58663293D01*
X125241128Y-58633596D01*
X125077156Y-58565676D01*
X124929586Y-58467073D01*
X124804087Y-58341574D01*
X124705484Y-58194004D01*
X124637564Y-58030032D01*
X124602940Y-57855961D01*
X124602940Y-57678479D01*
X124637564Y-57504408D01*
X124705484Y-57340436D01*
X124804087Y-57192866D01*
X124929586Y-57067367D01*
X125077156Y-56968764D01*
X125241128Y-56900844D01*
X125390428Y-56871147D01*
X125415198Y-56866220D01*
X125592682Y-56866220D01*
X125617452Y-56871147D01*
G37*
G36*
X128157452Y-56871147D02*
G01*
X128306752Y-56900844D01*
X128470724Y-56968764D01*
X128618294Y-57067367D01*
X128743793Y-57192866D01*
X128842396Y-57340436D01*
X128910316Y-57504408D01*
X128944940Y-57678479D01*
X128944940Y-57855961D01*
X128910316Y-58030032D01*
X128842396Y-58194004D01*
X128743793Y-58341574D01*
X128618294Y-58467073D01*
X128470724Y-58565676D01*
X128306752Y-58633596D01*
X128157452Y-58663293D01*
X128132682Y-58668220D01*
X127955198Y-58668220D01*
X127930428Y-58663293D01*
X127781128Y-58633596D01*
X127617156Y-58565676D01*
X127469586Y-58467073D01*
X127344087Y-58341574D01*
X127245484Y-58194004D01*
X127177564Y-58030032D01*
X127142940Y-57855961D01*
X127142940Y-57678479D01*
X127177564Y-57504408D01*
X127245484Y-57340436D01*
X127344087Y-57192866D01*
X127469586Y-57067367D01*
X127617156Y-56968764D01*
X127781128Y-56900844D01*
X127930428Y-56871147D01*
X127955198Y-56866220D01*
X128132682Y-56866220D01*
X128157452Y-56871147D01*
G37*
G36*
X130697452Y-56871147D02*
G01*
X130846752Y-56900844D01*
X131010724Y-56968764D01*
X131158294Y-57067367D01*
X131283793Y-57192866D01*
X131382396Y-57340436D01*
X131450316Y-57504408D01*
X131484940Y-57678479D01*
X131484940Y-57855961D01*
X131450316Y-58030032D01*
X131382396Y-58194004D01*
X131283793Y-58341574D01*
X131158294Y-58467073D01*
X131010724Y-58565676D01*
X130846752Y-58633596D01*
X130697452Y-58663293D01*
X130672682Y-58668220D01*
X130495198Y-58668220D01*
X130470428Y-58663293D01*
X130321128Y-58633596D01*
X130157156Y-58565676D01*
X130009586Y-58467073D01*
X129884087Y-58341574D01*
X129785484Y-58194004D01*
X129717564Y-58030032D01*
X129682940Y-57855961D01*
X129682940Y-57678479D01*
X129717564Y-57504408D01*
X129785484Y-57340436D01*
X129884087Y-57192866D01*
X130009586Y-57067367D01*
X130157156Y-56968764D01*
X130321128Y-56900844D01*
X130470428Y-56871147D01*
X130495198Y-56866220D01*
X130672682Y-56866220D01*
X130697452Y-56871147D01*
G37*
G36*
X133237452Y-56871147D02*
G01*
X133386752Y-56900844D01*
X133550724Y-56968764D01*
X133698294Y-57067367D01*
X133823793Y-57192866D01*
X133922396Y-57340436D01*
X133990316Y-57504408D01*
X134024940Y-57678479D01*
X134024940Y-57855961D01*
X133990316Y-58030032D01*
X133922396Y-58194004D01*
X133823793Y-58341574D01*
X133698294Y-58467073D01*
X133550724Y-58565676D01*
X133386752Y-58633596D01*
X133237452Y-58663293D01*
X133212682Y-58668220D01*
X133035198Y-58668220D01*
X133010428Y-58663293D01*
X132861128Y-58633596D01*
X132697156Y-58565676D01*
X132549586Y-58467073D01*
X132424087Y-58341574D01*
X132325484Y-58194004D01*
X132257564Y-58030032D01*
X132222940Y-57855961D01*
X132222940Y-57678479D01*
X132257564Y-57504408D01*
X132325484Y-57340436D01*
X132424087Y-57192866D01*
X132549586Y-57067367D01*
X132697156Y-56968764D01*
X132861128Y-56900844D01*
X133010428Y-56871147D01*
X133035198Y-56866220D01*
X133212682Y-56866220D01*
X133237452Y-56871147D01*
G37*
G36*
X135777452Y-56871147D02*
G01*
X135926752Y-56900844D01*
X136090724Y-56968764D01*
X136238294Y-57067367D01*
X136363793Y-57192866D01*
X136462396Y-57340436D01*
X136530316Y-57504408D01*
X136564940Y-57678479D01*
X136564940Y-57855961D01*
X136530316Y-58030032D01*
X136462396Y-58194004D01*
X136363793Y-58341574D01*
X136238294Y-58467073D01*
X136090724Y-58565676D01*
X135926752Y-58633596D01*
X135777452Y-58663293D01*
X135752682Y-58668220D01*
X135575198Y-58668220D01*
X135550428Y-58663293D01*
X135401128Y-58633596D01*
X135237156Y-58565676D01*
X135089586Y-58467073D01*
X134964087Y-58341574D01*
X134865484Y-58194004D01*
X134797564Y-58030032D01*
X134762940Y-57855961D01*
X134762940Y-57678479D01*
X134797564Y-57504408D01*
X134865484Y-57340436D01*
X134964087Y-57192866D01*
X135089586Y-57067367D01*
X135237156Y-56968764D01*
X135401128Y-56900844D01*
X135550428Y-56871147D01*
X135575198Y-56866220D01*
X135752682Y-56866220D01*
X135777452Y-56871147D01*
G37*
G36*
X138317452Y-56871147D02*
G01*
X138466752Y-56900844D01*
X138630724Y-56968764D01*
X138778294Y-57067367D01*
X138903793Y-57192866D01*
X139002396Y-57340436D01*
X139070316Y-57504408D01*
X139104940Y-57678479D01*
X139104940Y-57855961D01*
X139070316Y-58030032D01*
X139002396Y-58194004D01*
X138903793Y-58341574D01*
X138778294Y-58467073D01*
X138630724Y-58565676D01*
X138466752Y-58633596D01*
X138317452Y-58663293D01*
X138292682Y-58668220D01*
X138115198Y-58668220D01*
X138090428Y-58663293D01*
X137941128Y-58633596D01*
X137777156Y-58565676D01*
X137629586Y-58467073D01*
X137504087Y-58341574D01*
X137405484Y-58194004D01*
X137337564Y-58030032D01*
X137302940Y-57855961D01*
X137302940Y-57678479D01*
X137337564Y-57504408D01*
X137405484Y-57340436D01*
X137504087Y-57192866D01*
X137629586Y-57067367D01*
X137777156Y-56968764D01*
X137941128Y-56900844D01*
X138090428Y-56871147D01*
X138115198Y-56866220D01*
X138292682Y-56866220D01*
X138317452Y-56871147D01*
G37*
G36*
X115457452Y-54331147D02*
G01*
X115606752Y-54360844D01*
X115770724Y-54428764D01*
X115918294Y-54527367D01*
X116043793Y-54652866D01*
X116142396Y-54800436D01*
X116210316Y-54964408D01*
X116244940Y-55138479D01*
X116244940Y-55315961D01*
X116210316Y-55490032D01*
X116142396Y-55654004D01*
X116043793Y-55801574D01*
X115918294Y-55927073D01*
X115770724Y-56025676D01*
X115606752Y-56093596D01*
X115457452Y-56123293D01*
X115432682Y-56128220D01*
X115255198Y-56128220D01*
X115230428Y-56123293D01*
X115081128Y-56093596D01*
X114917156Y-56025676D01*
X114769586Y-55927073D01*
X114644087Y-55801574D01*
X114545484Y-55654004D01*
X114477564Y-55490032D01*
X114442940Y-55315961D01*
X114442940Y-55138479D01*
X114477564Y-54964408D01*
X114545484Y-54800436D01*
X114644087Y-54652866D01*
X114769586Y-54527367D01*
X114917156Y-54428764D01*
X115081128Y-54360844D01*
X115230428Y-54331147D01*
X115255198Y-54326220D01*
X115432682Y-54326220D01*
X115457452Y-54331147D01*
G37*
G36*
X112917452Y-54331147D02*
G01*
X113066752Y-54360844D01*
X113230724Y-54428764D01*
X113378294Y-54527367D01*
X113503793Y-54652866D01*
X113602396Y-54800436D01*
X113670316Y-54964408D01*
X113704940Y-55138479D01*
X113704940Y-55315961D01*
X113670316Y-55490032D01*
X113602396Y-55654004D01*
X113503793Y-55801574D01*
X113378294Y-55927073D01*
X113230724Y-56025676D01*
X113066752Y-56093596D01*
X112917452Y-56123293D01*
X112892682Y-56128220D01*
X112715198Y-56128220D01*
X112690428Y-56123293D01*
X112541128Y-56093596D01*
X112377156Y-56025676D01*
X112229586Y-55927073D01*
X112104087Y-55801574D01*
X112005484Y-55654004D01*
X111937564Y-55490032D01*
X111902940Y-55315961D01*
X111902940Y-55138479D01*
X111937564Y-54964408D01*
X112005484Y-54800436D01*
X112104087Y-54652866D01*
X112229586Y-54527367D01*
X112377156Y-54428764D01*
X112541128Y-54360844D01*
X112690428Y-54331147D01*
X112715198Y-54326220D01*
X112892682Y-54326220D01*
X112917452Y-54331147D01*
G37*
G36*
X110377452Y-54331147D02*
G01*
X110526752Y-54360844D01*
X110690724Y-54428764D01*
X110838294Y-54527367D01*
X110963793Y-54652866D01*
X111062396Y-54800436D01*
X111130316Y-54964408D01*
X111164940Y-55138479D01*
X111164940Y-55315961D01*
X111130316Y-55490032D01*
X111062396Y-55654004D01*
X110963793Y-55801574D01*
X110838294Y-55927073D01*
X110690724Y-56025676D01*
X110526752Y-56093596D01*
X110377452Y-56123293D01*
X110352682Y-56128220D01*
X110175198Y-56128220D01*
X110150428Y-56123293D01*
X110001128Y-56093596D01*
X109837156Y-56025676D01*
X109689586Y-55927073D01*
X109564087Y-55801574D01*
X109465484Y-55654004D01*
X109397564Y-55490032D01*
X109362940Y-55315961D01*
X109362940Y-55138479D01*
X109397564Y-54964408D01*
X109465484Y-54800436D01*
X109564087Y-54652866D01*
X109689586Y-54527367D01*
X109837156Y-54428764D01*
X110001128Y-54360844D01*
X110150428Y-54331147D01*
X110175198Y-54326220D01*
X110352682Y-54326220D01*
X110377452Y-54331147D01*
G37*
G36*
X107837452Y-54331147D02*
G01*
X107986752Y-54360844D01*
X108150724Y-54428764D01*
X108298294Y-54527367D01*
X108423793Y-54652866D01*
X108522396Y-54800436D01*
X108590316Y-54964408D01*
X108624940Y-55138479D01*
X108624940Y-55315961D01*
X108590316Y-55490032D01*
X108522396Y-55654004D01*
X108423793Y-55801574D01*
X108298294Y-55927073D01*
X108150724Y-56025676D01*
X107986752Y-56093596D01*
X107837452Y-56123293D01*
X107812682Y-56128220D01*
X107635198Y-56128220D01*
X107610428Y-56123293D01*
X107461128Y-56093596D01*
X107297156Y-56025676D01*
X107149586Y-55927073D01*
X107024087Y-55801574D01*
X106925484Y-55654004D01*
X106857564Y-55490032D01*
X106822940Y-55315961D01*
X106822940Y-55138479D01*
X106857564Y-54964408D01*
X106925484Y-54800436D01*
X107024087Y-54652866D01*
X107149586Y-54527367D01*
X107297156Y-54428764D01*
X107461128Y-54360844D01*
X107610428Y-54331147D01*
X107635198Y-54326220D01*
X107812682Y-54326220D01*
X107837452Y-54331147D01*
G37*
G36*
X105297452Y-54331147D02*
G01*
X105446752Y-54360844D01*
X105610724Y-54428764D01*
X105758294Y-54527367D01*
X105883793Y-54652866D01*
X105982396Y-54800436D01*
X106050316Y-54964408D01*
X106084940Y-55138479D01*
X106084940Y-55315961D01*
X106050316Y-55490032D01*
X105982396Y-55654004D01*
X105883793Y-55801574D01*
X105758294Y-55927073D01*
X105610724Y-56025676D01*
X105446752Y-56093596D01*
X105297452Y-56123293D01*
X105272682Y-56128220D01*
X105095198Y-56128220D01*
X105070428Y-56123293D01*
X104921128Y-56093596D01*
X104757156Y-56025676D01*
X104609586Y-55927073D01*
X104484087Y-55801574D01*
X104385484Y-55654004D01*
X104317564Y-55490032D01*
X104282940Y-55315961D01*
X104282940Y-55138479D01*
X104317564Y-54964408D01*
X104385484Y-54800436D01*
X104484087Y-54652866D01*
X104609586Y-54527367D01*
X104757156Y-54428764D01*
X104921128Y-54360844D01*
X105070428Y-54331147D01*
X105095198Y-54326220D01*
X105272682Y-54326220D01*
X105297452Y-54331147D01*
G37*
G36*
X102757452Y-54331147D02*
G01*
X102906752Y-54360844D01*
X103070724Y-54428764D01*
X103218294Y-54527367D01*
X103343793Y-54652866D01*
X103442396Y-54800436D01*
X103510316Y-54964408D01*
X103544940Y-55138479D01*
X103544940Y-55315961D01*
X103510316Y-55490032D01*
X103442396Y-55654004D01*
X103343793Y-55801574D01*
X103218294Y-55927073D01*
X103070724Y-56025676D01*
X102906752Y-56093596D01*
X102757452Y-56123293D01*
X102732682Y-56128220D01*
X102555198Y-56128220D01*
X102530428Y-56123293D01*
X102381128Y-56093596D01*
X102217156Y-56025676D01*
X102069586Y-55927073D01*
X101944087Y-55801574D01*
X101845484Y-55654004D01*
X101777564Y-55490032D01*
X101742940Y-55315961D01*
X101742940Y-55138479D01*
X101777564Y-54964408D01*
X101845484Y-54800436D01*
X101944087Y-54652866D01*
X102069586Y-54527367D01*
X102217156Y-54428764D01*
X102381128Y-54360844D01*
X102530428Y-54331147D01*
X102555198Y-54326220D01*
X102732682Y-54326220D01*
X102757452Y-54331147D01*
G37*
G36*
X100217452Y-54331147D02*
G01*
X100366752Y-54360844D01*
X100530724Y-54428764D01*
X100678294Y-54527367D01*
X100803793Y-54652866D01*
X100902396Y-54800436D01*
X100970316Y-54964408D01*
X101004940Y-55138479D01*
X101004940Y-55315961D01*
X100970316Y-55490032D01*
X100902396Y-55654004D01*
X100803793Y-55801574D01*
X100678294Y-55927073D01*
X100530724Y-56025676D01*
X100366752Y-56093596D01*
X100217452Y-56123293D01*
X100192682Y-56128220D01*
X100015198Y-56128220D01*
X99990428Y-56123293D01*
X99841128Y-56093596D01*
X99677156Y-56025676D01*
X99529586Y-55927073D01*
X99404087Y-55801574D01*
X99305484Y-55654004D01*
X99237564Y-55490032D01*
X99202940Y-55315961D01*
X99202940Y-55138479D01*
X99237564Y-54964408D01*
X99305484Y-54800436D01*
X99404087Y-54652866D01*
X99529586Y-54527367D01*
X99677156Y-54428764D01*
X99841128Y-54360844D01*
X99990428Y-54331147D01*
X100015198Y-54326220D01*
X100192682Y-54326220D01*
X100217452Y-54331147D01*
G37*
G36*
X125617452Y-54331147D02*
G01*
X125766752Y-54360844D01*
X125930724Y-54428764D01*
X126078294Y-54527367D01*
X126203793Y-54652866D01*
X126302396Y-54800436D01*
X126370316Y-54964408D01*
X126404940Y-55138479D01*
X126404940Y-55315961D01*
X126370316Y-55490032D01*
X126302396Y-55654004D01*
X126203793Y-55801574D01*
X126078294Y-55927073D01*
X125930724Y-56025676D01*
X125766752Y-56093596D01*
X125617452Y-56123293D01*
X125592682Y-56128220D01*
X125415198Y-56128220D01*
X125390428Y-56123293D01*
X125241128Y-56093596D01*
X125077156Y-56025676D01*
X124929586Y-55927073D01*
X124804087Y-55801574D01*
X124705484Y-55654004D01*
X124637564Y-55490032D01*
X124602940Y-55315961D01*
X124602940Y-55138479D01*
X124637564Y-54964408D01*
X124705484Y-54800436D01*
X124804087Y-54652866D01*
X124929586Y-54527367D01*
X125077156Y-54428764D01*
X125241128Y-54360844D01*
X125390428Y-54331147D01*
X125415198Y-54326220D01*
X125592682Y-54326220D01*
X125617452Y-54331147D01*
G37*
G36*
X128157452Y-54331147D02*
G01*
X128306752Y-54360844D01*
X128470724Y-54428764D01*
X128618294Y-54527367D01*
X128743793Y-54652866D01*
X128842396Y-54800436D01*
X128910316Y-54964408D01*
X128944940Y-55138479D01*
X128944940Y-55315961D01*
X128910316Y-55490032D01*
X128842396Y-55654004D01*
X128743793Y-55801574D01*
X128618294Y-55927073D01*
X128470724Y-56025676D01*
X128306752Y-56093596D01*
X128157452Y-56123293D01*
X128132682Y-56128220D01*
X127955198Y-56128220D01*
X127930428Y-56123293D01*
X127781128Y-56093596D01*
X127617156Y-56025676D01*
X127469586Y-55927073D01*
X127344087Y-55801574D01*
X127245484Y-55654004D01*
X127177564Y-55490032D01*
X127142940Y-55315961D01*
X127142940Y-55138479D01*
X127177564Y-54964408D01*
X127245484Y-54800436D01*
X127344087Y-54652866D01*
X127469586Y-54527367D01*
X127617156Y-54428764D01*
X127781128Y-54360844D01*
X127930428Y-54331147D01*
X127955198Y-54326220D01*
X128132682Y-54326220D01*
X128157452Y-54331147D01*
G37*
G36*
X130697452Y-54331147D02*
G01*
X130846752Y-54360844D01*
X131010724Y-54428764D01*
X131158294Y-54527367D01*
X131283793Y-54652866D01*
X131382396Y-54800436D01*
X131450316Y-54964408D01*
X131484940Y-55138479D01*
X131484940Y-55315961D01*
X131450316Y-55490032D01*
X131382396Y-55654004D01*
X131283793Y-55801574D01*
X131158294Y-55927073D01*
X131010724Y-56025676D01*
X130846752Y-56093596D01*
X130697452Y-56123293D01*
X130672682Y-56128220D01*
X130495198Y-56128220D01*
X130470428Y-56123293D01*
X130321128Y-56093596D01*
X130157156Y-56025676D01*
X130009586Y-55927073D01*
X129884087Y-55801574D01*
X129785484Y-55654004D01*
X129717564Y-55490032D01*
X129682940Y-55315961D01*
X129682940Y-55138479D01*
X129717564Y-54964408D01*
X129785484Y-54800436D01*
X129884087Y-54652866D01*
X130009586Y-54527367D01*
X130157156Y-54428764D01*
X130321128Y-54360844D01*
X130470428Y-54331147D01*
X130495198Y-54326220D01*
X130672682Y-54326220D01*
X130697452Y-54331147D01*
G37*
G36*
X133237452Y-54331147D02*
G01*
X133386752Y-54360844D01*
X133550724Y-54428764D01*
X133698294Y-54527367D01*
X133823793Y-54652866D01*
X133922396Y-54800436D01*
X133990316Y-54964408D01*
X134024940Y-55138479D01*
X134024940Y-55315961D01*
X133990316Y-55490032D01*
X133922396Y-55654004D01*
X133823793Y-55801574D01*
X133698294Y-55927073D01*
X133550724Y-56025676D01*
X133386752Y-56093596D01*
X133237452Y-56123293D01*
X133212682Y-56128220D01*
X133035198Y-56128220D01*
X133010428Y-56123293D01*
X132861128Y-56093596D01*
X132697156Y-56025676D01*
X132549586Y-55927073D01*
X132424087Y-55801574D01*
X132325484Y-55654004D01*
X132257564Y-55490032D01*
X132222940Y-55315961D01*
X132222940Y-55138479D01*
X132257564Y-54964408D01*
X132325484Y-54800436D01*
X132424087Y-54652866D01*
X132549586Y-54527367D01*
X132697156Y-54428764D01*
X132861128Y-54360844D01*
X133010428Y-54331147D01*
X133035198Y-54326220D01*
X133212682Y-54326220D01*
X133237452Y-54331147D01*
G37*
G36*
X135777452Y-54331147D02*
G01*
X135926752Y-54360844D01*
X136090724Y-54428764D01*
X136238294Y-54527367D01*
X136363793Y-54652866D01*
X136462396Y-54800436D01*
X136530316Y-54964408D01*
X136564940Y-55138479D01*
X136564940Y-55315961D01*
X136530316Y-55490032D01*
X136462396Y-55654004D01*
X136363793Y-55801574D01*
X136238294Y-55927073D01*
X136090724Y-56025676D01*
X135926752Y-56093596D01*
X135777452Y-56123293D01*
X135752682Y-56128220D01*
X135575198Y-56128220D01*
X135550428Y-56123293D01*
X135401128Y-56093596D01*
X135237156Y-56025676D01*
X135089586Y-55927073D01*
X134964087Y-55801574D01*
X134865484Y-55654004D01*
X134797564Y-55490032D01*
X134762940Y-55315961D01*
X134762940Y-55138479D01*
X134797564Y-54964408D01*
X134865484Y-54800436D01*
X134964087Y-54652866D01*
X135089586Y-54527367D01*
X135237156Y-54428764D01*
X135401128Y-54360844D01*
X135550428Y-54331147D01*
X135575198Y-54326220D01*
X135752682Y-54326220D01*
X135777452Y-54331147D01*
G37*
G36*
X123077452Y-54331147D02*
G01*
X123226752Y-54360844D01*
X123390724Y-54428764D01*
X123538294Y-54527367D01*
X123663793Y-54652866D01*
X123762396Y-54800436D01*
X123830316Y-54964408D01*
X123864940Y-55138479D01*
X123864940Y-55315961D01*
X123830316Y-55490032D01*
X123762396Y-55654004D01*
X123663793Y-55801574D01*
X123538294Y-55927073D01*
X123390724Y-56025676D01*
X123226752Y-56093596D01*
X123077452Y-56123293D01*
X123052682Y-56128220D01*
X122875198Y-56128220D01*
X122850428Y-56123293D01*
X122701128Y-56093596D01*
X122537156Y-56025676D01*
X122389586Y-55927073D01*
X122264087Y-55801574D01*
X122165484Y-55654004D01*
X122097564Y-55490032D01*
X122062940Y-55315961D01*
X122062940Y-55138479D01*
X122097564Y-54964408D01*
X122165484Y-54800436D01*
X122264087Y-54652866D01*
X122389586Y-54527367D01*
X122537156Y-54428764D01*
X122701128Y-54360844D01*
X122850428Y-54331147D01*
X122875198Y-54326220D01*
X123052682Y-54326220D01*
X123077452Y-54331147D01*
G37*
G36*
X138317452Y-54331147D02*
G01*
X138466752Y-54360844D01*
X138630724Y-54428764D01*
X138778294Y-54527367D01*
X138903793Y-54652866D01*
X139002396Y-54800436D01*
X139070316Y-54964408D01*
X139104940Y-55138479D01*
X139104940Y-55315961D01*
X139070316Y-55490032D01*
X139002396Y-55654004D01*
X138903793Y-55801574D01*
X138778294Y-55927073D01*
X138630724Y-56025676D01*
X138466752Y-56093596D01*
X138317452Y-56123293D01*
X138292682Y-56128220D01*
X138115198Y-56128220D01*
X138090428Y-56123293D01*
X137941128Y-56093596D01*
X137777156Y-56025676D01*
X137629586Y-55927073D01*
X137504087Y-55801574D01*
X137405484Y-55654004D01*
X137337564Y-55490032D01*
X137302940Y-55315961D01*
X137302940Y-55138479D01*
X137337564Y-54964408D01*
X137405484Y-54800436D01*
X137504087Y-54652866D01*
X137629586Y-54527367D01*
X137777156Y-54428764D01*
X137941128Y-54360844D01*
X138090428Y-54331147D01*
X138115198Y-54326220D01*
X138292682Y-54326220D01*
X138317452Y-54331147D01*
G37*
G36*
X140857452Y-54331147D02*
G01*
X141006752Y-54360844D01*
X141170724Y-54428764D01*
X141318294Y-54527367D01*
X141443793Y-54652866D01*
X141542396Y-54800436D01*
X141610316Y-54964408D01*
X141644940Y-55138479D01*
X141644940Y-55315961D01*
X141610316Y-55490032D01*
X141542396Y-55654004D01*
X141443793Y-55801574D01*
X141318294Y-55927073D01*
X141170724Y-56025676D01*
X141006752Y-56093596D01*
X140857452Y-56123293D01*
X140832682Y-56128220D01*
X140655198Y-56128220D01*
X140630428Y-56123293D01*
X140481128Y-56093596D01*
X140317156Y-56025676D01*
X140169586Y-55927073D01*
X140044087Y-55801574D01*
X139945484Y-55654004D01*
X139877564Y-55490032D01*
X139842940Y-55315961D01*
X139842940Y-55138479D01*
X139877564Y-54964408D01*
X139945484Y-54800436D01*
X140044087Y-54652866D01*
X140169586Y-54527367D01*
X140317156Y-54428764D01*
X140481128Y-54360844D01*
X140630428Y-54331147D01*
X140655198Y-54326220D01*
X140832682Y-54326220D01*
X140857452Y-54331147D01*
G37*
G36*
X120537452Y-54331147D02*
G01*
X120686752Y-54360844D01*
X120850724Y-54428764D01*
X120998294Y-54527367D01*
X121123793Y-54652866D01*
X121222396Y-54800436D01*
X121290316Y-54964408D01*
X121324940Y-55138479D01*
X121324940Y-55315961D01*
X121290316Y-55490032D01*
X121222396Y-55654004D01*
X121123793Y-55801574D01*
X120998294Y-55927073D01*
X120850724Y-56025676D01*
X120686752Y-56093596D01*
X120537452Y-56123293D01*
X120512682Y-56128220D01*
X120335198Y-56128220D01*
X120310428Y-56123293D01*
X120161128Y-56093596D01*
X119997156Y-56025676D01*
X119849586Y-55927073D01*
X119724087Y-55801574D01*
X119625484Y-55654004D01*
X119557564Y-55490032D01*
X119522940Y-55315961D01*
X119522940Y-55138479D01*
X119557564Y-54964408D01*
X119625484Y-54800436D01*
X119724087Y-54652866D01*
X119849586Y-54527367D01*
X119997156Y-54428764D01*
X120161128Y-54360844D01*
X120310428Y-54331147D01*
X120335198Y-54326220D01*
X120512682Y-54326220D01*
X120537452Y-54331147D01*
G37*
G36*
X148477452Y-54331147D02*
G01*
X148626752Y-54360844D01*
X148790724Y-54428764D01*
X148938294Y-54527367D01*
X149063793Y-54652866D01*
X149162396Y-54800436D01*
X149230316Y-54964408D01*
X149264940Y-55138479D01*
X149264940Y-55315961D01*
X149230316Y-55490032D01*
X149162396Y-55654004D01*
X149063793Y-55801574D01*
X148938294Y-55927073D01*
X148790724Y-56025676D01*
X148626752Y-56093596D01*
X148477452Y-56123293D01*
X148452682Y-56128220D01*
X148275198Y-56128220D01*
X148250428Y-56123293D01*
X148101128Y-56093596D01*
X147937156Y-56025676D01*
X147789586Y-55927073D01*
X147664087Y-55801574D01*
X147565484Y-55654004D01*
X147497564Y-55490032D01*
X147462940Y-55315961D01*
X147462940Y-55138479D01*
X147497564Y-54964408D01*
X147565484Y-54800436D01*
X147664087Y-54652866D01*
X147789586Y-54527367D01*
X147937156Y-54428764D01*
X148101128Y-54360844D01*
X148250428Y-54331147D01*
X148275198Y-54326220D01*
X148452682Y-54326220D01*
X148477452Y-54331147D01*
G37*
G36*
X143397452Y-54331147D02*
G01*
X143546752Y-54360844D01*
X143710724Y-54428764D01*
X143858294Y-54527367D01*
X143983793Y-54652866D01*
X144082396Y-54800436D01*
X144150316Y-54964408D01*
X144184940Y-55138479D01*
X144184940Y-55315961D01*
X144150316Y-55490032D01*
X144082396Y-55654004D01*
X143983793Y-55801574D01*
X143858294Y-55927073D01*
X143710724Y-56025676D01*
X143546752Y-56093596D01*
X143397452Y-56123293D01*
X143372682Y-56128220D01*
X143195198Y-56128220D01*
X143170428Y-56123293D01*
X143021128Y-56093596D01*
X142857156Y-56025676D01*
X142709586Y-55927073D01*
X142584087Y-55801574D01*
X142485484Y-55654004D01*
X142417564Y-55490032D01*
X142382940Y-55315961D01*
X142382940Y-55138479D01*
X142417564Y-54964408D01*
X142485484Y-54800436D01*
X142584087Y-54652866D01*
X142709586Y-54527367D01*
X142857156Y-54428764D01*
X143021128Y-54360844D01*
X143170428Y-54331147D01*
X143195198Y-54326220D01*
X143372682Y-54326220D01*
X143397452Y-54331147D01*
G37*
G36*
X117997452Y-54331147D02*
G01*
X118146752Y-54360844D01*
X118310724Y-54428764D01*
X118458294Y-54527367D01*
X118583793Y-54652866D01*
X118682396Y-54800436D01*
X118750316Y-54964408D01*
X118784940Y-55138479D01*
X118784940Y-55315961D01*
X118750316Y-55490032D01*
X118682396Y-55654004D01*
X118583793Y-55801574D01*
X118458294Y-55927073D01*
X118310724Y-56025676D01*
X118146752Y-56093596D01*
X117997452Y-56123293D01*
X117972682Y-56128220D01*
X117795198Y-56128220D01*
X117770428Y-56123293D01*
X117621128Y-56093596D01*
X117457156Y-56025676D01*
X117309586Y-55927073D01*
X117184087Y-55801574D01*
X117085484Y-55654004D01*
X117017564Y-55490032D01*
X116982940Y-55315961D01*
X116982940Y-55138479D01*
X117017564Y-54964408D01*
X117085484Y-54800436D01*
X117184087Y-54652866D01*
X117309586Y-54527367D01*
X117457156Y-54428764D01*
X117621128Y-54360844D01*
X117770428Y-54331147D01*
X117795198Y-54326220D01*
X117972682Y-54326220D01*
X117997452Y-54331147D01*
G37*
G36*
X145937452Y-54331147D02*
G01*
X146086752Y-54360844D01*
X146250724Y-54428764D01*
X146398294Y-54527367D01*
X146523793Y-54652866D01*
X146622396Y-54800436D01*
X146690316Y-54964408D01*
X146724940Y-55138479D01*
X146724940Y-55315961D01*
X146690316Y-55490032D01*
X146622396Y-55654004D01*
X146523793Y-55801574D01*
X146398294Y-55927073D01*
X146250724Y-56025676D01*
X146086752Y-56093596D01*
X145937452Y-56123293D01*
X145912682Y-56128220D01*
X145735198Y-56128220D01*
X145710428Y-56123293D01*
X145561128Y-56093596D01*
X145397156Y-56025676D01*
X145249586Y-55927073D01*
X145124087Y-55801574D01*
X145025484Y-55654004D01*
X144957564Y-55490032D01*
X144922940Y-55315961D01*
X144922940Y-55138479D01*
X144957564Y-54964408D01*
X145025484Y-54800436D01*
X145124087Y-54652866D01*
X145249586Y-54527367D01*
X145397156Y-54428764D01*
X145561128Y-54360844D01*
X145710428Y-54331147D01*
X145735198Y-54326220D01*
X145912682Y-54326220D01*
X145937452Y-54331147D01*
G37*
M02*
