M48
; DRILL file {KiCad (5.1.5)-3} date 22/04/2020 10:50:05 AM
; FORMAT={-:-/ absolute / metric / decimal}
; #@! TF.CreationDate,2020-04-22T10:50:05+08:00
; #@! TF.GenerationSoftware,Kicad,Pcbnew,(5.1.5)-3
FMAT,2
METRIC
T1C0.400
T2C0.800
T3C1.000
T4C1.100
T5C1.520
T6C0.900
T7C1.200
T8C2.750
%
G90
G05
T1
X93.281Y-60.896
X97.917Y-70.548
X100.823Y-79.712
X101.6Y-69.977
X102.108Y-68.072
X103.378Y-61.087
X103.378Y-70.675
X103.505Y-65.215
X104.203Y-85.344
X105.41Y-85.381
X108.712Y-62.484
X108.712Y-78.168
X110.109Y-84.963
X110.236Y-87.694
X112.078Y-85.155
X113.347Y-85.155
X113.792Y-70.167
X115.062Y-80.264
X115.887Y-69.469
X116.967Y-66.992
X119.634Y-67.548
X119.634Y-80.391
X120.396Y-71.819
X120.968Y-67.087
X122.237Y-69.85
X122.497Y-71.3
X125.031Y-70.231
X125.095Y-66.675
X127.953Y-71.819
X128.905Y-67.12
X129.821Y-72.072
X130.365Y-97.853
X130.429Y-82.218
X130.429Y-89.808
X131.255Y-91.508
X132.039Y-79.524
X132.842Y-65.151
X133.159Y-59.817
X133.413Y-61.404
X135.382Y-74.041
X138.112Y-66.929
X139.192Y-78.613
X139.551Y-79.546
X139.827Y-60.923
X140.653Y-67.691
X140.795Y-70.643
X141.415Y-69.85
X141.952Y-60.803
X142.367Y-78.422
X142.939Y-61.658
X144.924Y-69.278
T2
X98.854Y-59.829
X100.858Y-64.96
X101.195Y-78.041
X104.998Y-79.43
X105.727Y-60.579
X105.731Y-92.519
X108.393Y-82.32
X109.791Y-70.802
X110.621Y-92.773
X112.395Y-78.74
X118.147Y-82.313
X124.904Y-87.185
X125.775Y-97.491
X128.27Y-92.265
X131.445Y-83.312
X132.461Y-89.408
X136.334Y-68.326
X138.938Y-94.869
X139.763Y-65.278
X140.335Y-62.992
X140.438Y-97.155
X140.565Y-98.933
X142.748Y-89.027
X143.51Y-93.726
X143.792Y-95.485
X147.002Y-86.614
X147.32Y-102.235
X147.383Y-107.179
X147.951Y-99.336
X147.955Y-92.456
X151.384Y-92.456
T3
X94.615Y-64.008
X94.615Y-66.548
X94.615Y-69.088
X134.938Y-62.293
X137.477Y-62.293
X144.208Y-83.883
X149.208Y-83.883
X100.104Y-55.227
X100.104Y-57.767
X102.644Y-55.227
X102.644Y-57.767
X105.184Y-55.227
X105.184Y-57.767
X107.724Y-55.227
X107.724Y-57.767
X110.264Y-55.227
X110.264Y-57.767
X112.804Y-55.227
X112.804Y-57.767
X115.344Y-55.227
X115.344Y-57.767
X117.884Y-55.227
X117.884Y-57.767
X120.424Y-55.227
X120.424Y-57.767
X122.964Y-55.227
X122.964Y-57.767
X125.504Y-55.227
X125.504Y-57.767
X128.044Y-55.227
X128.044Y-57.767
X130.584Y-55.227
X130.584Y-57.767
X133.124Y-55.227
X133.124Y-57.767
X135.664Y-55.227
X135.664Y-57.767
X138.204Y-55.227
X138.204Y-57.767
X140.744Y-55.227
X140.744Y-57.767
X143.284Y-55.227
X143.284Y-57.767
X145.824Y-55.227
X145.824Y-57.767
X148.364Y-55.227
X148.364Y-57.767
X118.237Y-97.155
X120.777Y-97.155
X123.317Y-97.155
X115.951Y-61.785
X115.951Y-77.025
X118.491Y-61.785
X118.491Y-77.025
X121.031Y-61.785
X121.031Y-77.025
X123.571Y-61.785
X123.571Y-77.025
X126.111Y-61.785
X126.111Y-77.025
X128.651Y-61.785
X128.651Y-77.025
T4
X100.838Y-104.902
X103.378Y-104.902
X105.918Y-104.902
X108.458Y-104.902
X110.998Y-104.902
X113.538Y-104.902
X116.078Y-104.902
X118.618Y-104.902
X152.654Y-61.722
X152.654Y-64.262
X152.654Y-66.802
X152.654Y-69.342
X152.654Y-71.882
X152.654Y-74.422
X95.758Y-91.44
X95.758Y-93.98
X95.758Y-96.52
X95.758Y-99.06
T5
X123.444Y-104.648
X128.524Y-104.648
T6
X144.202Y-105.74
X147.202Y-105.74
T7
X121.385Y-86.868
X128.886Y-86.868
T8
X95.235Y-105.499
X95.235Y-56.499
X153.235Y-105.499
X153.235Y-56.499
X153.235Y-79.47
T0
M30
