G04 #@! TF.GenerationSoftware,KiCad,Pcbnew,(5.1.5)-3*
G04 #@! TF.CreationDate,2020-04-22T10:50:02+08:00*
G04 #@! TF.ProjectId,RDMA,52444d41-2e6b-4696-9361-645f70636258,1.0*
G04 #@! TF.SameCoordinates,Original*
G04 #@! TF.FileFunction,Legend,Bot*
G04 #@! TF.FilePolarity,Positive*
%FSLAX46Y46*%
G04 Gerber Fmt 4.6, Leading zero omitted, Abs format (unit mm)*
G04 Created by KiCad (PCBNEW (5.1.5)-3) date 2020-04-22 10:50:02*
%MOMM*%
%LPD*%
G04 APERTURE LIST*
%ADD10C,0.200000*%
%ADD11C,0.120000*%
%ADD12C,0.250000*%
%ADD13C,0.125000*%
%ADD14C,0.010000*%
%ADD15C,0.150000*%
G04 APERTURE END LIST*
D10*
X113239357Y-97923309D02*
X113125071Y-97961404D01*
X112934595Y-97961404D01*
X112858404Y-97923309D01*
X112820309Y-97885214D01*
X112782214Y-97809023D01*
X112782214Y-97732833D01*
X112820309Y-97656642D01*
X112858404Y-97618547D01*
X112934595Y-97580452D01*
X113086976Y-97542357D01*
X113163166Y-97504261D01*
X113201261Y-97466166D01*
X113239357Y-97389976D01*
X113239357Y-97313785D01*
X113201261Y-97237595D01*
X113163166Y-97199500D01*
X113086976Y-97161404D01*
X112896500Y-97161404D01*
X112782214Y-97199500D01*
X112439357Y-97428071D02*
X112439357Y-98228071D01*
X112439357Y-97466166D02*
X112363166Y-97428071D01*
X112210785Y-97428071D01*
X112134595Y-97466166D01*
X112096500Y-97504261D01*
X112058404Y-97580452D01*
X112058404Y-97809023D01*
X112096500Y-97885214D01*
X112134595Y-97923309D01*
X112210785Y-97961404D01*
X112363166Y-97961404D01*
X112439357Y-97923309D01*
X111372690Y-97961404D02*
X111372690Y-97542357D01*
X111410785Y-97466166D01*
X111486976Y-97428071D01*
X111639357Y-97428071D01*
X111715547Y-97466166D01*
X111372690Y-97923309D02*
X111448880Y-97961404D01*
X111639357Y-97961404D01*
X111715547Y-97923309D01*
X111753642Y-97847119D01*
X111753642Y-97770928D01*
X111715547Y-97694738D01*
X111639357Y-97656642D01*
X111448880Y-97656642D01*
X111372690Y-97618547D01*
X110991738Y-97961404D02*
X110991738Y-97428071D01*
X110991738Y-97580452D02*
X110953642Y-97504261D01*
X110915547Y-97466166D01*
X110839357Y-97428071D01*
X110763166Y-97428071D01*
X110191738Y-97923309D02*
X110267928Y-97961404D01*
X110420309Y-97961404D01*
X110496500Y-97923309D01*
X110534595Y-97847119D01*
X110534595Y-97542357D01*
X110496500Y-97466166D01*
X110420309Y-97428071D01*
X110267928Y-97428071D01*
X110191738Y-97466166D01*
X110153642Y-97542357D01*
X110153642Y-97618547D01*
X110534595Y-97694738D01*
X108286357Y-97542357D02*
X108172071Y-97580452D01*
X108133976Y-97618547D01*
X108095880Y-97694738D01*
X108095880Y-97809023D01*
X108133976Y-97885214D01*
X108172071Y-97923309D01*
X108248261Y-97961404D01*
X108553023Y-97961404D01*
X108553023Y-97161404D01*
X108286357Y-97161404D01*
X108210166Y-97199500D01*
X108172071Y-97237595D01*
X108133976Y-97313785D01*
X108133976Y-97389976D01*
X108172071Y-97466166D01*
X108210166Y-97504261D01*
X108286357Y-97542357D01*
X108553023Y-97542357D01*
X107410166Y-97428071D02*
X107410166Y-97961404D01*
X107753023Y-97428071D02*
X107753023Y-97847119D01*
X107714928Y-97923309D01*
X107638738Y-97961404D01*
X107524452Y-97961404D01*
X107448261Y-97923309D01*
X107410166Y-97885214D01*
X107105404Y-97428071D02*
X106686357Y-97428071D01*
X107105404Y-97961404D01*
X106686357Y-97961404D01*
X106457785Y-97428071D02*
X106038738Y-97428071D01*
X106457785Y-97961404D01*
X106038738Y-97961404D01*
X105429214Y-97923309D02*
X105505404Y-97961404D01*
X105657785Y-97961404D01*
X105733976Y-97923309D01*
X105772071Y-97847119D01*
X105772071Y-97542357D01*
X105733976Y-97466166D01*
X105657785Y-97428071D01*
X105505404Y-97428071D01*
X105429214Y-97466166D01*
X105391119Y-97542357D01*
X105391119Y-97618547D01*
X105772071Y-97694738D01*
X105048261Y-97961404D02*
X105048261Y-97428071D01*
X105048261Y-97580452D02*
X105010166Y-97504261D01*
X104972071Y-97466166D01*
X104895880Y-97428071D01*
X104819690Y-97428071D01*
X103879428Y-97859809D02*
X103765142Y-97897904D01*
X103574666Y-97897904D01*
X103498476Y-97859809D01*
X103460380Y-97821714D01*
X103422285Y-97745523D01*
X103422285Y-97669333D01*
X103460380Y-97593142D01*
X103498476Y-97555047D01*
X103574666Y-97516952D01*
X103727047Y-97478857D01*
X103803238Y-97440761D01*
X103841333Y-97402666D01*
X103879428Y-97326476D01*
X103879428Y-97250285D01*
X103841333Y-97174095D01*
X103803238Y-97136000D01*
X103727047Y-97097904D01*
X103536571Y-97097904D01*
X103422285Y-97136000D01*
X103193714Y-97364571D02*
X102888952Y-97364571D01*
X103079428Y-97097904D02*
X103079428Y-97783619D01*
X103041333Y-97859809D01*
X102965142Y-97897904D01*
X102888952Y-97897904D01*
X102622285Y-97897904D02*
X102622285Y-97364571D01*
X102622285Y-97516952D02*
X102584190Y-97440761D01*
X102546095Y-97402666D01*
X102469904Y-97364571D01*
X102393714Y-97364571D01*
X102012761Y-97897904D02*
X102088952Y-97859809D01*
X102127047Y-97821714D01*
X102165142Y-97745523D01*
X102165142Y-97516952D01*
X102127047Y-97440761D01*
X102088952Y-97402666D01*
X102012761Y-97364571D01*
X101898476Y-97364571D01*
X101822285Y-97402666D01*
X101784190Y-97440761D01*
X101746095Y-97516952D01*
X101746095Y-97745523D01*
X101784190Y-97821714D01*
X101822285Y-97859809D01*
X101898476Y-97897904D01*
X102012761Y-97897904D01*
X101403238Y-97897904D02*
X101403238Y-97097904D01*
X101403238Y-97402666D02*
X101327047Y-97364571D01*
X101174666Y-97364571D01*
X101098476Y-97402666D01*
X101060380Y-97440761D01*
X101022285Y-97516952D01*
X101022285Y-97745523D01*
X101060380Y-97821714D01*
X101098476Y-97859809D01*
X101174666Y-97897904D01*
X101327047Y-97897904D01*
X101403238Y-97859809D01*
X100374666Y-97859809D02*
X100450857Y-97897904D01*
X100603238Y-97897904D01*
X100679428Y-97859809D01*
X100717523Y-97783619D01*
X100717523Y-97478857D01*
X100679428Y-97402666D01*
X100603238Y-97364571D01*
X100450857Y-97364571D01*
X100374666Y-97402666D01*
X100336571Y-97478857D01*
X100336571Y-97555047D01*
X100717523Y-97631238D01*
D11*
X97472500Y-70294500D02*
X96075500Y-70294500D01*
X96075500Y-66738500D02*
X97472500Y-66738500D01*
X97472500Y-66738500D02*
X97472500Y-70294500D01*
X96075500Y-63055500D02*
X97472500Y-63055500D01*
X97472500Y-63055500D02*
X97472500Y-66611500D01*
X97472500Y-66611500D02*
X96075500Y-66611500D01*
D10*
X97021595Y-64731880D02*
X97021595Y-65112833D01*
X96640642Y-65150928D01*
X96678738Y-65112833D01*
X96716833Y-65036642D01*
X96716833Y-64846166D01*
X96678738Y-64769976D01*
X96640642Y-64731880D01*
X96564452Y-64693785D01*
X96373976Y-64693785D01*
X96297785Y-64731880D01*
X96259690Y-64769976D01*
X96221595Y-64846166D01*
X96221595Y-65036642D01*
X96259690Y-65112833D01*
X96297785Y-65150928D01*
X97021595Y-64465214D02*
X96221595Y-64198547D01*
X97021595Y-63931880D01*
X97021595Y-69316452D02*
X97021595Y-68821214D01*
X96716833Y-69087880D01*
X96716833Y-68973595D01*
X96678738Y-68897404D01*
X96640642Y-68859309D01*
X96564452Y-68821214D01*
X96373976Y-68821214D01*
X96297785Y-68859309D01*
X96259690Y-68897404D01*
X96221595Y-68973595D01*
X96221595Y-69202166D01*
X96259690Y-69278357D01*
X96297785Y-69316452D01*
X96297785Y-68478357D02*
X96259690Y-68440261D01*
X96221595Y-68478357D01*
X96259690Y-68516452D01*
X96297785Y-68478357D01*
X96221595Y-68478357D01*
X97021595Y-68173595D02*
X97021595Y-67678357D01*
X96716833Y-67945023D01*
X96716833Y-67830738D01*
X96678738Y-67754547D01*
X96640642Y-67716452D01*
X96564452Y-67678357D01*
X96373976Y-67678357D01*
X96297785Y-67716452D01*
X96259690Y-67754547D01*
X96221595Y-67830738D01*
X96221595Y-68059309D01*
X96259690Y-68135500D01*
X96297785Y-68173595D01*
X97021595Y-67449785D02*
X96221595Y-67183119D01*
X97021595Y-66916452D01*
X149269404Y-59671333D02*
X148469404Y-59671333D01*
X148469404Y-59976095D01*
X148507500Y-60052285D01*
X148545595Y-60090380D01*
X148621785Y-60128476D01*
X148736071Y-60128476D01*
X148812261Y-60090380D01*
X148850357Y-60052285D01*
X148888452Y-59976095D01*
X148888452Y-59671333D01*
X149269404Y-60471333D02*
X148469404Y-60471333D01*
X149269404Y-61309428D02*
X148888452Y-61042761D01*
X149269404Y-60852285D02*
X148469404Y-60852285D01*
X148469404Y-61157047D01*
X148507500Y-61233238D01*
X148545595Y-61271333D01*
X148621785Y-61309428D01*
X148736071Y-61309428D01*
X148812261Y-61271333D01*
X148850357Y-61233238D01*
X148888452Y-61157047D01*
X148888452Y-60852285D01*
X149231309Y-62223714D02*
X149269404Y-62299904D01*
X149269404Y-62452285D01*
X149231309Y-62528476D01*
X149155119Y-62566571D01*
X149117023Y-62566571D01*
X149040833Y-62528476D01*
X149002738Y-62452285D01*
X149002738Y-62338000D01*
X148964642Y-62261809D01*
X148888452Y-62223714D01*
X148850357Y-62223714D01*
X148774166Y-62261809D01*
X148736071Y-62338000D01*
X148736071Y-62452285D01*
X148774166Y-62528476D01*
X149231309Y-63214190D02*
X149269404Y-63138000D01*
X149269404Y-62985619D01*
X149231309Y-62909428D01*
X149155119Y-62871333D01*
X148850357Y-62871333D01*
X148774166Y-62909428D01*
X148736071Y-62985619D01*
X148736071Y-63138000D01*
X148774166Y-63214190D01*
X148850357Y-63252285D01*
X148926547Y-63252285D01*
X149002738Y-62871333D01*
X148736071Y-63595142D02*
X149269404Y-63595142D01*
X148812261Y-63595142D02*
X148774166Y-63633238D01*
X148736071Y-63709428D01*
X148736071Y-63823714D01*
X148774166Y-63899904D01*
X148850357Y-63938000D01*
X149269404Y-63938000D01*
X149231309Y-64280857D02*
X149269404Y-64357047D01*
X149269404Y-64509428D01*
X149231309Y-64585619D01*
X149155119Y-64623714D01*
X149117023Y-64623714D01*
X149040833Y-64585619D01*
X149002738Y-64509428D01*
X149002738Y-64395142D01*
X148964642Y-64318952D01*
X148888452Y-64280857D01*
X148850357Y-64280857D01*
X148774166Y-64318952D01*
X148736071Y-64395142D01*
X148736071Y-64509428D01*
X148774166Y-64585619D01*
X149269404Y-65080857D02*
X149231309Y-65004666D01*
X149193214Y-64966571D01*
X149117023Y-64928476D01*
X148888452Y-64928476D01*
X148812261Y-64966571D01*
X148774166Y-65004666D01*
X148736071Y-65080857D01*
X148736071Y-65195142D01*
X148774166Y-65271333D01*
X148812261Y-65309428D01*
X148888452Y-65347523D01*
X149117023Y-65347523D01*
X149193214Y-65309428D01*
X149231309Y-65271333D01*
X149269404Y-65195142D01*
X149269404Y-65080857D01*
X149269404Y-65690380D02*
X148736071Y-65690380D01*
X148888452Y-65690380D02*
X148812261Y-65728476D01*
X148774166Y-65766571D01*
X148736071Y-65842761D01*
X148736071Y-65918952D01*
X113366380Y-99802904D02*
X113633047Y-99421952D01*
X113823523Y-99802904D02*
X113823523Y-99002904D01*
X113518761Y-99002904D01*
X113442571Y-99041000D01*
X113404476Y-99079095D01*
X113366380Y-99155285D01*
X113366380Y-99269571D01*
X113404476Y-99345761D01*
X113442571Y-99383857D01*
X113518761Y-99421952D01*
X113823523Y-99421952D01*
X112718761Y-99764809D02*
X112794952Y-99802904D01*
X112947333Y-99802904D01*
X113023523Y-99764809D01*
X113061619Y-99688619D01*
X113061619Y-99383857D01*
X113023523Y-99307666D01*
X112947333Y-99269571D01*
X112794952Y-99269571D01*
X112718761Y-99307666D01*
X112680666Y-99383857D01*
X112680666Y-99460047D01*
X113061619Y-99536238D01*
X112223523Y-99802904D02*
X112299714Y-99764809D01*
X112337809Y-99688619D01*
X112337809Y-99002904D01*
X111575904Y-99802904D02*
X111575904Y-99383857D01*
X111614000Y-99307666D01*
X111690190Y-99269571D01*
X111842571Y-99269571D01*
X111918761Y-99307666D01*
X111575904Y-99764809D02*
X111652095Y-99802904D01*
X111842571Y-99802904D01*
X111918761Y-99764809D01*
X111956857Y-99688619D01*
X111956857Y-99612428D01*
X111918761Y-99536238D01*
X111842571Y-99498142D01*
X111652095Y-99498142D01*
X111575904Y-99460047D01*
X111271142Y-99269571D02*
X111080666Y-99802904D01*
X110890190Y-99269571D02*
X111080666Y-99802904D01*
X111156857Y-99993380D01*
X111194952Y-100031476D01*
X111271142Y-100069571D01*
X110661619Y-99002904D02*
X110166380Y-99002904D01*
X110433047Y-99307666D01*
X110318761Y-99307666D01*
X110242571Y-99345761D01*
X110204476Y-99383857D01*
X110166380Y-99460047D01*
X110166380Y-99650523D01*
X110204476Y-99726714D01*
X110242571Y-99764809D01*
X110318761Y-99802904D01*
X110547333Y-99802904D01*
X110623523Y-99764809D01*
X110661619Y-99726714D01*
X133215333Y-60686904D02*
X133215333Y-60153571D01*
X133215333Y-60305952D02*
X133177238Y-60229761D01*
X133139142Y-60191666D01*
X133062952Y-60153571D01*
X132986761Y-60153571D01*
X132720095Y-60153571D02*
X132720095Y-60953571D01*
X132720095Y-60191666D02*
X132643904Y-60153571D01*
X132491523Y-60153571D01*
X132415333Y-60191666D01*
X132377238Y-60229761D01*
X132339142Y-60305952D01*
X132339142Y-60534523D01*
X132377238Y-60610714D01*
X132415333Y-60648809D01*
X132491523Y-60686904D01*
X132643904Y-60686904D01*
X132720095Y-60648809D01*
X131996285Y-60686904D02*
X131996285Y-60153571D01*
X131996285Y-59886904D02*
X132034380Y-59925000D01*
X131996285Y-59963095D01*
X131958190Y-59925000D01*
X131996285Y-59886904D01*
X131996285Y-59963095D01*
X131615333Y-60382142D02*
X131005809Y-60382142D01*
X130282000Y-60686904D02*
X130282000Y-59886904D01*
X130282000Y-60648809D02*
X130358190Y-60686904D01*
X130510571Y-60686904D01*
X130586761Y-60648809D01*
X130624857Y-60610714D01*
X130662952Y-60534523D01*
X130662952Y-60305952D01*
X130624857Y-60229761D01*
X130586761Y-60191666D01*
X130510571Y-60153571D01*
X130358190Y-60153571D01*
X130282000Y-60191666D01*
X129596285Y-60648809D02*
X129672476Y-60686904D01*
X129824857Y-60686904D01*
X129901047Y-60648809D01*
X129939142Y-60572619D01*
X129939142Y-60267857D01*
X129901047Y-60191666D01*
X129824857Y-60153571D01*
X129672476Y-60153571D01*
X129596285Y-60191666D01*
X129558190Y-60267857D01*
X129558190Y-60344047D01*
X129939142Y-60420238D01*
X128872476Y-60686904D02*
X128872476Y-60267857D01*
X128910571Y-60191666D01*
X128986761Y-60153571D01*
X129139142Y-60153571D01*
X129215333Y-60191666D01*
X128872476Y-60648809D02*
X128948666Y-60686904D01*
X129139142Y-60686904D01*
X129215333Y-60648809D01*
X129253428Y-60572619D01*
X129253428Y-60496428D01*
X129215333Y-60420238D01*
X129139142Y-60382142D01*
X128948666Y-60382142D01*
X128872476Y-60344047D01*
X128148666Y-60686904D02*
X128148666Y-59886904D01*
X128148666Y-60648809D02*
X128224857Y-60686904D01*
X128377238Y-60686904D01*
X128453428Y-60648809D01*
X128491523Y-60610714D01*
X128529619Y-60534523D01*
X128529619Y-60305952D01*
X128491523Y-60229761D01*
X128453428Y-60191666D01*
X128377238Y-60153571D01*
X128224857Y-60153571D01*
X128148666Y-60191666D01*
X127767714Y-60382142D02*
X127158190Y-60382142D01*
X126777238Y-60686904D02*
X126777238Y-60153571D01*
X126777238Y-60229761D02*
X126739142Y-60191666D01*
X126662952Y-60153571D01*
X126548666Y-60153571D01*
X126472476Y-60191666D01*
X126434380Y-60267857D01*
X126434380Y-60686904D01*
X126434380Y-60267857D02*
X126396285Y-60191666D01*
X126320095Y-60153571D01*
X126205809Y-60153571D01*
X126129619Y-60191666D01*
X126091523Y-60267857D01*
X126091523Y-60686904D01*
X125367714Y-60686904D02*
X125367714Y-60267857D01*
X125405809Y-60191666D01*
X125482000Y-60153571D01*
X125634380Y-60153571D01*
X125710571Y-60191666D01*
X125367714Y-60648809D02*
X125443904Y-60686904D01*
X125634380Y-60686904D01*
X125710571Y-60648809D01*
X125748666Y-60572619D01*
X125748666Y-60496428D01*
X125710571Y-60420238D01*
X125634380Y-60382142D01*
X125443904Y-60382142D01*
X125367714Y-60344047D01*
X124986761Y-60153571D02*
X124986761Y-60686904D01*
X124986761Y-60229761D02*
X124948666Y-60191666D01*
X124872476Y-60153571D01*
X124758190Y-60153571D01*
X124682000Y-60191666D01*
X124643904Y-60267857D01*
X124643904Y-60686904D01*
X124262952Y-60382142D02*
X123653428Y-60382142D01*
X122929619Y-60686904D02*
X122929619Y-60267857D01*
X122967714Y-60191666D01*
X123043904Y-60153571D01*
X123196285Y-60153571D01*
X123272476Y-60191666D01*
X122929619Y-60648809D02*
X123005809Y-60686904D01*
X123196285Y-60686904D01*
X123272476Y-60648809D01*
X123310571Y-60572619D01*
X123310571Y-60496428D01*
X123272476Y-60420238D01*
X123196285Y-60382142D01*
X123005809Y-60382142D01*
X122929619Y-60344047D01*
X122434380Y-60686904D02*
X122510571Y-60648809D01*
X122548666Y-60572619D01*
X122548666Y-59886904D01*
X121786761Y-60686904D02*
X121786761Y-60267857D01*
X121824857Y-60191666D01*
X121901047Y-60153571D01*
X122053428Y-60153571D01*
X122129619Y-60191666D01*
X121786761Y-60648809D02*
X121862952Y-60686904D01*
X122053428Y-60686904D01*
X122129619Y-60648809D01*
X122167714Y-60572619D01*
X122167714Y-60496428D01*
X122129619Y-60420238D01*
X122053428Y-60382142D01*
X121862952Y-60382142D01*
X121786761Y-60344047D01*
X121405809Y-60686904D02*
X121405809Y-60153571D01*
X121405809Y-60305952D02*
X121367714Y-60229761D01*
X121329619Y-60191666D01*
X121253428Y-60153571D01*
X121177238Y-60153571D01*
X120910571Y-60686904D02*
X120910571Y-60153571D01*
X120910571Y-60229761D02*
X120872476Y-60191666D01*
X120796285Y-60153571D01*
X120682000Y-60153571D01*
X120605809Y-60191666D01*
X120567714Y-60267857D01*
X120567714Y-60686904D01*
X120567714Y-60267857D02*
X120529619Y-60191666D01*
X120453428Y-60153571D01*
X120339142Y-60153571D01*
X120262952Y-60191666D01*
X120224857Y-60267857D01*
X120224857Y-60686904D01*
X119005809Y-60991666D02*
X119043904Y-60953571D01*
X119120095Y-60839285D01*
X119158190Y-60763095D01*
X119196285Y-60648809D01*
X119234380Y-60458333D01*
X119234380Y-60305952D01*
X119196285Y-60115476D01*
X119158190Y-60001190D01*
X119120095Y-59925000D01*
X119043904Y-59810714D01*
X119005809Y-59772619D01*
X118243904Y-60686904D02*
X118510571Y-60305952D01*
X118701047Y-60686904D02*
X118701047Y-59886904D01*
X118396285Y-59886904D01*
X118320095Y-59925000D01*
X118282000Y-59963095D01*
X118243904Y-60039285D01*
X118243904Y-60153571D01*
X118282000Y-60229761D01*
X118320095Y-60267857D01*
X118396285Y-60305952D01*
X118701047Y-60305952D01*
X117901047Y-60686904D02*
X117901047Y-59886904D01*
X117710571Y-59886904D01*
X117596285Y-59925000D01*
X117520095Y-60001190D01*
X117482000Y-60077380D01*
X117443904Y-60229761D01*
X117443904Y-60344047D01*
X117482000Y-60496428D01*
X117520095Y-60572619D01*
X117596285Y-60648809D01*
X117710571Y-60686904D01*
X117901047Y-60686904D01*
X117101047Y-60686904D02*
X117101047Y-59886904D01*
X116834380Y-60458333D01*
X116567714Y-59886904D01*
X116567714Y-60686904D01*
X116224857Y-60458333D02*
X115843904Y-60458333D01*
X116301047Y-60686904D02*
X116034380Y-59886904D01*
X115767714Y-60686904D01*
X115577238Y-60991666D02*
X115539142Y-60953571D01*
X115462952Y-60839285D01*
X115424857Y-60763095D01*
X115386761Y-60648809D01*
X115348666Y-60458333D01*
X115348666Y-60305952D01*
X115386761Y-60115476D01*
X115424857Y-60001190D01*
X115462952Y-59925000D01*
X115539142Y-59810714D01*
X115577238Y-59772619D01*
X114472476Y-59886904D02*
X114205809Y-60686904D01*
X113939142Y-59886904D01*
X113253428Y-60686904D02*
X113710571Y-60686904D01*
X113482000Y-60686904D02*
X113482000Y-59886904D01*
X113558190Y-60001190D01*
X113634380Y-60077380D01*
X113710571Y-60115476D01*
X112910571Y-60610714D02*
X112872476Y-60648809D01*
X112910571Y-60686904D01*
X112948666Y-60648809D01*
X112910571Y-60610714D01*
X112910571Y-60686904D01*
X112377238Y-59886904D02*
X112301047Y-59886904D01*
X112224857Y-59925000D01*
X112186761Y-59963095D01*
X112148666Y-60039285D01*
X112110571Y-60191666D01*
X112110571Y-60382142D01*
X112148666Y-60534523D01*
X112186761Y-60610714D01*
X112224857Y-60648809D01*
X112301047Y-60686904D01*
X112377238Y-60686904D01*
X112453428Y-60648809D01*
X112491523Y-60610714D01*
X112529619Y-60534523D01*
X112567714Y-60382142D01*
X112567714Y-60191666D01*
X112529619Y-60039285D01*
X112491523Y-59963095D01*
X112453428Y-59925000D01*
X112377238Y-59886904D01*
X148634404Y-71971023D02*
X148253452Y-71704357D01*
X148634404Y-71513880D02*
X147834404Y-71513880D01*
X147834404Y-71818642D01*
X147872500Y-71894833D01*
X147910595Y-71932928D01*
X147986785Y-71971023D01*
X148101071Y-71971023D01*
X148177261Y-71932928D01*
X148215357Y-71894833D01*
X148253452Y-71818642D01*
X148253452Y-71513880D01*
X148596309Y-72618642D02*
X148634404Y-72542452D01*
X148634404Y-72390071D01*
X148596309Y-72313880D01*
X148520119Y-72275785D01*
X148215357Y-72275785D01*
X148139166Y-72313880D01*
X148101071Y-72390071D01*
X148101071Y-72542452D01*
X148139166Y-72618642D01*
X148215357Y-72656738D01*
X148291547Y-72656738D01*
X148367738Y-72275785D01*
X148596309Y-72961500D02*
X148634404Y-73037690D01*
X148634404Y-73190071D01*
X148596309Y-73266261D01*
X148520119Y-73304357D01*
X148482023Y-73304357D01*
X148405833Y-73266261D01*
X148367738Y-73190071D01*
X148367738Y-73075785D01*
X148329642Y-72999595D01*
X148253452Y-72961500D01*
X148215357Y-72961500D01*
X148139166Y-72999595D01*
X148101071Y-73075785D01*
X148101071Y-73190071D01*
X148139166Y-73266261D01*
X148596309Y-73951976D02*
X148634404Y-73875785D01*
X148634404Y-73723404D01*
X148596309Y-73647214D01*
X148520119Y-73609119D01*
X148215357Y-73609119D01*
X148139166Y-73647214D01*
X148101071Y-73723404D01*
X148101071Y-73875785D01*
X148139166Y-73951976D01*
X148215357Y-73990071D01*
X148291547Y-73990071D01*
X148367738Y-73609119D01*
X148101071Y-74218642D02*
X148101071Y-74523404D01*
X147834404Y-74332928D02*
X148520119Y-74332928D01*
X148596309Y-74371023D01*
X148634404Y-74447214D01*
X148634404Y-74523404D01*
X148596309Y-65513285D02*
X148634404Y-65627571D01*
X148634404Y-65818047D01*
X148596309Y-65894238D01*
X148558214Y-65932333D01*
X148482023Y-65970428D01*
X148405833Y-65970428D01*
X148329642Y-65932333D01*
X148291547Y-65894238D01*
X148253452Y-65818047D01*
X148215357Y-65665666D01*
X148177261Y-65589476D01*
X148139166Y-65551380D01*
X148062976Y-65513285D01*
X147986785Y-65513285D01*
X147910595Y-65551380D01*
X147872500Y-65589476D01*
X147834404Y-65665666D01*
X147834404Y-65856142D01*
X147872500Y-65970428D01*
X148634404Y-66313285D02*
X147834404Y-66313285D01*
X148634404Y-66656142D02*
X148215357Y-66656142D01*
X148139166Y-66618047D01*
X148101071Y-66541857D01*
X148101071Y-66427571D01*
X148139166Y-66351380D01*
X148177261Y-66313285D01*
X148101071Y-67379952D02*
X148634404Y-67379952D01*
X148101071Y-67037095D02*
X148520119Y-67037095D01*
X148596309Y-67075190D01*
X148634404Y-67151380D01*
X148634404Y-67265666D01*
X148596309Y-67341857D01*
X148558214Y-67379952D01*
X148101071Y-67646619D02*
X148101071Y-67951380D01*
X147834404Y-67760904D02*
X148520119Y-67760904D01*
X148596309Y-67799000D01*
X148634404Y-67875190D01*
X148634404Y-67951380D01*
X148634404Y-68560904D02*
X147834404Y-68560904D01*
X148596309Y-68560904D02*
X148634404Y-68484714D01*
X148634404Y-68332333D01*
X148596309Y-68256142D01*
X148558214Y-68218047D01*
X148482023Y-68179952D01*
X148253452Y-68179952D01*
X148177261Y-68218047D01*
X148139166Y-68256142D01*
X148101071Y-68332333D01*
X148101071Y-68484714D01*
X148139166Y-68560904D01*
X148634404Y-69056142D02*
X148596309Y-68979952D01*
X148558214Y-68941857D01*
X148482023Y-68903761D01*
X148253452Y-68903761D01*
X148177261Y-68941857D01*
X148139166Y-68979952D01*
X148101071Y-69056142D01*
X148101071Y-69170428D01*
X148139166Y-69246619D01*
X148177261Y-69284714D01*
X148253452Y-69322809D01*
X148482023Y-69322809D01*
X148558214Y-69284714D01*
X148596309Y-69246619D01*
X148634404Y-69170428D01*
X148634404Y-69056142D01*
X148101071Y-69589476D02*
X148634404Y-69741857D01*
X148253452Y-69894238D01*
X148634404Y-70046619D01*
X148101071Y-70199000D01*
X148101071Y-70503761D02*
X148634404Y-70503761D01*
X148177261Y-70503761D02*
X148139166Y-70541857D01*
X148101071Y-70618047D01*
X148101071Y-70732333D01*
X148139166Y-70808523D01*
X148215357Y-70846619D01*
X148634404Y-70846619D01*
X151060023Y-74415642D02*
X150450500Y-74415642D01*
X150755261Y-74720404D02*
X150755261Y-74110880D01*
X150183833Y-73920404D02*
X149917166Y-74720404D01*
X149650500Y-73920404D01*
X149383833Y-74301357D02*
X149117166Y-74301357D01*
X149002880Y-74720404D02*
X149383833Y-74720404D01*
X149383833Y-73920404D01*
X149002880Y-73920404D01*
X150996523Y-69335642D02*
X150387000Y-69335642D01*
X150691761Y-69640404D02*
X150691761Y-69030880D01*
X150120333Y-68840404D02*
X149853666Y-69640404D01*
X149587000Y-68840404D01*
X149320333Y-69221357D02*
X149053666Y-69221357D01*
X148939380Y-69640404D02*
X149320333Y-69640404D01*
X149320333Y-68840404D01*
X148939380Y-68840404D01*
X150787023Y-66275000D02*
X150863214Y-66236904D01*
X150977500Y-66236904D01*
X151091785Y-66275000D01*
X151167976Y-66351190D01*
X151206071Y-66427380D01*
X151244166Y-66579761D01*
X151244166Y-66694047D01*
X151206071Y-66846428D01*
X151167976Y-66922619D01*
X151091785Y-66998809D01*
X150977500Y-67036904D01*
X150901309Y-67036904D01*
X150787023Y-66998809D01*
X150748928Y-66960714D01*
X150748928Y-66694047D01*
X150901309Y-66694047D01*
X150406071Y-67036904D02*
X150406071Y-66236904D01*
X149948928Y-67036904D01*
X149948928Y-66236904D01*
X149567976Y-67036904D02*
X149567976Y-66236904D01*
X149377500Y-66236904D01*
X149263214Y-66275000D01*
X149187023Y-66351190D01*
X149148928Y-66427380D01*
X149110833Y-66579761D01*
X149110833Y-66694047D01*
X149148928Y-66846428D01*
X149187023Y-66922619D01*
X149263214Y-66998809D01*
X149377500Y-67036904D01*
X149567976Y-67036904D01*
X151441023Y-64382642D02*
X150831500Y-64382642D01*
X151136261Y-64687404D02*
X151136261Y-64077880D01*
X150564833Y-63887404D02*
X150298166Y-64687404D01*
X150031500Y-63887404D01*
X149764833Y-64268357D02*
X149498166Y-64268357D01*
X149383880Y-64687404D02*
X149764833Y-64687404D01*
X149764833Y-63887404D01*
X149383880Y-63887404D01*
X150787023Y-71545500D02*
X150863214Y-71507404D01*
X150977500Y-71507404D01*
X151091785Y-71545500D01*
X151167976Y-71621690D01*
X151206071Y-71697880D01*
X151244166Y-71850261D01*
X151244166Y-71964547D01*
X151206071Y-72116928D01*
X151167976Y-72193119D01*
X151091785Y-72269309D01*
X150977500Y-72307404D01*
X150901309Y-72307404D01*
X150787023Y-72269309D01*
X150748928Y-72231214D01*
X150748928Y-71964547D01*
X150901309Y-71964547D01*
X150406071Y-72307404D02*
X150406071Y-71507404D01*
X149948928Y-72307404D01*
X149948928Y-71507404D01*
X149567976Y-72307404D02*
X149567976Y-71507404D01*
X149377500Y-71507404D01*
X149263214Y-71545500D01*
X149187023Y-71621690D01*
X149148928Y-71697880D01*
X149110833Y-71850261D01*
X149110833Y-71964547D01*
X149148928Y-72116928D01*
X149187023Y-72193119D01*
X149263214Y-72269309D01*
X149377500Y-72307404D01*
X149567976Y-72307404D01*
X150914023Y-61322000D02*
X150990214Y-61283904D01*
X151104500Y-61283904D01*
X151218785Y-61322000D01*
X151294976Y-61398190D01*
X151333071Y-61474380D01*
X151371166Y-61626761D01*
X151371166Y-61741047D01*
X151333071Y-61893428D01*
X151294976Y-61969619D01*
X151218785Y-62045809D01*
X151104500Y-62083904D01*
X151028309Y-62083904D01*
X150914023Y-62045809D01*
X150875928Y-62007714D01*
X150875928Y-61741047D01*
X151028309Y-61741047D01*
X150533071Y-62083904D02*
X150533071Y-61283904D01*
X150075928Y-62083904D01*
X150075928Y-61283904D01*
X149694976Y-62083904D02*
X149694976Y-61283904D01*
X149504500Y-61283904D01*
X149390214Y-61322000D01*
X149314023Y-61398190D01*
X149275928Y-61474380D01*
X149237833Y-61626761D01*
X149237833Y-61741047D01*
X149275928Y-61893428D01*
X149314023Y-61969619D01*
X149390214Y-62045809D01*
X149504500Y-62083904D01*
X149694976Y-62083904D01*
X129082738Y-99039404D02*
X129539880Y-99039404D01*
X129311309Y-99039404D02*
X129311309Y-98239404D01*
X129387500Y-98353690D01*
X129463690Y-98429880D01*
X129539880Y-98467976D01*
X128777976Y-98315595D02*
X128739880Y-98277500D01*
X128663690Y-98239404D01*
X128473214Y-98239404D01*
X128397023Y-98277500D01*
X128358928Y-98315595D01*
X128320833Y-98391785D01*
X128320833Y-98467976D01*
X128358928Y-98582261D01*
X128816071Y-99039404D01*
X128320833Y-99039404D01*
X128092261Y-98239404D02*
X127825595Y-99039404D01*
X127558928Y-98239404D01*
X130835119Y-99982261D02*
X130911309Y-99944166D01*
X130949404Y-99906071D01*
X130987500Y-99829880D01*
X130987500Y-99791785D01*
X130949404Y-99715595D01*
X130911309Y-99677500D01*
X130835119Y-99639404D01*
X130682738Y-99639404D01*
X130606547Y-99677500D01*
X130568452Y-99715595D01*
X130530357Y-99791785D01*
X130530357Y-99829880D01*
X130568452Y-99906071D01*
X130606547Y-99944166D01*
X130682738Y-99982261D01*
X130835119Y-99982261D01*
X130911309Y-100020357D01*
X130949404Y-100058452D01*
X130987500Y-100134642D01*
X130987500Y-100287023D01*
X130949404Y-100363214D01*
X130911309Y-100401309D01*
X130835119Y-100439404D01*
X130682738Y-100439404D01*
X130606547Y-100401309D01*
X130568452Y-100363214D01*
X130530357Y-100287023D01*
X130530357Y-100134642D01*
X130568452Y-100058452D01*
X130606547Y-100020357D01*
X130682738Y-99982261D01*
X130187500Y-100363214D02*
X130149404Y-100401309D01*
X130187500Y-100439404D01*
X130225595Y-100401309D01*
X130187500Y-100363214D01*
X130187500Y-100439404D01*
X129844642Y-99715595D02*
X129806547Y-99677500D01*
X129730357Y-99639404D01*
X129539880Y-99639404D01*
X129463690Y-99677500D01*
X129425595Y-99715595D01*
X129387500Y-99791785D01*
X129387500Y-99867976D01*
X129425595Y-99982261D01*
X129882738Y-100439404D01*
X129387500Y-100439404D01*
X129044642Y-100134642D02*
X128435119Y-100134642D01*
X127635119Y-100439404D02*
X128092261Y-100439404D01*
X127863690Y-100439404D02*
X127863690Y-99639404D01*
X127939880Y-99753690D01*
X128016071Y-99829880D01*
X128092261Y-99867976D01*
X127368452Y-99639404D02*
X126835119Y-99639404D01*
X127177976Y-100439404D01*
X126644642Y-99639404D02*
X126377976Y-100439404D01*
X126111309Y-99639404D01*
D12*
X124078904Y-99322000D02*
X124174142Y-99274380D01*
X124317000Y-99274380D01*
X124459857Y-99322000D01*
X124555095Y-99417238D01*
X124602714Y-99512476D01*
X124650333Y-99702952D01*
X124650333Y-99845809D01*
X124602714Y-100036285D01*
X124555095Y-100131523D01*
X124459857Y-100226761D01*
X124317000Y-100274380D01*
X124221761Y-100274380D01*
X124078904Y-100226761D01*
X124031285Y-100179142D01*
X124031285Y-99845809D01*
X124221761Y-99845809D01*
X123602714Y-100274380D02*
X123602714Y-99274380D01*
X123031285Y-100274380D01*
X123031285Y-99274380D01*
X122555095Y-100274380D02*
X122555095Y-99274380D01*
X122317000Y-99274380D01*
X122174142Y-99322000D01*
X122078904Y-99417238D01*
X122031285Y-99512476D01*
X121983666Y-99702952D01*
X121983666Y-99845809D01*
X122031285Y-100036285D01*
X122078904Y-100131523D01*
X122174142Y-100226761D01*
X122317000Y-100274380D01*
X122555095Y-100274380D01*
D10*
X119100523Y-99930000D02*
X119176714Y-99891904D01*
X119291000Y-99891904D01*
X119405285Y-99930000D01*
X119481476Y-100006190D01*
X119519571Y-100082380D01*
X119557666Y-100234761D01*
X119557666Y-100349047D01*
X119519571Y-100501428D01*
X119481476Y-100577619D01*
X119405285Y-100653809D01*
X119291000Y-100691904D01*
X119214809Y-100691904D01*
X119100523Y-100653809D01*
X119062428Y-100615714D01*
X119062428Y-100349047D01*
X119214809Y-100349047D01*
X118719571Y-100691904D02*
X118719571Y-99891904D01*
X118262428Y-100691904D01*
X118262428Y-99891904D01*
X117881476Y-100691904D02*
X117881476Y-99891904D01*
X117691000Y-99891904D01*
X117576714Y-99930000D01*
X117500523Y-100006190D01*
X117462428Y-100082380D01*
X117424333Y-100234761D01*
X117424333Y-100349047D01*
X117462428Y-100501428D01*
X117500523Y-100577619D01*
X117576714Y-100653809D01*
X117691000Y-100691904D01*
X117881476Y-100691904D01*
X116103380Y-99891904D02*
X116484333Y-99891904D01*
X116522428Y-100272857D01*
X116484333Y-100234761D01*
X116408142Y-100196666D01*
X116217666Y-100196666D01*
X116141476Y-100234761D01*
X116103380Y-100272857D01*
X116065285Y-100349047D01*
X116065285Y-100539523D01*
X116103380Y-100615714D01*
X116141476Y-100653809D01*
X116217666Y-100691904D01*
X116408142Y-100691904D01*
X116484333Y-100653809D01*
X116522428Y-100615714D01*
X115836714Y-99891904D02*
X115570047Y-100691904D01*
X115303380Y-99891904D01*
X108286380Y-99929904D02*
X108553047Y-99548952D01*
X108743523Y-99929904D02*
X108743523Y-99129904D01*
X108438761Y-99129904D01*
X108362571Y-99168000D01*
X108324476Y-99206095D01*
X108286380Y-99282285D01*
X108286380Y-99396571D01*
X108324476Y-99472761D01*
X108362571Y-99510857D01*
X108438761Y-99548952D01*
X108743523Y-99548952D01*
X107638761Y-99891809D02*
X107714952Y-99929904D01*
X107867333Y-99929904D01*
X107943523Y-99891809D01*
X107981619Y-99815619D01*
X107981619Y-99510857D01*
X107943523Y-99434666D01*
X107867333Y-99396571D01*
X107714952Y-99396571D01*
X107638761Y-99434666D01*
X107600666Y-99510857D01*
X107600666Y-99587047D01*
X107981619Y-99663238D01*
X107143523Y-99929904D02*
X107219714Y-99891809D01*
X107257809Y-99815619D01*
X107257809Y-99129904D01*
X106495904Y-99929904D02*
X106495904Y-99510857D01*
X106534000Y-99434666D01*
X106610190Y-99396571D01*
X106762571Y-99396571D01*
X106838761Y-99434666D01*
X106495904Y-99891809D02*
X106572095Y-99929904D01*
X106762571Y-99929904D01*
X106838761Y-99891809D01*
X106876857Y-99815619D01*
X106876857Y-99739428D01*
X106838761Y-99663238D01*
X106762571Y-99625142D01*
X106572095Y-99625142D01*
X106495904Y-99587047D01*
X106191142Y-99396571D02*
X106000666Y-99929904D01*
X105810190Y-99396571D02*
X106000666Y-99929904D01*
X106076857Y-100120380D01*
X106114952Y-100158476D01*
X106191142Y-100196571D01*
X105543523Y-99206095D02*
X105505428Y-99168000D01*
X105429238Y-99129904D01*
X105238761Y-99129904D01*
X105162571Y-99168000D01*
X105124476Y-99206095D01*
X105086380Y-99282285D01*
X105086380Y-99358476D01*
X105124476Y-99472761D01*
X105581619Y-99929904D01*
X105086380Y-99929904D01*
X113893523Y-100514142D02*
X113284000Y-100514142D01*
X112979238Y-100285571D02*
X112788761Y-100818904D01*
X112598285Y-100285571D01*
X108940523Y-100514142D02*
X108331000Y-100514142D01*
X108026238Y-100285571D02*
X107835761Y-100818904D01*
X107645285Y-100285571D01*
X103987523Y-100514142D02*
X103378000Y-100514142D01*
X103073238Y-100285571D02*
X102882761Y-100818904D01*
X102692285Y-100285571D01*
X111480523Y-100514142D02*
X110871000Y-100514142D01*
X111175761Y-100818904D02*
X111175761Y-100209380D01*
X110566238Y-100285571D02*
X110375761Y-100818904D01*
X110185285Y-100285571D01*
X106527523Y-100514142D02*
X105918000Y-100514142D01*
X106222761Y-100818904D02*
X106222761Y-100209380D01*
X105613238Y-100285571D02*
X105422761Y-100818904D01*
X105232285Y-100285571D01*
X101447523Y-100514142D02*
X100838000Y-100514142D01*
X101142761Y-100818904D02*
X101142761Y-100209380D01*
X100533238Y-100285571D02*
X100342761Y-100818904D01*
X100152285Y-100285571D01*
X103206380Y-99802904D02*
X103473047Y-99421952D01*
X103663523Y-99802904D02*
X103663523Y-99002904D01*
X103358761Y-99002904D01*
X103282571Y-99041000D01*
X103244476Y-99079095D01*
X103206380Y-99155285D01*
X103206380Y-99269571D01*
X103244476Y-99345761D01*
X103282571Y-99383857D01*
X103358761Y-99421952D01*
X103663523Y-99421952D01*
X102558761Y-99764809D02*
X102634952Y-99802904D01*
X102787333Y-99802904D01*
X102863523Y-99764809D01*
X102901619Y-99688619D01*
X102901619Y-99383857D01*
X102863523Y-99307666D01*
X102787333Y-99269571D01*
X102634952Y-99269571D01*
X102558761Y-99307666D01*
X102520666Y-99383857D01*
X102520666Y-99460047D01*
X102901619Y-99536238D01*
X102063523Y-99802904D02*
X102139714Y-99764809D01*
X102177809Y-99688619D01*
X102177809Y-99002904D01*
X101415904Y-99802904D02*
X101415904Y-99383857D01*
X101454000Y-99307666D01*
X101530190Y-99269571D01*
X101682571Y-99269571D01*
X101758761Y-99307666D01*
X101415904Y-99764809D02*
X101492095Y-99802904D01*
X101682571Y-99802904D01*
X101758761Y-99764809D01*
X101796857Y-99688619D01*
X101796857Y-99612428D01*
X101758761Y-99536238D01*
X101682571Y-99498142D01*
X101492095Y-99498142D01*
X101415904Y-99460047D01*
X101111142Y-99269571D02*
X100920666Y-99802904D01*
X100730190Y-99269571D02*
X100920666Y-99802904D01*
X100996857Y-99993380D01*
X101034952Y-100031476D01*
X101111142Y-100069571D01*
X100006380Y-99802904D02*
X100463523Y-99802904D01*
X100234952Y-99802904D02*
X100234952Y-99002904D01*
X100311142Y-99117190D01*
X100387333Y-99193380D01*
X100463523Y-99231476D01*
X99796523Y-96120000D02*
X99872714Y-96081904D01*
X99987000Y-96081904D01*
X100101285Y-96120000D01*
X100177476Y-96196190D01*
X100215571Y-96272380D01*
X100253666Y-96424761D01*
X100253666Y-96539047D01*
X100215571Y-96691428D01*
X100177476Y-96767619D01*
X100101285Y-96843809D01*
X99987000Y-96881904D01*
X99910809Y-96881904D01*
X99796523Y-96843809D01*
X99758428Y-96805714D01*
X99758428Y-96539047D01*
X99910809Y-96539047D01*
X99415571Y-96881904D02*
X99415571Y-96081904D01*
X98958428Y-96881904D01*
X98958428Y-96081904D01*
X98577476Y-96881904D02*
X98577476Y-96081904D01*
X98387000Y-96081904D01*
X98272714Y-96120000D01*
X98196523Y-96196190D01*
X98158428Y-96272380D01*
X98120333Y-96424761D01*
X98120333Y-96539047D01*
X98158428Y-96691428D01*
X98196523Y-96767619D01*
X98272714Y-96843809D01*
X98387000Y-96881904D01*
X98577476Y-96881904D01*
X99561523Y-91497142D02*
X98952000Y-91497142D01*
X99256761Y-91801904D02*
X99256761Y-91192380D01*
X98685333Y-91001904D02*
X98418666Y-91801904D01*
X98152000Y-91001904D01*
X97885333Y-91382857D02*
X97618666Y-91382857D01*
X97504380Y-91801904D02*
X97885333Y-91801904D01*
X97885333Y-91001904D01*
X97504380Y-91001904D01*
X100691904Y-90697238D02*
X100691904Y-90240095D01*
X100691904Y-90468666D02*
X99891904Y-90468666D01*
X100006190Y-90392476D01*
X100082380Y-90316285D01*
X100120476Y-90240095D01*
X100387142Y-91040095D02*
X100387142Y-91649619D01*
X99891904Y-91954380D02*
X100691904Y-92144857D01*
X100120476Y-92297238D01*
X100691904Y-92449619D01*
X99891904Y-92640095D01*
X100691904Y-92944857D02*
X100158571Y-92944857D01*
X99891904Y-92944857D02*
X99930000Y-92906761D01*
X99968095Y-92944857D01*
X99930000Y-92982952D01*
X99891904Y-92944857D01*
X99968095Y-92944857D01*
X100691904Y-93325809D02*
X100158571Y-93325809D01*
X100310952Y-93325809D02*
X100234761Y-93363904D01*
X100196666Y-93402000D01*
X100158571Y-93478190D01*
X100158571Y-93554380D01*
X100653809Y-94125809D02*
X100691904Y-94049619D01*
X100691904Y-93897238D01*
X100653809Y-93821047D01*
X100577619Y-93782952D01*
X100272857Y-93782952D01*
X100196666Y-93821047D01*
X100158571Y-93897238D01*
X100158571Y-94049619D01*
X100196666Y-94125809D01*
X100272857Y-94163904D01*
X100349047Y-94163904D01*
X100425238Y-93782952D01*
X99117047Y-94303809D02*
X99002761Y-94341904D01*
X98812285Y-94341904D01*
X98736095Y-94303809D01*
X98698000Y-94265714D01*
X98659904Y-94189523D01*
X98659904Y-94113333D01*
X98698000Y-94037142D01*
X98736095Y-93999047D01*
X98812285Y-93960952D01*
X98964666Y-93922857D01*
X99040857Y-93884761D01*
X99078952Y-93846666D01*
X99117047Y-93770476D01*
X99117047Y-93694285D01*
X99078952Y-93618095D01*
X99040857Y-93580000D01*
X98964666Y-93541904D01*
X98774190Y-93541904D01*
X98659904Y-93580000D01*
X98317047Y-94341904D02*
X98317047Y-93541904D01*
X97517047Y-93580000D02*
X97593238Y-93541904D01*
X97707523Y-93541904D01*
X97821809Y-93580000D01*
X97898000Y-93656190D01*
X97936095Y-93732380D01*
X97974190Y-93884761D01*
X97974190Y-93999047D01*
X97936095Y-94151428D01*
X97898000Y-94227619D01*
X97821809Y-94303809D01*
X97707523Y-94341904D01*
X97631333Y-94341904D01*
X97517047Y-94303809D01*
X97478952Y-94265714D01*
X97478952Y-93999047D01*
X97631333Y-93999047D01*
D13*
X138167857Y-59581880D02*
X138096428Y-59605690D01*
X137977380Y-59605690D01*
X137929761Y-59581880D01*
X137905952Y-59558071D01*
X137882142Y-59510452D01*
X137882142Y-59462833D01*
X137905952Y-59415214D01*
X137929761Y-59391404D01*
X137977380Y-59367595D01*
X138072619Y-59343785D01*
X138120238Y-59319976D01*
X138144047Y-59296166D01*
X138167857Y-59248547D01*
X138167857Y-59200928D01*
X138144047Y-59153309D01*
X138120238Y-59129500D01*
X138072619Y-59105690D01*
X137953571Y-59105690D01*
X137882142Y-59129500D01*
X137667857Y-59605690D02*
X137667857Y-59105690D01*
X137453571Y-59605690D02*
X137453571Y-59343785D01*
X137477380Y-59296166D01*
X137525000Y-59272357D01*
X137596428Y-59272357D01*
X137644047Y-59296166D01*
X137667857Y-59319976D01*
X137144047Y-59605690D02*
X137191666Y-59581880D01*
X137215476Y-59558071D01*
X137239285Y-59510452D01*
X137239285Y-59367595D01*
X137215476Y-59319976D01*
X137191666Y-59296166D01*
X137144047Y-59272357D01*
X137072619Y-59272357D01*
X137025000Y-59296166D01*
X137001190Y-59319976D01*
X136977380Y-59367595D01*
X136977380Y-59510452D01*
X137001190Y-59558071D01*
X137025000Y-59581880D01*
X137072619Y-59605690D01*
X137144047Y-59605690D01*
X136763095Y-59605690D02*
X136763095Y-59272357D01*
X136763095Y-59367595D02*
X136739285Y-59319976D01*
X136715476Y-59296166D01*
X136667857Y-59272357D01*
X136620238Y-59272357D01*
X136525000Y-59272357D02*
X136334523Y-59272357D01*
X136453571Y-59105690D02*
X136453571Y-59534261D01*
X136429761Y-59581880D01*
X136382142Y-59605690D01*
X136334523Y-59605690D01*
X135858333Y-59272357D02*
X135667857Y-59272357D01*
X135786904Y-59105690D02*
X135786904Y-59534261D01*
X135763095Y-59581880D01*
X135715476Y-59605690D01*
X135667857Y-59605690D01*
X135429761Y-59605690D02*
X135477380Y-59581880D01*
X135501190Y-59558071D01*
X135525000Y-59510452D01*
X135525000Y-59367595D01*
X135501190Y-59319976D01*
X135477380Y-59296166D01*
X135429761Y-59272357D01*
X135358333Y-59272357D01*
X135310714Y-59296166D01*
X135286904Y-59319976D01*
X135263095Y-59367595D01*
X135263095Y-59510452D01*
X135286904Y-59558071D01*
X135310714Y-59581880D01*
X135358333Y-59605690D01*
X135429761Y-59605690D01*
X139144047Y-60456880D02*
X139191666Y-60480690D01*
X139286904Y-60480690D01*
X139334523Y-60456880D01*
X139358333Y-60409261D01*
X139358333Y-60218785D01*
X139334523Y-60171166D01*
X139286904Y-60147357D01*
X139191666Y-60147357D01*
X139144047Y-60171166D01*
X139120238Y-60218785D01*
X139120238Y-60266404D01*
X139358333Y-60314023D01*
X138905952Y-60147357D02*
X138905952Y-60480690D01*
X138905952Y-60194976D02*
X138882142Y-60171166D01*
X138834523Y-60147357D01*
X138763095Y-60147357D01*
X138715476Y-60171166D01*
X138691666Y-60218785D01*
X138691666Y-60480690D01*
X138239285Y-60480690D02*
X138239285Y-60218785D01*
X138263095Y-60171166D01*
X138310714Y-60147357D01*
X138405952Y-60147357D01*
X138453571Y-60171166D01*
X138239285Y-60456880D02*
X138286904Y-60480690D01*
X138405952Y-60480690D01*
X138453571Y-60456880D01*
X138477380Y-60409261D01*
X138477380Y-60361642D01*
X138453571Y-60314023D01*
X138405952Y-60290214D01*
X138286904Y-60290214D01*
X138239285Y-60266404D01*
X138001190Y-60480690D02*
X138001190Y-59980690D01*
X138001190Y-60171166D02*
X137953571Y-60147357D01*
X137858333Y-60147357D01*
X137810714Y-60171166D01*
X137786904Y-60194976D01*
X137763095Y-60242595D01*
X137763095Y-60385452D01*
X137786904Y-60433071D01*
X137810714Y-60456880D01*
X137858333Y-60480690D01*
X137953571Y-60480690D01*
X138001190Y-60456880D01*
X137477380Y-60480690D02*
X137525000Y-60456880D01*
X137548809Y-60409261D01*
X137548809Y-59980690D01*
X137096428Y-60456880D02*
X137144047Y-60480690D01*
X137239285Y-60480690D01*
X137286904Y-60456880D01*
X137310714Y-60409261D01*
X137310714Y-60218785D01*
X137286904Y-60171166D01*
X137239285Y-60147357D01*
X137144047Y-60147357D01*
X137096428Y-60171166D01*
X137072619Y-60218785D01*
X137072619Y-60266404D01*
X137310714Y-60314023D01*
X136548809Y-60147357D02*
X136358333Y-60147357D01*
X136477380Y-60480690D02*
X136477380Y-60052119D01*
X136453571Y-60004500D01*
X136405952Y-59980690D01*
X136358333Y-59980690D01*
X136120238Y-60480690D02*
X136167857Y-60456880D01*
X136191666Y-60409261D01*
X136191666Y-59980690D01*
X135715476Y-60480690D02*
X135715476Y-60218785D01*
X135739285Y-60171166D01*
X135786904Y-60147357D01*
X135882142Y-60147357D01*
X135929761Y-60171166D01*
X135715476Y-60456880D02*
X135763095Y-60480690D01*
X135882142Y-60480690D01*
X135929761Y-60456880D01*
X135953571Y-60409261D01*
X135953571Y-60361642D01*
X135929761Y-60314023D01*
X135882142Y-60290214D01*
X135763095Y-60290214D01*
X135715476Y-60266404D01*
X135501190Y-60456880D02*
X135453571Y-60480690D01*
X135358333Y-60480690D01*
X135310714Y-60456880D01*
X135286904Y-60409261D01*
X135286904Y-60385452D01*
X135310714Y-60337833D01*
X135358333Y-60314023D01*
X135429761Y-60314023D01*
X135477380Y-60290214D01*
X135501190Y-60242595D01*
X135501190Y-60218785D01*
X135477380Y-60171166D01*
X135429761Y-60147357D01*
X135358333Y-60147357D01*
X135310714Y-60171166D01*
X135072619Y-60480690D02*
X135072619Y-59980690D01*
X134858333Y-60480690D02*
X134858333Y-60218785D01*
X134882142Y-60171166D01*
X134929761Y-60147357D01*
X135001190Y-60147357D01*
X135048809Y-60171166D01*
X135072619Y-60194976D01*
X134620238Y-60480690D02*
X134620238Y-60147357D01*
X134620238Y-59980690D02*
X134644047Y-60004500D01*
X134620238Y-60028309D01*
X134596428Y-60004500D01*
X134620238Y-59980690D01*
X134620238Y-60028309D01*
X134382142Y-60147357D02*
X134382142Y-60480690D01*
X134382142Y-60194976D02*
X134358333Y-60171166D01*
X134310714Y-60147357D01*
X134239285Y-60147357D01*
X134191666Y-60171166D01*
X134167857Y-60218785D01*
X134167857Y-60480690D01*
X133715476Y-60147357D02*
X133715476Y-60552119D01*
X133739285Y-60599738D01*
X133763095Y-60623547D01*
X133810714Y-60647357D01*
X133882142Y-60647357D01*
X133929761Y-60623547D01*
X133715476Y-60456880D02*
X133763095Y-60480690D01*
X133858333Y-60480690D01*
X133905952Y-60456880D01*
X133929761Y-60433071D01*
X133953571Y-60385452D01*
X133953571Y-60242595D01*
X133929761Y-60194976D01*
X133905952Y-60171166D01*
X133858333Y-60147357D01*
X133763095Y-60147357D01*
X133715476Y-60171166D01*
D12*
X123697904Y-107704000D02*
X123793142Y-107656380D01*
X123936000Y-107656380D01*
X124078857Y-107704000D01*
X124174095Y-107799238D01*
X124221714Y-107894476D01*
X124269333Y-108084952D01*
X124269333Y-108227809D01*
X124221714Y-108418285D01*
X124174095Y-108513523D01*
X124078857Y-108608761D01*
X123936000Y-108656380D01*
X123840761Y-108656380D01*
X123697904Y-108608761D01*
X123650285Y-108561142D01*
X123650285Y-108227809D01*
X123840761Y-108227809D01*
X123221714Y-108656380D02*
X123221714Y-107656380D01*
X122650285Y-108656380D01*
X122650285Y-107656380D01*
X122174095Y-108656380D02*
X122174095Y-107656380D01*
X121936000Y-107656380D01*
X121793142Y-107704000D01*
X121697904Y-107799238D01*
X121650285Y-107894476D01*
X121602666Y-108084952D01*
X121602666Y-108227809D01*
X121650285Y-108418285D01*
X121697904Y-108513523D01*
X121793142Y-108608761D01*
X121936000Y-108656380D01*
X122174095Y-108656380D01*
X129143047Y-107019380D02*
X129714476Y-107019380D01*
X129428761Y-107019380D02*
X129428761Y-106019380D01*
X129524000Y-106162238D01*
X129619238Y-106257476D01*
X129714476Y-106305095D01*
X128762095Y-106114619D02*
X128714476Y-106067000D01*
X128619238Y-106019380D01*
X128381142Y-106019380D01*
X128285904Y-106067000D01*
X128238285Y-106114619D01*
X128190666Y-106209857D01*
X128190666Y-106305095D01*
X128238285Y-106447952D01*
X128809714Y-107019380D01*
X128190666Y-107019380D01*
X127904952Y-106019380D02*
X127571619Y-107019380D01*
X127238285Y-106019380D01*
X131714476Y-108197952D02*
X131809714Y-108150333D01*
X131857333Y-108102714D01*
X131904952Y-108007476D01*
X131904952Y-107959857D01*
X131857333Y-107864619D01*
X131809714Y-107817000D01*
X131714476Y-107769380D01*
X131524000Y-107769380D01*
X131428761Y-107817000D01*
X131381142Y-107864619D01*
X131333523Y-107959857D01*
X131333523Y-108007476D01*
X131381142Y-108102714D01*
X131428761Y-108150333D01*
X131524000Y-108197952D01*
X131714476Y-108197952D01*
X131809714Y-108245571D01*
X131857333Y-108293190D01*
X131904952Y-108388428D01*
X131904952Y-108578904D01*
X131857333Y-108674142D01*
X131809714Y-108721761D01*
X131714476Y-108769380D01*
X131524000Y-108769380D01*
X131428761Y-108721761D01*
X131381142Y-108674142D01*
X131333523Y-108578904D01*
X131333523Y-108388428D01*
X131381142Y-108293190D01*
X131428761Y-108245571D01*
X131524000Y-108197952D01*
X130904952Y-108674142D02*
X130857333Y-108721761D01*
X130904952Y-108769380D01*
X130952571Y-108721761D01*
X130904952Y-108674142D01*
X130904952Y-108769380D01*
X130476380Y-107864619D02*
X130428761Y-107817000D01*
X130333523Y-107769380D01*
X130095428Y-107769380D01*
X130000190Y-107817000D01*
X129952571Y-107864619D01*
X129904952Y-107959857D01*
X129904952Y-108055095D01*
X129952571Y-108197952D01*
X130524000Y-108769380D01*
X129904952Y-108769380D01*
X129476380Y-108388428D02*
X128714476Y-108388428D01*
X127714476Y-108769380D02*
X128285904Y-108769380D01*
X128000190Y-108769380D02*
X128000190Y-107769380D01*
X128095428Y-107912238D01*
X128190666Y-108007476D01*
X128285904Y-108055095D01*
X127381142Y-107769380D02*
X126714476Y-107769380D01*
X127143047Y-108769380D01*
X125714476Y-107769380D02*
X125381142Y-108769380D01*
X125047809Y-107769380D01*
X130309357Y-81026380D02*
X130642690Y-80550190D01*
X130880785Y-81026380D02*
X130880785Y-80026380D01*
X130499833Y-80026380D01*
X130404595Y-80074000D01*
X130356976Y-80121619D01*
X130309357Y-80216857D01*
X130309357Y-80359714D01*
X130356976Y-80454952D01*
X130404595Y-80502571D01*
X130499833Y-80550190D01*
X130880785Y-80550190D01*
X129880785Y-81026380D02*
X129880785Y-80026380D01*
X129642690Y-80026380D01*
X129499833Y-80074000D01*
X129404595Y-80169238D01*
X129356976Y-80264476D01*
X129309357Y-80454952D01*
X129309357Y-80597809D01*
X129356976Y-80788285D01*
X129404595Y-80883523D01*
X129499833Y-80978761D01*
X129642690Y-81026380D01*
X129880785Y-81026380D01*
X128880785Y-81026380D02*
X128880785Y-80026380D01*
X128547452Y-80740666D01*
X128214119Y-80026380D01*
X128214119Y-81026380D01*
X127785547Y-80740666D02*
X127309357Y-80740666D01*
X127880785Y-81026380D02*
X127547452Y-80026380D01*
X127214119Y-81026380D01*
X126118880Y-81026380D02*
X126118880Y-80026380D01*
X126118880Y-80502571D02*
X125547452Y-80502571D01*
X125547452Y-81026380D02*
X125547452Y-80026380D01*
X124642690Y-81026380D02*
X124642690Y-80502571D01*
X124690309Y-80407333D01*
X124785547Y-80359714D01*
X124976023Y-80359714D01*
X125071261Y-80407333D01*
X124642690Y-80978761D02*
X124737928Y-81026380D01*
X124976023Y-81026380D01*
X125071261Y-80978761D01*
X125118880Y-80883523D01*
X125118880Y-80788285D01*
X125071261Y-80693047D01*
X124976023Y-80645428D01*
X124737928Y-80645428D01*
X124642690Y-80597809D01*
X124309357Y-80359714D02*
X123928404Y-80359714D01*
X124166500Y-80026380D02*
X124166500Y-80883523D01*
X124118880Y-80978761D01*
X124023642Y-81026380D01*
X123928404Y-81026380D01*
X122976023Y-80359714D02*
X122595071Y-80359714D01*
X122833166Y-81026380D02*
X122833166Y-80169238D01*
X122785547Y-80074000D01*
X122690309Y-80026380D01*
X122595071Y-80026380D01*
X122118880Y-81026380D02*
X122214119Y-80978761D01*
X122261738Y-80931142D01*
X122309357Y-80835904D01*
X122309357Y-80550190D01*
X122261738Y-80454952D01*
X122214119Y-80407333D01*
X122118880Y-80359714D01*
X121976023Y-80359714D01*
X121880785Y-80407333D01*
X121833166Y-80454952D01*
X121785547Y-80550190D01*
X121785547Y-80835904D01*
X121833166Y-80931142D01*
X121880785Y-80978761D01*
X121976023Y-81026380D01*
X122118880Y-81026380D01*
X121356976Y-81026380D02*
X121356976Y-80359714D01*
X121356976Y-80550190D02*
X121309357Y-80454952D01*
X121261738Y-80407333D01*
X121166500Y-80359714D01*
X121071261Y-80359714D01*
X135166500Y-82776380D02*
X135499833Y-82300190D01*
X135737928Y-82776380D02*
X135737928Y-81776380D01*
X135356976Y-81776380D01*
X135261738Y-81824000D01*
X135214119Y-81871619D01*
X135166500Y-81966857D01*
X135166500Y-82109714D01*
X135214119Y-82204952D01*
X135261738Y-82252571D01*
X135356976Y-82300190D01*
X135737928Y-82300190D01*
X134309357Y-82776380D02*
X134309357Y-82252571D01*
X134356976Y-82157333D01*
X134452214Y-82109714D01*
X134642690Y-82109714D01*
X134737928Y-82157333D01*
X134309357Y-82728761D02*
X134404595Y-82776380D01*
X134642690Y-82776380D01*
X134737928Y-82728761D01*
X134785547Y-82633523D01*
X134785547Y-82538285D01*
X134737928Y-82443047D01*
X134642690Y-82395428D01*
X134404595Y-82395428D01*
X134309357Y-82347809D01*
X133880785Y-82728761D02*
X133785547Y-82776380D01*
X133595071Y-82776380D01*
X133499833Y-82728761D01*
X133452214Y-82633523D01*
X133452214Y-82585904D01*
X133499833Y-82490666D01*
X133595071Y-82443047D01*
X133737928Y-82443047D01*
X133833166Y-82395428D01*
X133880785Y-82300190D01*
X133880785Y-82252571D01*
X133833166Y-82157333D01*
X133737928Y-82109714D01*
X133595071Y-82109714D01*
X133499833Y-82157333D01*
X133023642Y-82109714D02*
X133023642Y-83109714D01*
X133023642Y-82157333D02*
X132928404Y-82109714D01*
X132737928Y-82109714D01*
X132642690Y-82157333D01*
X132595071Y-82204952D01*
X132547452Y-82300190D01*
X132547452Y-82585904D01*
X132595071Y-82681142D01*
X132642690Y-82728761D01*
X132737928Y-82776380D01*
X132928404Y-82776380D01*
X133023642Y-82728761D01*
X132118880Y-82109714D02*
X132118880Y-83109714D01*
X132118880Y-82157333D02*
X132023642Y-82109714D01*
X131833166Y-82109714D01*
X131737928Y-82157333D01*
X131690309Y-82204952D01*
X131642690Y-82300190D01*
X131642690Y-82585904D01*
X131690309Y-82681142D01*
X131737928Y-82728761D01*
X131833166Y-82776380D01*
X132023642Y-82776380D01*
X132118880Y-82728761D01*
X131214119Y-82776380D02*
X131214119Y-81776380D01*
X131214119Y-82157333D02*
X131118880Y-82109714D01*
X130928404Y-82109714D01*
X130833166Y-82157333D01*
X130785547Y-82204952D01*
X130737928Y-82300190D01*
X130737928Y-82585904D01*
X130785547Y-82681142D01*
X130833166Y-82728761D01*
X130928404Y-82776380D01*
X131118880Y-82776380D01*
X131214119Y-82728761D01*
X129928404Y-82728761D02*
X130023642Y-82776380D01*
X130214119Y-82776380D01*
X130309357Y-82728761D01*
X130356976Y-82633523D01*
X130356976Y-82252571D01*
X130309357Y-82157333D01*
X130214119Y-82109714D01*
X130023642Y-82109714D01*
X129928404Y-82157333D01*
X129880785Y-82252571D01*
X129880785Y-82347809D01*
X130356976Y-82443047D01*
X129452214Y-82776380D02*
X129452214Y-82109714D01*
X129452214Y-82300190D02*
X129404595Y-82204952D01*
X129356976Y-82157333D01*
X129261738Y-82109714D01*
X129166500Y-82109714D01*
X128833166Y-82776380D02*
X128833166Y-82109714D01*
X128833166Y-82300190D02*
X128785547Y-82204952D01*
X128737928Y-82157333D01*
X128642690Y-82109714D01*
X128547452Y-82109714D01*
X128309357Y-82109714D02*
X128071261Y-82776380D01*
X127833166Y-82109714D02*
X128071261Y-82776380D01*
X128166500Y-83014476D01*
X128214119Y-83062095D01*
X128309357Y-83109714D01*
X126690309Y-82776380D02*
X126690309Y-81776380D01*
X126309357Y-81776380D01*
X126214119Y-81824000D01*
X126166500Y-81871619D01*
X126118880Y-81966857D01*
X126118880Y-82109714D01*
X126166500Y-82204952D01*
X126214119Y-82252571D01*
X126309357Y-82300190D01*
X126690309Y-82300190D01*
X125690309Y-82776380D02*
X125690309Y-82109714D01*
X125690309Y-81776380D02*
X125737928Y-81824000D01*
X125690309Y-81871619D01*
X125642690Y-81824000D01*
X125690309Y-81776380D01*
X125690309Y-81871619D01*
X124499833Y-81871619D02*
X124452214Y-81824000D01*
X124356976Y-81776380D01*
X124118880Y-81776380D01*
X124023642Y-81824000D01*
X123976023Y-81871619D01*
X123928404Y-81966857D01*
X123928404Y-82062095D01*
X123976023Y-82204952D01*
X124547452Y-82776380D01*
X123928404Y-82776380D01*
X122785547Y-81728761D02*
X123642690Y-83014476D01*
X122547452Y-81776380D02*
X121928404Y-81776380D01*
X122261738Y-82157333D01*
X122118880Y-82157333D01*
X122023642Y-82204952D01*
X121976023Y-82252571D01*
X121928404Y-82347809D01*
X121928404Y-82585904D01*
X121976023Y-82681142D01*
X122023642Y-82728761D01*
X122118880Y-82776380D01*
X122404595Y-82776380D01*
X122499833Y-82728761D01*
X122547452Y-82681142D01*
X120785547Y-81728761D02*
X121642690Y-83014476D01*
X120023642Y-82109714D02*
X120023642Y-82776380D01*
X120261738Y-81728761D02*
X120499833Y-82443047D01*
X119880785Y-82443047D01*
X118785547Y-81728761D02*
X119642690Y-83014476D01*
X118547452Y-81776380D02*
X117880785Y-81776380D01*
X118547452Y-82776380D01*
X117880785Y-82776380D01*
X117118880Y-82728761D02*
X117214119Y-82776380D01*
X117404595Y-82776380D01*
X117499833Y-82728761D01*
X117547452Y-82633523D01*
X117547452Y-82252571D01*
X117499833Y-82157333D01*
X117404595Y-82109714D01*
X117214119Y-82109714D01*
X117118880Y-82157333D01*
X117071261Y-82252571D01*
X117071261Y-82347809D01*
X117547452Y-82443047D01*
X116642690Y-82776380D02*
X116642690Y-82109714D01*
X116642690Y-82300190D02*
X116595071Y-82204952D01*
X116547452Y-82157333D01*
X116452214Y-82109714D01*
X116356976Y-82109714D01*
X115880785Y-82776380D02*
X115976023Y-82728761D01*
X116023642Y-82681142D01*
X116071261Y-82585904D01*
X116071261Y-82300190D01*
X116023642Y-82204952D01*
X115976023Y-82157333D01*
X115880785Y-82109714D01*
X115737928Y-82109714D01*
X115642690Y-82157333D01*
X115595071Y-82204952D01*
X115547452Y-82300190D01*
X115547452Y-82585904D01*
X115595071Y-82681142D01*
X115642690Y-82728761D01*
X115737928Y-82776380D01*
X115880785Y-82776380D01*
X135118880Y-84478761D02*
X134976023Y-84526380D01*
X134737928Y-84526380D01*
X134642690Y-84478761D01*
X134595071Y-84431142D01*
X134547452Y-84335904D01*
X134547452Y-84240666D01*
X134595071Y-84145428D01*
X134642690Y-84097809D01*
X134737928Y-84050190D01*
X134928404Y-84002571D01*
X135023642Y-83954952D01*
X135071261Y-83907333D01*
X135118880Y-83812095D01*
X135118880Y-83716857D01*
X135071261Y-83621619D01*
X135023642Y-83574000D01*
X134928404Y-83526380D01*
X134690309Y-83526380D01*
X134547452Y-83574000D01*
X134118880Y-84526380D02*
X134118880Y-83526380D01*
X133547452Y-84526380D02*
X133976023Y-83954952D01*
X133547452Y-83526380D02*
X134118880Y-84097809D01*
X132690309Y-84526380D02*
X132690309Y-84002571D01*
X132737928Y-83907333D01*
X132833166Y-83859714D01*
X133023642Y-83859714D01*
X133118880Y-83907333D01*
X132690309Y-84478761D02*
X132785547Y-84526380D01*
X133023642Y-84526380D01*
X133118880Y-84478761D01*
X133166500Y-84383523D01*
X133166500Y-84288285D01*
X133118880Y-84193047D01*
X133023642Y-84145428D01*
X132785547Y-84145428D01*
X132690309Y-84097809D01*
X131785547Y-84478761D02*
X131880785Y-84526380D01*
X132071261Y-84526380D01*
X132166500Y-84478761D01*
X132214119Y-84431142D01*
X132261738Y-84335904D01*
X132261738Y-84050190D01*
X132214119Y-83954952D01*
X132166500Y-83907333D01*
X132071261Y-83859714D01*
X131880785Y-83859714D01*
X131785547Y-83907333D01*
X130928404Y-84478761D02*
X131023642Y-84526380D01*
X131214119Y-84526380D01*
X131309357Y-84478761D01*
X131356976Y-84431142D01*
X131404595Y-84335904D01*
X131404595Y-84050190D01*
X131356976Y-83954952D01*
X131309357Y-83907333D01*
X131214119Y-83859714D01*
X131023642Y-83859714D01*
X130928404Y-83907333D01*
X130118880Y-84478761D02*
X130214119Y-84526380D01*
X130404595Y-84526380D01*
X130499833Y-84478761D01*
X130547452Y-84383523D01*
X130547452Y-84002571D01*
X130499833Y-83907333D01*
X130404595Y-83859714D01*
X130214119Y-83859714D01*
X130118880Y-83907333D01*
X130071261Y-84002571D01*
X130071261Y-84097809D01*
X130547452Y-84193047D01*
X129690309Y-84478761D02*
X129595071Y-84526380D01*
X129404595Y-84526380D01*
X129309357Y-84478761D01*
X129261738Y-84383523D01*
X129261738Y-84335904D01*
X129309357Y-84240666D01*
X129404595Y-84193047D01*
X129547452Y-84193047D01*
X129642690Y-84145428D01*
X129690309Y-84050190D01*
X129690309Y-84002571D01*
X129642690Y-83907333D01*
X129547452Y-83859714D01*
X129404595Y-83859714D01*
X129309357Y-83907333D01*
X128880785Y-84478761D02*
X128785547Y-84526380D01*
X128595071Y-84526380D01*
X128499833Y-84478761D01*
X128452214Y-84383523D01*
X128452214Y-84335904D01*
X128499833Y-84240666D01*
X128595071Y-84193047D01*
X128737928Y-84193047D01*
X128833166Y-84145428D01*
X128880785Y-84050190D01*
X128880785Y-84002571D01*
X128833166Y-83907333D01*
X128737928Y-83859714D01*
X128595071Y-83859714D01*
X128499833Y-83907333D01*
X127261738Y-84526380D02*
X127261738Y-83526380D01*
X127261738Y-83907333D02*
X127166500Y-83859714D01*
X126976023Y-83859714D01*
X126880785Y-83907333D01*
X126833166Y-83954952D01*
X126785547Y-84050190D01*
X126785547Y-84335904D01*
X126833166Y-84431142D01*
X126880785Y-84478761D01*
X126976023Y-84526380D01*
X127166500Y-84526380D01*
X127261738Y-84478761D01*
X126452214Y-83859714D02*
X126214119Y-84526380D01*
X125976023Y-83859714D02*
X126214119Y-84526380D01*
X126309357Y-84764476D01*
X126356976Y-84812095D01*
X126452214Y-84859714D01*
X124880785Y-84478761D02*
X124737928Y-84526380D01*
X124499833Y-84526380D01*
X124404595Y-84478761D01*
X124356976Y-84431142D01*
X124309357Y-84335904D01*
X124309357Y-84240666D01*
X124356976Y-84145428D01*
X124404595Y-84097809D01*
X124499833Y-84050190D01*
X124690309Y-84002571D01*
X124785547Y-83954952D01*
X124833166Y-83907333D01*
X124880785Y-83812095D01*
X124880785Y-83716857D01*
X124833166Y-83621619D01*
X124785547Y-83574000D01*
X124690309Y-83526380D01*
X124452214Y-83526380D01*
X124309357Y-83574000D01*
X123880785Y-84526380D02*
X123880785Y-83859714D01*
X123880785Y-83526380D02*
X123928404Y-83574000D01*
X123880785Y-83621619D01*
X123833166Y-83574000D01*
X123880785Y-83526380D01*
X123880785Y-83621619D01*
X123404595Y-84526380D02*
X123404595Y-83859714D01*
X123404595Y-83954952D02*
X123356976Y-83907333D01*
X123261738Y-83859714D01*
X123118880Y-83859714D01*
X123023642Y-83907333D01*
X122976023Y-84002571D01*
X122976023Y-84526380D01*
X122976023Y-84002571D02*
X122928404Y-83907333D01*
X122833166Y-83859714D01*
X122690309Y-83859714D01*
X122595071Y-83907333D01*
X122547452Y-84002571D01*
X122547452Y-84526380D01*
X121928404Y-84526380D02*
X122023642Y-84478761D01*
X122071261Y-84431142D01*
X122118880Y-84335904D01*
X122118880Y-84050190D01*
X122071261Y-83954952D01*
X122023642Y-83907333D01*
X121928404Y-83859714D01*
X121785547Y-83859714D01*
X121690309Y-83907333D01*
X121642690Y-83954952D01*
X121595071Y-84050190D01*
X121595071Y-84335904D01*
X121642690Y-84431142D01*
X121690309Y-84478761D01*
X121785547Y-84526380D01*
X121928404Y-84526380D01*
X121166500Y-83859714D02*
X121166500Y-84526380D01*
X121166500Y-83954952D02*
X121118880Y-83907333D01*
X121023642Y-83859714D01*
X120880785Y-83859714D01*
X120785547Y-83907333D01*
X120737928Y-84002571D01*
X120737928Y-84526380D01*
X119499833Y-84526380D02*
X119499833Y-83526380D01*
X118928404Y-84526380D02*
X119356976Y-83954952D01*
X118928404Y-83526380D02*
X119499833Y-84097809D01*
X118356976Y-84526380D02*
X118452214Y-84478761D01*
X118499833Y-84431142D01*
X118547452Y-84335904D01*
X118547452Y-84050190D01*
X118499833Y-83954952D01*
X118452214Y-83907333D01*
X118356976Y-83859714D01*
X118214119Y-83859714D01*
X118118880Y-83907333D01*
X118071261Y-83954952D01*
X118023642Y-84050190D01*
X118023642Y-84335904D01*
X118071261Y-84431142D01*
X118118880Y-84478761D01*
X118214119Y-84526380D01*
X118356976Y-84526380D01*
X117595071Y-83859714D02*
X117595071Y-84526380D01*
X117595071Y-83954952D02*
X117547452Y-83907333D01*
X117452214Y-83859714D01*
X117309357Y-83859714D01*
X117214119Y-83907333D01*
X117166500Y-84002571D01*
X117166500Y-84526380D01*
X116261738Y-83859714D02*
X116261738Y-84669238D01*
X116309357Y-84764476D01*
X116356976Y-84812095D01*
X116452214Y-84859714D01*
X116595071Y-84859714D01*
X116690309Y-84812095D01*
X116261738Y-84478761D02*
X116356976Y-84526380D01*
X116547452Y-84526380D01*
X116642690Y-84478761D01*
X116690309Y-84431142D01*
X116737928Y-84335904D01*
X116737928Y-84050190D01*
X116690309Y-83954952D01*
X116642690Y-83907333D01*
X116547452Y-83859714D01*
X116356976Y-83859714D01*
X116261738Y-83907333D01*
X134880785Y-86228761D02*
X134737928Y-86276380D01*
X134499833Y-86276380D01*
X134404595Y-86228761D01*
X134356976Y-86181142D01*
X134309357Y-86085904D01*
X134309357Y-85990666D01*
X134356976Y-85895428D01*
X134404595Y-85847809D01*
X134499833Y-85800190D01*
X134690309Y-85752571D01*
X134785547Y-85704952D01*
X134833166Y-85657333D01*
X134880785Y-85562095D01*
X134880785Y-85466857D01*
X134833166Y-85371619D01*
X134785547Y-85324000D01*
X134690309Y-85276380D01*
X134452214Y-85276380D01*
X134309357Y-85324000D01*
X133880785Y-86276380D02*
X133880785Y-85276380D01*
X133547452Y-85990666D01*
X133214119Y-85276380D01*
X133214119Y-86276380D01*
X132737928Y-86276380D02*
X132737928Y-85276380D01*
X132499833Y-85276380D01*
X132356976Y-85324000D01*
X132261738Y-85419238D01*
X132214119Y-85514476D01*
X132166500Y-85704952D01*
X132166500Y-85847809D01*
X132214119Y-86038285D01*
X132261738Y-86133523D01*
X132356976Y-86228761D01*
X132499833Y-86276380D01*
X132737928Y-86276380D01*
X131071261Y-85609714D02*
X130880785Y-86276380D01*
X130690309Y-85800190D01*
X130499833Y-86276380D01*
X130309357Y-85609714D01*
X129928404Y-86276380D02*
X129928404Y-85609714D01*
X129928404Y-85276380D02*
X129976023Y-85324000D01*
X129928404Y-85371619D01*
X129880785Y-85324000D01*
X129928404Y-85276380D01*
X129928404Y-85371619D01*
X129595071Y-85609714D02*
X129214119Y-85609714D01*
X129452214Y-85276380D02*
X129452214Y-86133523D01*
X129404595Y-86228761D01*
X129309357Y-86276380D01*
X129214119Y-86276380D01*
X128880785Y-86276380D02*
X128880785Y-85276380D01*
X128452214Y-86276380D02*
X128452214Y-85752571D01*
X128499833Y-85657333D01*
X128595071Y-85609714D01*
X128737928Y-85609714D01*
X128833166Y-85657333D01*
X128880785Y-85704952D01*
X126737928Y-85276380D02*
X127214119Y-85276380D01*
X127261738Y-85752571D01*
X127214119Y-85704952D01*
X127118880Y-85657333D01*
X126880785Y-85657333D01*
X126785547Y-85704952D01*
X126737928Y-85752571D01*
X126690309Y-85847809D01*
X126690309Y-86085904D01*
X126737928Y-86181142D01*
X126785547Y-86228761D01*
X126880785Y-86276380D01*
X127118880Y-86276380D01*
X127214119Y-86228761D01*
X127261738Y-86181142D01*
X126261738Y-86181142D02*
X126214119Y-86228761D01*
X126261738Y-86276380D01*
X126309357Y-86228761D01*
X126261738Y-86181142D01*
X126261738Y-86276380D01*
X125261738Y-86276380D02*
X125833166Y-86276380D01*
X125547452Y-86276380D02*
X125547452Y-85276380D01*
X125642690Y-85419238D01*
X125737928Y-85514476D01*
X125833166Y-85562095D01*
X124976023Y-85276380D02*
X124642690Y-86276380D01*
X124309357Y-85276380D01*
X122642690Y-86276380D02*
X122976023Y-85800190D01*
X123214119Y-86276380D02*
X123214119Y-85276380D01*
X122833166Y-85276380D01*
X122737928Y-85324000D01*
X122690309Y-85371619D01*
X122642690Y-85466857D01*
X122642690Y-85609714D01*
X122690309Y-85704952D01*
X122737928Y-85752571D01*
X122833166Y-85800190D01*
X123214119Y-85800190D01*
X121833166Y-86228761D02*
X121928404Y-86276380D01*
X122118880Y-86276380D01*
X122214119Y-86228761D01*
X122261738Y-86133523D01*
X122261738Y-85752571D01*
X122214119Y-85657333D01*
X122118880Y-85609714D01*
X121928404Y-85609714D01*
X121833166Y-85657333D01*
X121785547Y-85752571D01*
X121785547Y-85847809D01*
X122261738Y-85943047D01*
X120928404Y-85609714D02*
X120928404Y-86419238D01*
X120976023Y-86514476D01*
X121023642Y-86562095D01*
X121118880Y-86609714D01*
X121261738Y-86609714D01*
X121356976Y-86562095D01*
X120928404Y-86228761D02*
X121023642Y-86276380D01*
X121214119Y-86276380D01*
X121309357Y-86228761D01*
X121356976Y-86181142D01*
X121404595Y-86085904D01*
X121404595Y-85800190D01*
X121356976Y-85704952D01*
X121309357Y-85657333D01*
X121214119Y-85609714D01*
X121023642Y-85609714D01*
X120928404Y-85657333D01*
X120023642Y-85609714D02*
X120023642Y-86276380D01*
X120452214Y-85609714D02*
X120452214Y-86133523D01*
X120404595Y-86228761D01*
X120309357Y-86276380D01*
X120166500Y-86276380D01*
X120071261Y-86228761D01*
X120023642Y-86181142D01*
X119404595Y-86276380D02*
X119499833Y-86228761D01*
X119547452Y-86133523D01*
X119547452Y-85276380D01*
X118595071Y-86276380D02*
X118595071Y-85752571D01*
X118642690Y-85657333D01*
X118737928Y-85609714D01*
X118928404Y-85609714D01*
X119023642Y-85657333D01*
X118595071Y-86228761D02*
X118690309Y-86276380D01*
X118928404Y-86276380D01*
X119023642Y-86228761D01*
X119071261Y-86133523D01*
X119071261Y-86038285D01*
X119023642Y-85943047D01*
X118928404Y-85895428D01*
X118690309Y-85895428D01*
X118595071Y-85847809D01*
X118261738Y-85609714D02*
X117880785Y-85609714D01*
X118118880Y-85276380D02*
X118118880Y-86133523D01*
X118071261Y-86228761D01*
X117976023Y-86276380D01*
X117880785Y-86276380D01*
X117404595Y-86276380D02*
X117499833Y-86228761D01*
X117547452Y-86181142D01*
X117595071Y-86085904D01*
X117595071Y-85800190D01*
X117547452Y-85704952D01*
X117499833Y-85657333D01*
X117404595Y-85609714D01*
X117261738Y-85609714D01*
X117166500Y-85657333D01*
X117118880Y-85704952D01*
X117071261Y-85800190D01*
X117071261Y-86085904D01*
X117118880Y-86181142D01*
X117166500Y-86228761D01*
X117261738Y-86276380D01*
X117404595Y-86276380D01*
X116642690Y-86276380D02*
X116642690Y-85609714D01*
X116642690Y-85800190D02*
X116595071Y-85704952D01*
X116547452Y-85657333D01*
X116452214Y-85609714D01*
X116356976Y-85609714D01*
X133809357Y-87026380D02*
X133476023Y-88026380D01*
X133142690Y-87026380D01*
X131523642Y-88026380D02*
X132095071Y-88026380D01*
X131809357Y-88026380D02*
X131809357Y-87026380D01*
X131904595Y-87169238D01*
X131999833Y-87264476D01*
X132095071Y-87312095D01*
X131095071Y-87931142D02*
X131047452Y-87978761D01*
X131095071Y-88026380D01*
X131142690Y-87978761D01*
X131095071Y-87931142D01*
X131095071Y-88026380D01*
X130428404Y-87026380D02*
X130333166Y-87026380D01*
X130237928Y-87074000D01*
X130190309Y-87121619D01*
X130142690Y-87216857D01*
X130095071Y-87407333D01*
X130095071Y-87645428D01*
X130142690Y-87835904D01*
X130190309Y-87931142D01*
X130237928Y-87978761D01*
X130333166Y-88026380D01*
X130428404Y-88026380D01*
X130523642Y-87978761D01*
X130571261Y-87931142D01*
X130618880Y-87835904D01*
X130666500Y-87645428D01*
X130666500Y-87407333D01*
X130618880Y-87216857D01*
X130571261Y-87121619D01*
X130523642Y-87074000D01*
X130428404Y-87026380D01*
X128904595Y-87645428D02*
X128142690Y-87645428D01*
X126952214Y-87121619D02*
X126904595Y-87074000D01*
X126809357Y-87026380D01*
X126571261Y-87026380D01*
X126476023Y-87074000D01*
X126428404Y-87121619D01*
X126380785Y-87216857D01*
X126380785Y-87312095D01*
X126428404Y-87454952D01*
X126999833Y-88026380D01*
X126380785Y-88026380D01*
X125999833Y-87121619D02*
X125952214Y-87074000D01*
X125856976Y-87026380D01*
X125618880Y-87026380D01*
X125523642Y-87074000D01*
X125476023Y-87121619D01*
X125428404Y-87216857D01*
X125428404Y-87312095D01*
X125476023Y-87454952D01*
X126047452Y-88026380D01*
X125428404Y-88026380D01*
X124285547Y-86978761D02*
X125142690Y-88264476D01*
X123761738Y-87026380D02*
X123666500Y-87026380D01*
X123571261Y-87074000D01*
X123523642Y-87121619D01*
X123476023Y-87216857D01*
X123428404Y-87407333D01*
X123428404Y-87645428D01*
X123476023Y-87835904D01*
X123523642Y-87931142D01*
X123571261Y-87978761D01*
X123666500Y-88026380D01*
X123761738Y-88026380D01*
X123856976Y-87978761D01*
X123904595Y-87931142D01*
X123952214Y-87835904D01*
X123999833Y-87645428D01*
X123999833Y-87407333D01*
X123952214Y-87216857D01*
X123904595Y-87121619D01*
X123856976Y-87074000D01*
X123761738Y-87026380D01*
X122571261Y-87359714D02*
X122571261Y-88026380D01*
X122809357Y-86978761D02*
X123047452Y-87693047D01*
X122428404Y-87693047D01*
X121333166Y-86978761D02*
X122190309Y-88264476D01*
X121047452Y-87121619D02*
X120999833Y-87074000D01*
X120904595Y-87026380D01*
X120666500Y-87026380D01*
X120571261Y-87074000D01*
X120523642Y-87121619D01*
X120476023Y-87216857D01*
X120476023Y-87312095D01*
X120523642Y-87454952D01*
X121095071Y-88026380D01*
X120476023Y-88026380D01*
X119856976Y-87026380D02*
X119761738Y-87026380D01*
X119666500Y-87074000D01*
X119618880Y-87121619D01*
X119571261Y-87216857D01*
X119523642Y-87407333D01*
X119523642Y-87645428D01*
X119571261Y-87835904D01*
X119618880Y-87931142D01*
X119666500Y-87978761D01*
X119761738Y-88026380D01*
X119856976Y-88026380D01*
X119952214Y-87978761D01*
X119999833Y-87931142D01*
X120047452Y-87835904D01*
X120095071Y-87645428D01*
X120095071Y-87407333D01*
X120047452Y-87216857D01*
X119999833Y-87121619D01*
X119952214Y-87074000D01*
X119856976Y-87026380D01*
X119142690Y-87121619D02*
X119095071Y-87074000D01*
X118999833Y-87026380D01*
X118761738Y-87026380D01*
X118666500Y-87074000D01*
X118618880Y-87121619D01*
X118571261Y-87216857D01*
X118571261Y-87312095D01*
X118618880Y-87454952D01*
X119190309Y-88026380D01*
X118571261Y-88026380D01*
X117952214Y-87026380D02*
X117856976Y-87026380D01*
X117761738Y-87074000D01*
X117714119Y-87121619D01*
X117666500Y-87216857D01*
X117618880Y-87407333D01*
X117618880Y-87645428D01*
X117666500Y-87835904D01*
X117714119Y-87931142D01*
X117761738Y-87978761D01*
X117856976Y-88026380D01*
X117952214Y-88026380D01*
X118047452Y-87978761D01*
X118095071Y-87931142D01*
X118142690Y-87835904D01*
X118190309Y-87645428D01*
X118190309Y-87407333D01*
X118142690Y-87216857D01*
X118095071Y-87121619D01*
X118047452Y-87074000D01*
X117952214Y-87026380D01*
D14*
G36*
X127293337Y-66563645D02*
G01*
X127168464Y-66595806D01*
X127048287Y-66651424D01*
X127040873Y-66655756D01*
X127025220Y-66667096D01*
X127000032Y-66688390D01*
X126964697Y-66720238D01*
X126918602Y-66763240D01*
X126861136Y-66817999D01*
X126791686Y-66885114D01*
X126709641Y-66965186D01*
X126614387Y-67058817D01*
X126505314Y-67166607D01*
X126381808Y-67289157D01*
X126243258Y-67427068D01*
X126089051Y-67580941D01*
X125918576Y-67751376D01*
X125731220Y-67938975D01*
X125621496Y-68048946D01*
X125438999Y-68231941D01*
X125273597Y-68397873D01*
X125124425Y-68547639D01*
X124990615Y-68682135D01*
X124871301Y-68802256D01*
X124765616Y-68908900D01*
X124672695Y-69002962D01*
X124591669Y-69085338D01*
X124521673Y-69156925D01*
X124461840Y-69218618D01*
X124411303Y-69271314D01*
X124369195Y-69315908D01*
X124334650Y-69353297D01*
X124306802Y-69384378D01*
X124284783Y-69410045D01*
X124267728Y-69431196D01*
X124254769Y-69448725D01*
X124245039Y-69463531D01*
X124237673Y-69476507D01*
X124234195Y-69483438D01*
X124202416Y-69557849D01*
X124182028Y-69628708D01*
X124171549Y-69704251D01*
X124169495Y-69792713D01*
X124170781Y-69835542D01*
X124179000Y-69934319D01*
X124196297Y-70017207D01*
X124225249Y-70092871D01*
X124268432Y-70169976D01*
X124271756Y-70175187D01*
X124286539Y-70193189D01*
X124318149Y-70227807D01*
X124365347Y-70277801D01*
X124426893Y-70341931D01*
X124501551Y-70418958D01*
X124588081Y-70507642D01*
X124685245Y-70606742D01*
X124791805Y-70715019D01*
X124906522Y-70831233D01*
X125028157Y-70954144D01*
X125155473Y-71082513D01*
X125287232Y-71215099D01*
X125422193Y-71350662D01*
X125559120Y-71487963D01*
X125696774Y-71625763D01*
X125833915Y-71762820D01*
X125969307Y-71897895D01*
X126101710Y-72029748D01*
X126229887Y-72157140D01*
X126352598Y-72278831D01*
X126468605Y-72393580D01*
X126576670Y-72500148D01*
X126675554Y-72597295D01*
X126764020Y-72683781D01*
X126840828Y-72758366D01*
X126904740Y-72819811D01*
X126954518Y-72866875D01*
X126988924Y-72898319D01*
X127005366Y-72911988D01*
X127117741Y-72977492D01*
X127236742Y-73018582D01*
X127363786Y-73035702D01*
X127403881Y-73036226D01*
X127457310Y-73034870D01*
X127503275Y-73032542D01*
X127534104Y-73029671D01*
X127539750Y-73028653D01*
X127601814Y-73008815D01*
X127673598Y-72978360D01*
X127744691Y-72942161D01*
X127804682Y-72905090D01*
X127806450Y-72903837D01*
X127823930Y-72888794D01*
X127858034Y-72856954D01*
X127907515Y-72809565D01*
X127971123Y-72747878D01*
X128047608Y-72673139D01*
X128135722Y-72586600D01*
X128234216Y-72489507D01*
X128341839Y-72383111D01*
X128457344Y-72268661D01*
X128579480Y-72147404D01*
X128706999Y-72020590D01*
X128838651Y-71889468D01*
X128973187Y-71755287D01*
X129109358Y-71619296D01*
X129245915Y-71482743D01*
X129381609Y-71346878D01*
X129515189Y-71212949D01*
X129645408Y-71082206D01*
X129771016Y-70955896D01*
X129890763Y-70835270D01*
X130003401Y-70721576D01*
X130107680Y-70616063D01*
X130202351Y-70519979D01*
X130286165Y-70434574D01*
X130357873Y-70361097D01*
X130416225Y-70300797D01*
X130459972Y-70254921D01*
X130487866Y-70224720D01*
X130497034Y-70213914D01*
X130560415Y-70112388D01*
X130606504Y-69996679D01*
X130624164Y-69930042D01*
X130638638Y-69855131D01*
X130642516Y-69805549D01*
X130517900Y-69805549D01*
X130510420Y-69913720D01*
X130486537Y-70012117D01*
X130444087Y-70106421D01*
X130380906Y-70202314D01*
X130353458Y-70237350D01*
X130335846Y-70256928D01*
X130301319Y-70293287D01*
X130250985Y-70345308D01*
X130185952Y-70411872D01*
X130107327Y-70491863D01*
X130016220Y-70584162D01*
X129913737Y-70687652D01*
X129800987Y-70801213D01*
X129679077Y-70923729D01*
X129549116Y-71054082D01*
X129412211Y-71191153D01*
X129269470Y-71333825D01*
X129122002Y-71480979D01*
X129037500Y-71565193D01*
X128860232Y-71741778D01*
X128699994Y-71901353D01*
X128555807Y-72044819D01*
X128426689Y-72173075D01*
X128311662Y-72287022D01*
X128209745Y-72387562D01*
X128119958Y-72475594D01*
X128041321Y-72552018D01*
X127972855Y-72617736D01*
X127913579Y-72673648D01*
X127862513Y-72720655D01*
X127818677Y-72759656D01*
X127781092Y-72791553D01*
X127748776Y-72817245D01*
X127720751Y-72837634D01*
X127696037Y-72853620D01*
X127673652Y-72866103D01*
X127652618Y-72875985D01*
X127631954Y-72884164D01*
X127610680Y-72891543D01*
X127587817Y-72899021D01*
X127584899Y-72899975D01*
X127518897Y-72914265D01*
X127437432Y-72921051D01*
X127349176Y-72920593D01*
X127262801Y-72913150D01*
X127186979Y-72898982D01*
X127149054Y-72886928D01*
X127096189Y-72862696D01*
X127038964Y-72831562D01*
X127006480Y-72811298D01*
X126988074Y-72795960D01*
X126953087Y-72763829D01*
X126902790Y-72716173D01*
X126838455Y-72654265D01*
X126761353Y-72579374D01*
X126672756Y-72492770D01*
X126573934Y-72395726D01*
X126466160Y-72289510D01*
X126350705Y-72175394D01*
X126228840Y-72054649D01*
X126101836Y-71928544D01*
X125970966Y-71798351D01*
X125837501Y-71665340D01*
X125702711Y-71530781D01*
X125567869Y-71395946D01*
X125434246Y-71262104D01*
X125303113Y-71130527D01*
X125175741Y-71002485D01*
X125053403Y-70879248D01*
X124937370Y-70762088D01*
X124828912Y-70652274D01*
X124729302Y-70551078D01*
X124639811Y-70459769D01*
X124561710Y-70379619D01*
X124496270Y-70311898D01*
X124444764Y-70257877D01*
X124408463Y-70218825D01*
X124388637Y-70196015D01*
X124386337Y-70192900D01*
X124361264Y-70156333D01*
X124341511Y-70128815D01*
X124331713Y-70116700D01*
X124323583Y-70102326D01*
X124309931Y-70071118D01*
X124295371Y-70034150D01*
X124270809Y-69942516D01*
X124259380Y-69838317D01*
X124261584Y-69731022D01*
X124274750Y-69643561D01*
X124280084Y-69619644D01*
X124285513Y-69597369D01*
X124291903Y-69575789D01*
X124300116Y-69553956D01*
X124311017Y-69530923D01*
X124325470Y-69505741D01*
X124344340Y-69477464D01*
X124368489Y-69445144D01*
X124398783Y-69407833D01*
X124436085Y-69364584D01*
X124481259Y-69314450D01*
X124535170Y-69256482D01*
X124598681Y-69189733D01*
X124672657Y-69113255D01*
X124757961Y-69026102D01*
X124855457Y-68927326D01*
X124966011Y-68815978D01*
X125090485Y-68691112D01*
X125229744Y-68551779D01*
X125384651Y-68397033D01*
X125556072Y-68225926D01*
X125682875Y-68099382D01*
X125833188Y-67949422D01*
X125978892Y-67804156D01*
X126118944Y-67664621D01*
X126252297Y-67531853D01*
X126377909Y-67406889D01*
X126494735Y-67290765D01*
X126601730Y-67184519D01*
X126697849Y-67089186D01*
X126782049Y-67005804D01*
X126853285Y-66935409D01*
X126910512Y-66879038D01*
X126952687Y-66837727D01*
X126978765Y-66812513D01*
X126987300Y-66804655D01*
X127044964Y-66767732D01*
X127117971Y-66732422D01*
X127196432Y-66703253D01*
X127229507Y-66693695D01*
X127311697Y-66680358D01*
X127405616Y-66677933D01*
X127500261Y-66685999D01*
X127584629Y-66704138D01*
X127595633Y-66707673D01*
X127617113Y-66715114D01*
X127637663Y-66722956D01*
X127658236Y-66732084D01*
X127679786Y-66743386D01*
X127703267Y-66757748D01*
X127729632Y-66776058D01*
X127759835Y-66799201D01*
X127794831Y-66828065D01*
X127835572Y-66863537D01*
X127883012Y-66906502D01*
X127938106Y-66957848D01*
X128001806Y-67018462D01*
X128075068Y-67089230D01*
X128158843Y-67171040D01*
X128254087Y-67264777D01*
X128361753Y-67371329D01*
X128482795Y-67491582D01*
X128618166Y-67626423D01*
X128768820Y-67776738D01*
X128935712Y-67943416D01*
X129082547Y-68090124D01*
X129232573Y-68240092D01*
X129377868Y-68385448D01*
X129517396Y-68525150D01*
X129650120Y-68658155D01*
X129775003Y-68783421D01*
X129891009Y-68899904D01*
X129997101Y-69006562D01*
X130092243Y-69102352D01*
X130175398Y-69186232D01*
X130245530Y-69257159D01*
X130301601Y-69314091D01*
X130342576Y-69355984D01*
X130367418Y-69381796D01*
X130374936Y-69390106D01*
X130395689Y-69417542D01*
X130410609Y-69435482D01*
X130439743Y-69478979D01*
X130466885Y-69541117D01*
X130490075Y-69615133D01*
X130507352Y-69694268D01*
X130516757Y-69771761D01*
X130517900Y-69805549D01*
X130642516Y-69805549D01*
X130643555Y-69792277D01*
X130638748Y-69730445D01*
X130624052Y-69658598D01*
X130619812Y-69641669D01*
X130613310Y-69615437D01*
X130607440Y-69591661D01*
X130601349Y-69569397D01*
X130594181Y-69547700D01*
X130585083Y-69525625D01*
X130573199Y-69502228D01*
X130557674Y-69476565D01*
X130537656Y-69447691D01*
X130512288Y-69414661D01*
X130480716Y-69376532D01*
X130442087Y-69332358D01*
X130395544Y-69281195D01*
X130340235Y-69222099D01*
X130275303Y-69154125D01*
X130199895Y-69076328D01*
X130113157Y-68987765D01*
X130014232Y-68887490D01*
X129902268Y-68774560D01*
X129776409Y-68648029D01*
X129635801Y-68506954D01*
X129479590Y-68350389D01*
X129306920Y-68177391D01*
X129178970Y-68049184D01*
X129024638Y-67894667D01*
X128874494Y-67744626D01*
X128729586Y-67600094D01*
X128590961Y-67462103D01*
X128459665Y-67331686D01*
X128336744Y-67209875D01*
X128223246Y-67097705D01*
X128120217Y-66996207D01*
X128028705Y-66906414D01*
X127949755Y-66829359D01*
X127884415Y-66766075D01*
X127833731Y-66717594D01*
X127798750Y-66684949D01*
X127780519Y-66669174D01*
X127779604Y-66668528D01*
X127666037Y-66607382D01*
X127545131Y-66569484D01*
X127419895Y-66554888D01*
X127293337Y-66563645D01*
G37*
X127293337Y-66563645D02*
X127168464Y-66595806D01*
X127048287Y-66651424D01*
X127040873Y-66655756D01*
X127025220Y-66667096D01*
X127000032Y-66688390D01*
X126964697Y-66720238D01*
X126918602Y-66763240D01*
X126861136Y-66817999D01*
X126791686Y-66885114D01*
X126709641Y-66965186D01*
X126614387Y-67058817D01*
X126505314Y-67166607D01*
X126381808Y-67289157D01*
X126243258Y-67427068D01*
X126089051Y-67580941D01*
X125918576Y-67751376D01*
X125731220Y-67938975D01*
X125621496Y-68048946D01*
X125438999Y-68231941D01*
X125273597Y-68397873D01*
X125124425Y-68547639D01*
X124990615Y-68682135D01*
X124871301Y-68802256D01*
X124765616Y-68908900D01*
X124672695Y-69002962D01*
X124591669Y-69085338D01*
X124521673Y-69156925D01*
X124461840Y-69218618D01*
X124411303Y-69271314D01*
X124369195Y-69315908D01*
X124334650Y-69353297D01*
X124306802Y-69384378D01*
X124284783Y-69410045D01*
X124267728Y-69431196D01*
X124254769Y-69448725D01*
X124245039Y-69463531D01*
X124237673Y-69476507D01*
X124234195Y-69483438D01*
X124202416Y-69557849D01*
X124182028Y-69628708D01*
X124171549Y-69704251D01*
X124169495Y-69792713D01*
X124170781Y-69835542D01*
X124179000Y-69934319D01*
X124196297Y-70017207D01*
X124225249Y-70092871D01*
X124268432Y-70169976D01*
X124271756Y-70175187D01*
X124286539Y-70193189D01*
X124318149Y-70227807D01*
X124365347Y-70277801D01*
X124426893Y-70341931D01*
X124501551Y-70418958D01*
X124588081Y-70507642D01*
X124685245Y-70606742D01*
X124791805Y-70715019D01*
X124906522Y-70831233D01*
X125028157Y-70954144D01*
X125155473Y-71082513D01*
X125287232Y-71215099D01*
X125422193Y-71350662D01*
X125559120Y-71487963D01*
X125696774Y-71625763D01*
X125833915Y-71762820D01*
X125969307Y-71897895D01*
X126101710Y-72029748D01*
X126229887Y-72157140D01*
X126352598Y-72278831D01*
X126468605Y-72393580D01*
X126576670Y-72500148D01*
X126675554Y-72597295D01*
X126764020Y-72683781D01*
X126840828Y-72758366D01*
X126904740Y-72819811D01*
X126954518Y-72866875D01*
X126988924Y-72898319D01*
X127005366Y-72911988D01*
X127117741Y-72977492D01*
X127236742Y-73018582D01*
X127363786Y-73035702D01*
X127403881Y-73036226D01*
X127457310Y-73034870D01*
X127503275Y-73032542D01*
X127534104Y-73029671D01*
X127539750Y-73028653D01*
X127601814Y-73008815D01*
X127673598Y-72978360D01*
X127744691Y-72942161D01*
X127804682Y-72905090D01*
X127806450Y-72903837D01*
X127823930Y-72888794D01*
X127858034Y-72856954D01*
X127907515Y-72809565D01*
X127971123Y-72747878D01*
X128047608Y-72673139D01*
X128135722Y-72586600D01*
X128234216Y-72489507D01*
X128341839Y-72383111D01*
X128457344Y-72268661D01*
X128579480Y-72147404D01*
X128706999Y-72020590D01*
X128838651Y-71889468D01*
X128973187Y-71755287D01*
X129109358Y-71619296D01*
X129245915Y-71482743D01*
X129381609Y-71346878D01*
X129515189Y-71212949D01*
X129645408Y-71082206D01*
X129771016Y-70955896D01*
X129890763Y-70835270D01*
X130003401Y-70721576D01*
X130107680Y-70616063D01*
X130202351Y-70519979D01*
X130286165Y-70434574D01*
X130357873Y-70361097D01*
X130416225Y-70300797D01*
X130459972Y-70254921D01*
X130487866Y-70224720D01*
X130497034Y-70213914D01*
X130560415Y-70112388D01*
X130606504Y-69996679D01*
X130624164Y-69930042D01*
X130638638Y-69855131D01*
X130642516Y-69805549D01*
X130517900Y-69805549D01*
X130510420Y-69913720D01*
X130486537Y-70012117D01*
X130444087Y-70106421D01*
X130380906Y-70202314D01*
X130353458Y-70237350D01*
X130335846Y-70256928D01*
X130301319Y-70293287D01*
X130250985Y-70345308D01*
X130185952Y-70411872D01*
X130107327Y-70491863D01*
X130016220Y-70584162D01*
X129913737Y-70687652D01*
X129800987Y-70801213D01*
X129679077Y-70923729D01*
X129549116Y-71054082D01*
X129412211Y-71191153D01*
X129269470Y-71333825D01*
X129122002Y-71480979D01*
X129037500Y-71565193D01*
X128860232Y-71741778D01*
X128699994Y-71901353D01*
X128555807Y-72044819D01*
X128426689Y-72173075D01*
X128311662Y-72287022D01*
X128209745Y-72387562D01*
X128119958Y-72475594D01*
X128041321Y-72552018D01*
X127972855Y-72617736D01*
X127913579Y-72673648D01*
X127862513Y-72720655D01*
X127818677Y-72759656D01*
X127781092Y-72791553D01*
X127748776Y-72817245D01*
X127720751Y-72837634D01*
X127696037Y-72853620D01*
X127673652Y-72866103D01*
X127652618Y-72875985D01*
X127631954Y-72884164D01*
X127610680Y-72891543D01*
X127587817Y-72899021D01*
X127584899Y-72899975D01*
X127518897Y-72914265D01*
X127437432Y-72921051D01*
X127349176Y-72920593D01*
X127262801Y-72913150D01*
X127186979Y-72898982D01*
X127149054Y-72886928D01*
X127096189Y-72862696D01*
X127038964Y-72831562D01*
X127006480Y-72811298D01*
X126988074Y-72795960D01*
X126953087Y-72763829D01*
X126902790Y-72716173D01*
X126838455Y-72654265D01*
X126761353Y-72579374D01*
X126672756Y-72492770D01*
X126573934Y-72395726D01*
X126466160Y-72289510D01*
X126350705Y-72175394D01*
X126228840Y-72054649D01*
X126101836Y-71928544D01*
X125970966Y-71798351D01*
X125837501Y-71665340D01*
X125702711Y-71530781D01*
X125567869Y-71395946D01*
X125434246Y-71262104D01*
X125303113Y-71130527D01*
X125175741Y-71002485D01*
X125053403Y-70879248D01*
X124937370Y-70762088D01*
X124828912Y-70652274D01*
X124729302Y-70551078D01*
X124639811Y-70459769D01*
X124561710Y-70379619D01*
X124496270Y-70311898D01*
X124444764Y-70257877D01*
X124408463Y-70218825D01*
X124388637Y-70196015D01*
X124386337Y-70192900D01*
X124361264Y-70156333D01*
X124341511Y-70128815D01*
X124331713Y-70116700D01*
X124323583Y-70102326D01*
X124309931Y-70071118D01*
X124295371Y-70034150D01*
X124270809Y-69942516D01*
X124259380Y-69838317D01*
X124261584Y-69731022D01*
X124274750Y-69643561D01*
X124280084Y-69619644D01*
X124285513Y-69597369D01*
X124291903Y-69575789D01*
X124300116Y-69553956D01*
X124311017Y-69530923D01*
X124325470Y-69505741D01*
X124344340Y-69477464D01*
X124368489Y-69445144D01*
X124398783Y-69407833D01*
X124436085Y-69364584D01*
X124481259Y-69314450D01*
X124535170Y-69256482D01*
X124598681Y-69189733D01*
X124672657Y-69113255D01*
X124757961Y-69026102D01*
X124855457Y-68927326D01*
X124966011Y-68815978D01*
X125090485Y-68691112D01*
X125229744Y-68551779D01*
X125384651Y-68397033D01*
X125556072Y-68225926D01*
X125682875Y-68099382D01*
X125833188Y-67949422D01*
X125978892Y-67804156D01*
X126118944Y-67664621D01*
X126252297Y-67531853D01*
X126377909Y-67406889D01*
X126494735Y-67290765D01*
X126601730Y-67184519D01*
X126697849Y-67089186D01*
X126782049Y-67005804D01*
X126853285Y-66935409D01*
X126910512Y-66879038D01*
X126952687Y-66837727D01*
X126978765Y-66812513D01*
X126987300Y-66804655D01*
X127044964Y-66767732D01*
X127117971Y-66732422D01*
X127196432Y-66703253D01*
X127229507Y-66693695D01*
X127311697Y-66680358D01*
X127405616Y-66677933D01*
X127500261Y-66685999D01*
X127584629Y-66704138D01*
X127595633Y-66707673D01*
X127617113Y-66715114D01*
X127637663Y-66722956D01*
X127658236Y-66732084D01*
X127679786Y-66743386D01*
X127703267Y-66757748D01*
X127729632Y-66776058D01*
X127759835Y-66799201D01*
X127794831Y-66828065D01*
X127835572Y-66863537D01*
X127883012Y-66906502D01*
X127938106Y-66957848D01*
X128001806Y-67018462D01*
X128075068Y-67089230D01*
X128158843Y-67171040D01*
X128254087Y-67264777D01*
X128361753Y-67371329D01*
X128482795Y-67491582D01*
X128618166Y-67626423D01*
X128768820Y-67776738D01*
X128935712Y-67943416D01*
X129082547Y-68090124D01*
X129232573Y-68240092D01*
X129377868Y-68385448D01*
X129517396Y-68525150D01*
X129650120Y-68658155D01*
X129775003Y-68783421D01*
X129891009Y-68899904D01*
X129997101Y-69006562D01*
X130092243Y-69102352D01*
X130175398Y-69186232D01*
X130245530Y-69257159D01*
X130301601Y-69314091D01*
X130342576Y-69355984D01*
X130367418Y-69381796D01*
X130374936Y-69390106D01*
X130395689Y-69417542D01*
X130410609Y-69435482D01*
X130439743Y-69478979D01*
X130466885Y-69541117D01*
X130490075Y-69615133D01*
X130507352Y-69694268D01*
X130516757Y-69771761D01*
X130517900Y-69805549D01*
X130642516Y-69805549D01*
X130643555Y-69792277D01*
X130638748Y-69730445D01*
X130624052Y-69658598D01*
X130619812Y-69641669D01*
X130613310Y-69615437D01*
X130607440Y-69591661D01*
X130601349Y-69569397D01*
X130594181Y-69547700D01*
X130585083Y-69525625D01*
X130573199Y-69502228D01*
X130557674Y-69476565D01*
X130537656Y-69447691D01*
X130512288Y-69414661D01*
X130480716Y-69376532D01*
X130442087Y-69332358D01*
X130395544Y-69281195D01*
X130340235Y-69222099D01*
X130275303Y-69154125D01*
X130199895Y-69076328D01*
X130113157Y-68987765D01*
X130014232Y-68887490D01*
X129902268Y-68774560D01*
X129776409Y-68648029D01*
X129635801Y-68506954D01*
X129479590Y-68350389D01*
X129306920Y-68177391D01*
X129178970Y-68049184D01*
X129024638Y-67894667D01*
X128874494Y-67744626D01*
X128729586Y-67600094D01*
X128590961Y-67462103D01*
X128459665Y-67331686D01*
X128336744Y-67209875D01*
X128223246Y-67097705D01*
X128120217Y-66996207D01*
X128028705Y-66906414D01*
X127949755Y-66829359D01*
X127884415Y-66766075D01*
X127833731Y-66717594D01*
X127798750Y-66684949D01*
X127780519Y-66669174D01*
X127779604Y-66668528D01*
X127666037Y-66607382D01*
X127545131Y-66569484D01*
X127419895Y-66554888D01*
X127293337Y-66563645D01*
G36*
X117706782Y-68913497D02*
G01*
X117599403Y-68935347D01*
X117502984Y-68974478D01*
X117412049Y-69033110D01*
X117321448Y-69113141D01*
X117231670Y-69218359D01*
X117162798Y-69335874D01*
X117114392Y-69466816D01*
X117086012Y-69612313D01*
X117077433Y-69739838D01*
X117076566Y-69800502D01*
X117077299Y-69841241D01*
X117080711Y-69867527D01*
X117087878Y-69884828D01*
X117099879Y-69898615D01*
X117110584Y-69908113D01*
X117146217Y-69938900D01*
X117536034Y-69942075D01*
X117642623Y-69942752D01*
X117749462Y-69943083D01*
X117851556Y-69943078D01*
X117943915Y-69942747D01*
X118021545Y-69942099D01*
X118079454Y-69941144D01*
X118085588Y-69940990D01*
X118181742Y-69941012D01*
X118255106Y-69947703D01*
X118307708Y-69962339D01*
X118341578Y-69986198D01*
X118358747Y-70020555D01*
X118361245Y-70066689D01*
X118354618Y-70110229D01*
X118324004Y-70207284D01*
X118275585Y-70300587D01*
X118213460Y-70384325D01*
X118141730Y-70452685D01*
X118087960Y-70488295D01*
X117986274Y-70530877D01*
X117869195Y-70557928D01*
X117741607Y-70569219D01*
X117608392Y-70564519D01*
X117474431Y-70543599D01*
X117389333Y-70521213D01*
X117329889Y-70506458D01*
X117287121Y-70506295D01*
X117255803Y-70522455D01*
X117230707Y-70556670D01*
X117220653Y-70577088D01*
X117200029Y-70637001D01*
X117199143Y-70685180D01*
X117217973Y-70725855D01*
X117219919Y-70728390D01*
X117249742Y-70754605D01*
X117297645Y-70783848D01*
X117357078Y-70812945D01*
X117421489Y-70838725D01*
X117484326Y-70858016D01*
X117490943Y-70859625D01*
X117543031Y-70867964D01*
X117612377Y-70873668D01*
X117690962Y-70876620D01*
X117770770Y-70876702D01*
X117843781Y-70873798D01*
X117901980Y-70867789D01*
X117913152Y-70865812D01*
X118053317Y-70826504D01*
X118190137Y-70766409D01*
X118318214Y-70688705D01*
X118432152Y-70596572D01*
X118509655Y-70514419D01*
X118589354Y-70400569D01*
X118649187Y-70275485D01*
X118689973Y-70136881D01*
X118712528Y-69982472D01*
X118715538Y-69938900D01*
X118715788Y-69796928D01*
X118699198Y-69664761D01*
X118669136Y-69550240D01*
X118345418Y-69550240D01*
X118345280Y-69608396D01*
X118327643Y-69655253D01*
X118294703Y-69686326D01*
X118274949Y-69694103D01*
X118252758Y-69696530D01*
X118208762Y-69698533D01*
X118146555Y-69700052D01*
X118069729Y-69701026D01*
X117981878Y-69701394D01*
X117886593Y-69701097D01*
X117866729Y-69700951D01*
X117758437Y-69699933D01*
X117672714Y-69698714D01*
X117606730Y-69697121D01*
X117557652Y-69694978D01*
X117522649Y-69692112D01*
X117498892Y-69688348D01*
X117483547Y-69683512D01*
X117473786Y-69677429D01*
X117472967Y-69676709D01*
X117449753Y-69642406D01*
X117433874Y-69593458D01*
X117427924Y-69540177D01*
X117430583Y-69508252D01*
X117455617Y-69433868D01*
X117500558Y-69359547D01*
X117560505Y-69290818D01*
X117630559Y-69233209D01*
X117705822Y-69192248D01*
X117713168Y-69189385D01*
X117808386Y-69166736D01*
X117907539Y-69167014D01*
X118006048Y-69189212D01*
X118099339Y-69232324D01*
X118178976Y-69291749D01*
X118232367Y-69347837D01*
X118279915Y-69410531D01*
X118317455Y-69473362D01*
X118340820Y-69529862D01*
X118345418Y-69550240D01*
X118669136Y-69550240D01*
X118664353Y-69532023D01*
X118657021Y-69510132D01*
X118617773Y-69410552D01*
X118571674Y-69324651D01*
X118513529Y-69244201D01*
X118438145Y-69160976D01*
X118433850Y-69156615D01*
X118322298Y-69060368D01*
X118200828Y-68987484D01*
X118069239Y-68937880D01*
X117927332Y-68911472D01*
X117830600Y-68906707D01*
X117706782Y-68913497D01*
G37*
X117706782Y-68913497D02*
X117599403Y-68935347D01*
X117502984Y-68974478D01*
X117412049Y-69033110D01*
X117321448Y-69113141D01*
X117231670Y-69218359D01*
X117162798Y-69335874D01*
X117114392Y-69466816D01*
X117086012Y-69612313D01*
X117077433Y-69739838D01*
X117076566Y-69800502D01*
X117077299Y-69841241D01*
X117080711Y-69867527D01*
X117087878Y-69884828D01*
X117099879Y-69898615D01*
X117110584Y-69908113D01*
X117146217Y-69938900D01*
X117536034Y-69942075D01*
X117642623Y-69942752D01*
X117749462Y-69943083D01*
X117851556Y-69943078D01*
X117943915Y-69942747D01*
X118021545Y-69942099D01*
X118079454Y-69941144D01*
X118085588Y-69940990D01*
X118181742Y-69941012D01*
X118255106Y-69947703D01*
X118307708Y-69962339D01*
X118341578Y-69986198D01*
X118358747Y-70020555D01*
X118361245Y-70066689D01*
X118354618Y-70110229D01*
X118324004Y-70207284D01*
X118275585Y-70300587D01*
X118213460Y-70384325D01*
X118141730Y-70452685D01*
X118087960Y-70488295D01*
X117986274Y-70530877D01*
X117869195Y-70557928D01*
X117741607Y-70569219D01*
X117608392Y-70564519D01*
X117474431Y-70543599D01*
X117389333Y-70521213D01*
X117329889Y-70506458D01*
X117287121Y-70506295D01*
X117255803Y-70522455D01*
X117230707Y-70556670D01*
X117220653Y-70577088D01*
X117200029Y-70637001D01*
X117199143Y-70685180D01*
X117217973Y-70725855D01*
X117219919Y-70728390D01*
X117249742Y-70754605D01*
X117297645Y-70783848D01*
X117357078Y-70812945D01*
X117421489Y-70838725D01*
X117484326Y-70858016D01*
X117490943Y-70859625D01*
X117543031Y-70867964D01*
X117612377Y-70873668D01*
X117690962Y-70876620D01*
X117770770Y-70876702D01*
X117843781Y-70873798D01*
X117901980Y-70867789D01*
X117913152Y-70865812D01*
X118053317Y-70826504D01*
X118190137Y-70766409D01*
X118318214Y-70688705D01*
X118432152Y-70596572D01*
X118509655Y-70514419D01*
X118589354Y-70400569D01*
X118649187Y-70275485D01*
X118689973Y-70136881D01*
X118712528Y-69982472D01*
X118715538Y-69938900D01*
X118715788Y-69796928D01*
X118699198Y-69664761D01*
X118669136Y-69550240D01*
X118345418Y-69550240D01*
X118345280Y-69608396D01*
X118327643Y-69655253D01*
X118294703Y-69686326D01*
X118274949Y-69694103D01*
X118252758Y-69696530D01*
X118208762Y-69698533D01*
X118146555Y-69700052D01*
X118069729Y-69701026D01*
X117981878Y-69701394D01*
X117886593Y-69701097D01*
X117866729Y-69700951D01*
X117758437Y-69699933D01*
X117672714Y-69698714D01*
X117606730Y-69697121D01*
X117557652Y-69694978D01*
X117522649Y-69692112D01*
X117498892Y-69688348D01*
X117483547Y-69683512D01*
X117473786Y-69677429D01*
X117472967Y-69676709D01*
X117449753Y-69642406D01*
X117433874Y-69593458D01*
X117427924Y-69540177D01*
X117430583Y-69508252D01*
X117455617Y-69433868D01*
X117500558Y-69359547D01*
X117560505Y-69290818D01*
X117630559Y-69233209D01*
X117705822Y-69192248D01*
X117713168Y-69189385D01*
X117808386Y-69166736D01*
X117907539Y-69167014D01*
X118006048Y-69189212D01*
X118099339Y-69232324D01*
X118178976Y-69291749D01*
X118232367Y-69347837D01*
X118279915Y-69410531D01*
X118317455Y-69473362D01*
X118340820Y-69529862D01*
X118345418Y-69550240D01*
X118669136Y-69550240D01*
X118664353Y-69532023D01*
X118657021Y-69510132D01*
X118617773Y-69410552D01*
X118571674Y-69324651D01*
X118513529Y-69244201D01*
X118438145Y-69160976D01*
X118433850Y-69156615D01*
X118322298Y-69060368D01*
X118200828Y-68987484D01*
X118069239Y-68937880D01*
X117927332Y-68911472D01*
X117830600Y-68906707D01*
X117706782Y-68913497D01*
G36*
X123083355Y-68901296D02*
G01*
X122963078Y-68918565D01*
X122856001Y-68951661D01*
X122821098Y-68967655D01*
X122733811Y-69025564D01*
X122655930Y-69104761D01*
X122589668Y-69202175D01*
X122537235Y-69314732D01*
X122510401Y-69399150D01*
X122497756Y-69463024D01*
X122487276Y-69550257D01*
X122478939Y-69661211D01*
X122472727Y-69796248D01*
X122468621Y-69955731D01*
X122466601Y-70140020D01*
X122466372Y-70222201D01*
X122465770Y-70349464D01*
X122464184Y-70458220D01*
X122461666Y-70546934D01*
X122458265Y-70614071D01*
X122454031Y-70658096D01*
X122451704Y-70670626D01*
X122443984Y-70724373D01*
X122454245Y-70762689D01*
X122485000Y-70790294D01*
X122524547Y-70807326D01*
X122595739Y-70824570D01*
X122656588Y-70825233D01*
X122702796Y-70809308D01*
X122705268Y-70807644D01*
X122726339Y-70784940D01*
X122749948Y-70747949D01*
X122764545Y-70718744D01*
X122788188Y-70674056D01*
X122809182Y-70652134D01*
X122816654Y-70650100D01*
X122837587Y-70657500D01*
X122870443Y-70676778D01*
X122903362Y-70700214D01*
X123016576Y-70772012D01*
X123139200Y-70821015D01*
X123268244Y-70846472D01*
X123400719Y-70847629D01*
X123459705Y-70840183D01*
X123581799Y-70808900D01*
X123686423Y-70759507D01*
X123772928Y-70692712D01*
X123840662Y-70609221D01*
X123888972Y-70509741D01*
X123917207Y-70394980D01*
X123923272Y-70337285D01*
X123920736Y-70269100D01*
X123568105Y-70269100D01*
X123562056Y-70355500D01*
X123534842Y-70429948D01*
X123488481Y-70490866D01*
X123424993Y-70536675D01*
X123346396Y-70565798D01*
X123254711Y-70576658D01*
X123180368Y-70572105D01*
X123127238Y-70560811D01*
X123072750Y-70542772D01*
X123055168Y-70535082D01*
X122974167Y-70482067D01*
X122907905Y-70409592D01*
X122858086Y-70319997D01*
X122827909Y-70222917D01*
X122816247Y-70150555D01*
X122810434Y-70075852D01*
X122810618Y-70006524D01*
X122816944Y-69950287D01*
X122822333Y-69929845D01*
X122836246Y-69901557D01*
X122857421Y-69882875D01*
X122889997Y-69872701D01*
X122938115Y-69869935D01*
X123005917Y-69873478D01*
X123027671Y-69875332D01*
X123168783Y-69895613D01*
X123289018Y-69929156D01*
X123388142Y-69975789D01*
X123465918Y-70035339D01*
X123522112Y-70107636D01*
X123556487Y-70192507D01*
X123568105Y-70269100D01*
X123920736Y-70269100D01*
X123918873Y-70219027D01*
X123890844Y-70107149D01*
X123840534Y-70003425D01*
X123769291Y-69909625D01*
X123678464Y-69827521D01*
X123569402Y-69758887D01*
X123443452Y-69705494D01*
X123442135Y-69705051D01*
X123394219Y-69691247D01*
X123328617Y-69675493D01*
X123252786Y-69659428D01*
X123174185Y-69644693D01*
X123145980Y-69639921D01*
X123058877Y-69625300D01*
X122992984Y-69613091D01*
X122944358Y-69602159D01*
X122909058Y-69591370D01*
X122883143Y-69579590D01*
X122862670Y-69565685D01*
X122850275Y-69554840D01*
X122828359Y-69523693D01*
X122823841Y-69484817D01*
X122836765Y-69434057D01*
X122851904Y-69398319D01*
X122902439Y-69312998D01*
X122965398Y-69248531D01*
X123041769Y-69204478D01*
X123132542Y-69180396D01*
X123238708Y-69175844D01*
X123329700Y-69185082D01*
X123401887Y-69196660D01*
X123456352Y-69207207D01*
X123500596Y-69218687D01*
X123542120Y-69233065D01*
X123588426Y-69252306D01*
X123591527Y-69253661D01*
X123648036Y-69272700D01*
X123690307Y-69272688D01*
X123721645Y-69252941D01*
X123740938Y-69222743D01*
X123754135Y-69179785D01*
X123760854Y-69126941D01*
X123760248Y-69076127D01*
X123753611Y-69044118D01*
X123742801Y-69027349D01*
X123722272Y-69011760D01*
X123689611Y-68996600D01*
X123642401Y-68981118D01*
X123578227Y-68964564D01*
X123494673Y-68946187D01*
X123389324Y-68925236D01*
X123342400Y-68916316D01*
X123211555Y-68900373D01*
X123083355Y-68901296D01*
G37*
X123083355Y-68901296D02*
X122963078Y-68918565D01*
X122856001Y-68951661D01*
X122821098Y-68967655D01*
X122733811Y-69025564D01*
X122655930Y-69104761D01*
X122589668Y-69202175D01*
X122537235Y-69314732D01*
X122510401Y-69399150D01*
X122497756Y-69463024D01*
X122487276Y-69550257D01*
X122478939Y-69661211D01*
X122472727Y-69796248D01*
X122468621Y-69955731D01*
X122466601Y-70140020D01*
X122466372Y-70222201D01*
X122465770Y-70349464D01*
X122464184Y-70458220D01*
X122461666Y-70546934D01*
X122458265Y-70614071D01*
X122454031Y-70658096D01*
X122451704Y-70670626D01*
X122443984Y-70724373D01*
X122454245Y-70762689D01*
X122485000Y-70790294D01*
X122524547Y-70807326D01*
X122595739Y-70824570D01*
X122656588Y-70825233D01*
X122702796Y-70809308D01*
X122705268Y-70807644D01*
X122726339Y-70784940D01*
X122749948Y-70747949D01*
X122764545Y-70718744D01*
X122788188Y-70674056D01*
X122809182Y-70652134D01*
X122816654Y-70650100D01*
X122837587Y-70657500D01*
X122870443Y-70676778D01*
X122903362Y-70700214D01*
X123016576Y-70772012D01*
X123139200Y-70821015D01*
X123268244Y-70846472D01*
X123400719Y-70847629D01*
X123459705Y-70840183D01*
X123581799Y-70808900D01*
X123686423Y-70759507D01*
X123772928Y-70692712D01*
X123840662Y-70609221D01*
X123888972Y-70509741D01*
X123917207Y-70394980D01*
X123923272Y-70337285D01*
X123920736Y-70269100D01*
X123568105Y-70269100D01*
X123562056Y-70355500D01*
X123534842Y-70429948D01*
X123488481Y-70490866D01*
X123424993Y-70536675D01*
X123346396Y-70565798D01*
X123254711Y-70576658D01*
X123180368Y-70572105D01*
X123127238Y-70560811D01*
X123072750Y-70542772D01*
X123055168Y-70535082D01*
X122974167Y-70482067D01*
X122907905Y-70409592D01*
X122858086Y-70319997D01*
X122827909Y-70222917D01*
X122816247Y-70150555D01*
X122810434Y-70075852D01*
X122810618Y-70006524D01*
X122816944Y-69950287D01*
X122822333Y-69929845D01*
X122836246Y-69901557D01*
X122857421Y-69882875D01*
X122889997Y-69872701D01*
X122938115Y-69869935D01*
X123005917Y-69873478D01*
X123027671Y-69875332D01*
X123168783Y-69895613D01*
X123289018Y-69929156D01*
X123388142Y-69975789D01*
X123465918Y-70035339D01*
X123522112Y-70107636D01*
X123556487Y-70192507D01*
X123568105Y-70269100D01*
X123920736Y-70269100D01*
X123918873Y-70219027D01*
X123890844Y-70107149D01*
X123840534Y-70003425D01*
X123769291Y-69909625D01*
X123678464Y-69827521D01*
X123569402Y-69758887D01*
X123443452Y-69705494D01*
X123442135Y-69705051D01*
X123394219Y-69691247D01*
X123328617Y-69675493D01*
X123252786Y-69659428D01*
X123174185Y-69644693D01*
X123145980Y-69639921D01*
X123058877Y-69625300D01*
X122992984Y-69613091D01*
X122944358Y-69602159D01*
X122909058Y-69591370D01*
X122883143Y-69579590D01*
X122862670Y-69565685D01*
X122850275Y-69554840D01*
X122828359Y-69523693D01*
X122823841Y-69484817D01*
X122836765Y-69434057D01*
X122851904Y-69398319D01*
X122902439Y-69312998D01*
X122965398Y-69248531D01*
X123041769Y-69204478D01*
X123132542Y-69180396D01*
X123238708Y-69175844D01*
X123329700Y-69185082D01*
X123401887Y-69196660D01*
X123456352Y-69207207D01*
X123500596Y-69218687D01*
X123542120Y-69233065D01*
X123588426Y-69252306D01*
X123591527Y-69253661D01*
X123648036Y-69272700D01*
X123690307Y-69272688D01*
X123721645Y-69252941D01*
X123740938Y-69222743D01*
X123754135Y-69179785D01*
X123760854Y-69126941D01*
X123760248Y-69076127D01*
X123753611Y-69044118D01*
X123742801Y-69027349D01*
X123722272Y-69011760D01*
X123689611Y-68996600D01*
X123642401Y-68981118D01*
X123578227Y-68964564D01*
X123494673Y-68946187D01*
X123389324Y-68925236D01*
X123342400Y-68916316D01*
X123211555Y-68900373D01*
X123083355Y-68901296D01*
G36*
X119367289Y-68912269D02*
G01*
X119301161Y-68917784D01*
X119229178Y-68925955D01*
X119157090Y-68935952D01*
X119090647Y-68946948D01*
X119035599Y-68958115D01*
X118997698Y-68968624D01*
X118988209Y-68972678D01*
X118961879Y-68999938D01*
X118948770Y-69041813D01*
X118947921Y-69091844D01*
X118958372Y-69143572D01*
X118979164Y-69190539D01*
X119009337Y-69226286D01*
X119027632Y-69237930D01*
X119051422Y-69246271D01*
X119077935Y-69247087D01*
X119115636Y-69240035D01*
X119141932Y-69233288D01*
X119190195Y-69223340D01*
X119253520Y-69214372D01*
X119321570Y-69207725D01*
X119354759Y-69205661D01*
X119483605Y-69207123D01*
X119595549Y-69225382D01*
X119693581Y-69261440D01*
X119780688Y-69316297D01*
X119837642Y-69367307D01*
X119913693Y-69461767D01*
X119973582Y-69572381D01*
X120015427Y-69694298D01*
X120037348Y-69822667D01*
X120040250Y-69889933D01*
X120029041Y-70019414D01*
X119997008Y-70140703D01*
X119945969Y-70251368D01*
X119877748Y-70348979D01*
X119794164Y-70431107D01*
X119697038Y-70495319D01*
X119588193Y-70539187D01*
X119545926Y-70549649D01*
X119471841Y-70558398D01*
X119383470Y-70558567D01*
X119290198Y-70550789D01*
X119201409Y-70535697D01*
X119153520Y-70523188D01*
X119100671Y-70508391D01*
X119064924Y-70502509D01*
X119039898Y-70504767D01*
X119030367Y-70508264D01*
X118990115Y-70540192D01*
X118963707Y-70593117D01*
X118952292Y-70652291D01*
X118950224Y-70697475D01*
X118956970Y-70731277D01*
X118975901Y-70756766D01*
X119010386Y-70777013D01*
X119063796Y-70795090D01*
X119126505Y-70811021D01*
X119226276Y-70830020D01*
X119334363Y-70842758D01*
X119443578Y-70848945D01*
X119546736Y-70848288D01*
X119636650Y-70840495D01*
X119676497Y-70833368D01*
X119827673Y-70787820D01*
X119962906Y-70722934D01*
X120081366Y-70639784D01*
X120182224Y-70539446D01*
X120264650Y-70422998D01*
X120327813Y-70291514D01*
X120370882Y-70146070D01*
X120393029Y-69987743D01*
X120396000Y-69900799D01*
X120384566Y-69736986D01*
X120351194Y-69583794D01*
X120297278Y-69442644D01*
X120224214Y-69314954D01*
X120133398Y-69202142D01*
X120026226Y-69105628D01*
X119904091Y-69026830D01*
X119768390Y-68967167D01*
X119620517Y-68928058D01*
X119461869Y-68910921D01*
X119421811Y-68910236D01*
X119367289Y-68912269D01*
G37*
X119367289Y-68912269D02*
X119301161Y-68917784D01*
X119229178Y-68925955D01*
X119157090Y-68935952D01*
X119090647Y-68946948D01*
X119035599Y-68958115D01*
X118997698Y-68968624D01*
X118988209Y-68972678D01*
X118961879Y-68999938D01*
X118948770Y-69041813D01*
X118947921Y-69091844D01*
X118958372Y-69143572D01*
X118979164Y-69190539D01*
X119009337Y-69226286D01*
X119027632Y-69237930D01*
X119051422Y-69246271D01*
X119077935Y-69247087D01*
X119115636Y-69240035D01*
X119141932Y-69233288D01*
X119190195Y-69223340D01*
X119253520Y-69214372D01*
X119321570Y-69207725D01*
X119354759Y-69205661D01*
X119483605Y-69207123D01*
X119595549Y-69225382D01*
X119693581Y-69261440D01*
X119780688Y-69316297D01*
X119837642Y-69367307D01*
X119913693Y-69461767D01*
X119973582Y-69572381D01*
X120015427Y-69694298D01*
X120037348Y-69822667D01*
X120040250Y-69889933D01*
X120029041Y-70019414D01*
X119997008Y-70140703D01*
X119945969Y-70251368D01*
X119877748Y-70348979D01*
X119794164Y-70431107D01*
X119697038Y-70495319D01*
X119588193Y-70539187D01*
X119545926Y-70549649D01*
X119471841Y-70558398D01*
X119383470Y-70558567D01*
X119290198Y-70550789D01*
X119201409Y-70535697D01*
X119153520Y-70523188D01*
X119100671Y-70508391D01*
X119064924Y-70502509D01*
X119039898Y-70504767D01*
X119030367Y-70508264D01*
X118990115Y-70540192D01*
X118963707Y-70593117D01*
X118952292Y-70652291D01*
X118950224Y-70697475D01*
X118956970Y-70731277D01*
X118975901Y-70756766D01*
X119010386Y-70777013D01*
X119063796Y-70795090D01*
X119126505Y-70811021D01*
X119226276Y-70830020D01*
X119334363Y-70842758D01*
X119443578Y-70848945D01*
X119546736Y-70848288D01*
X119636650Y-70840495D01*
X119676497Y-70833368D01*
X119827673Y-70787820D01*
X119962906Y-70722934D01*
X120081366Y-70639784D01*
X120182224Y-70539446D01*
X120264650Y-70422998D01*
X120327813Y-70291514D01*
X120370882Y-70146070D01*
X120393029Y-69987743D01*
X120396000Y-69900799D01*
X120384566Y-69736986D01*
X120351194Y-69583794D01*
X120297278Y-69442644D01*
X120224214Y-69314954D01*
X120133398Y-69202142D01*
X120026226Y-69105628D01*
X119904091Y-69026830D01*
X119768390Y-68967167D01*
X119620517Y-68928058D01*
X119461869Y-68910921D01*
X119421811Y-68910236D01*
X119367289Y-68912269D01*
G36*
X121002442Y-68913483D02*
G01*
X120943783Y-68919089D01*
X120880257Y-68929675D01*
X120853200Y-68935060D01*
X120770935Y-68953265D01*
X120710717Y-68970257D01*
X120669350Y-68987623D01*
X120643636Y-69006947D01*
X120630377Y-69029815D01*
X120626931Y-69047263D01*
X120629994Y-69089818D01*
X120643231Y-69142181D01*
X120662957Y-69192874D01*
X120685489Y-69230421D01*
X120685871Y-69230875D01*
X120708942Y-69247094D01*
X120743593Y-69251834D01*
X120793975Y-69245175D01*
X120840500Y-69233862D01*
X120959945Y-69210974D01*
X121083082Y-69204624D01*
X121203361Y-69214419D01*
X121314227Y-69239968D01*
X121381013Y-69266195D01*
X121472688Y-69323538D01*
X121551660Y-69400330D01*
X121616704Y-69493360D01*
X121666595Y-69599419D01*
X121700109Y-69715296D01*
X121716019Y-69837782D01*
X121713101Y-69963666D01*
X121692232Y-70081700D01*
X121652249Y-70201821D01*
X121597840Y-70302696D01*
X121527025Y-70387222D01*
X121437825Y-70458294D01*
X121432396Y-70461839D01*
X121322500Y-70518481D01*
X121204577Y-70551381D01*
X121078168Y-70560604D01*
X120942812Y-70546212D01*
X120893671Y-70535711D01*
X120839345Y-70523852D01*
X120789395Y-70514969D01*
X120752777Y-70510604D01*
X120746660Y-70510400D01*
X120701439Y-70521746D01*
X120666338Y-70555976D01*
X120641099Y-70613377D01*
X120635473Y-70634896D01*
X120627369Y-70675368D01*
X120627286Y-70701253D01*
X120636229Y-70722373D01*
X120645812Y-70736130D01*
X120679524Y-70763576D01*
X120735763Y-70787478D01*
X120811824Y-70807210D01*
X120905001Y-70822145D01*
X121012589Y-70831658D01*
X121069100Y-70834130D01*
X121138829Y-70835248D01*
X121205207Y-70834572D01*
X121261126Y-70832283D01*
X121299479Y-70828566D01*
X121302022Y-70828133D01*
X121449653Y-70792771D01*
X121579519Y-70742582D01*
X121695854Y-70675435D01*
X121802892Y-70589197D01*
X121831553Y-70561560D01*
X121917595Y-70464950D01*
X121982913Y-70365781D01*
X122031753Y-70256838D01*
X122055900Y-70180200D01*
X122069494Y-70109498D01*
X122077678Y-70021589D01*
X122080533Y-69924065D01*
X122078137Y-69824519D01*
X122070570Y-69730543D01*
X122057912Y-69649730D01*
X122050008Y-69617698D01*
X121994262Y-69466463D01*
X121919395Y-69330802D01*
X121826312Y-69211827D01*
X121715918Y-69110650D01*
X121589117Y-69028385D01*
X121558050Y-69012414D01*
X121474774Y-68974805D01*
X121397439Y-68948053D01*
X121317805Y-68930200D01*
X121227632Y-68919290D01*
X121145300Y-68914366D01*
X121066269Y-68912145D01*
X121002442Y-68913483D01*
G37*
X121002442Y-68913483D02*
X120943783Y-68919089D01*
X120880257Y-68929675D01*
X120853200Y-68935060D01*
X120770935Y-68953265D01*
X120710717Y-68970257D01*
X120669350Y-68987623D01*
X120643636Y-69006947D01*
X120630377Y-69029815D01*
X120626931Y-69047263D01*
X120629994Y-69089818D01*
X120643231Y-69142181D01*
X120662957Y-69192874D01*
X120685489Y-69230421D01*
X120685871Y-69230875D01*
X120708942Y-69247094D01*
X120743593Y-69251834D01*
X120793975Y-69245175D01*
X120840500Y-69233862D01*
X120959945Y-69210974D01*
X121083082Y-69204624D01*
X121203361Y-69214419D01*
X121314227Y-69239968D01*
X121381013Y-69266195D01*
X121472688Y-69323538D01*
X121551660Y-69400330D01*
X121616704Y-69493360D01*
X121666595Y-69599419D01*
X121700109Y-69715296D01*
X121716019Y-69837782D01*
X121713101Y-69963666D01*
X121692232Y-70081700D01*
X121652249Y-70201821D01*
X121597840Y-70302696D01*
X121527025Y-70387222D01*
X121437825Y-70458294D01*
X121432396Y-70461839D01*
X121322500Y-70518481D01*
X121204577Y-70551381D01*
X121078168Y-70560604D01*
X120942812Y-70546212D01*
X120893671Y-70535711D01*
X120839345Y-70523852D01*
X120789395Y-70514969D01*
X120752777Y-70510604D01*
X120746660Y-70510400D01*
X120701439Y-70521746D01*
X120666338Y-70555976D01*
X120641099Y-70613377D01*
X120635473Y-70634896D01*
X120627369Y-70675368D01*
X120627286Y-70701253D01*
X120636229Y-70722373D01*
X120645812Y-70736130D01*
X120679524Y-70763576D01*
X120735763Y-70787478D01*
X120811824Y-70807210D01*
X120905001Y-70822145D01*
X121012589Y-70831658D01*
X121069100Y-70834130D01*
X121138829Y-70835248D01*
X121205207Y-70834572D01*
X121261126Y-70832283D01*
X121299479Y-70828566D01*
X121302022Y-70828133D01*
X121449653Y-70792771D01*
X121579519Y-70742582D01*
X121695854Y-70675435D01*
X121802892Y-70589197D01*
X121831553Y-70561560D01*
X121917595Y-70464950D01*
X121982913Y-70365781D01*
X122031753Y-70256838D01*
X122055900Y-70180200D01*
X122069494Y-70109498D01*
X122077678Y-70021589D01*
X122080533Y-69924065D01*
X122078137Y-69824519D01*
X122070570Y-69730543D01*
X122057912Y-69649730D01*
X122050008Y-69617698D01*
X121994262Y-69466463D01*
X121919395Y-69330802D01*
X121826312Y-69211827D01*
X121715918Y-69110650D01*
X121589117Y-69028385D01*
X121558050Y-69012414D01*
X121474774Y-68974805D01*
X121397439Y-68948053D01*
X121317805Y-68930200D01*
X121227632Y-68919290D01*
X121145300Y-68914366D01*
X121066269Y-68912145D01*
X121002442Y-68913483D01*
G36*
X116026540Y-68907549D02*
G01*
X115964910Y-68912714D01*
X115908433Y-68922646D01*
X115847031Y-68938651D01*
X115844701Y-68939328D01*
X115773683Y-68962435D01*
X115724367Y-68985399D01*
X115693255Y-69011230D01*
X115676846Y-69042944D01*
X115671640Y-69083551D01*
X115671600Y-69088335D01*
X115679912Y-69147446D01*
X115702714Y-69195405D01*
X115736807Y-69227321D01*
X115769410Y-69237953D01*
X115799569Y-69235972D01*
X115845492Y-69227312D01*
X115898954Y-69213638D01*
X115918777Y-69207711D01*
X116028439Y-69182607D01*
X116128098Y-69179471D01*
X116220674Y-69198402D01*
X116273110Y-69219942D01*
X116326754Y-69251250D01*
X116362076Y-69286977D01*
X116385599Y-69335204D01*
X116396615Y-69372914D01*
X116404570Y-69416149D01*
X116401517Y-69452073D01*
X116389746Y-69488259D01*
X116367526Y-69531804D01*
X116334266Y-69570964D01*
X116286731Y-69608173D01*
X116221683Y-69645870D01*
X116135887Y-69686491D01*
X116113631Y-69696180D01*
X115976878Y-69759707D01*
X115863593Y-69822988D01*
X115771900Y-69887439D01*
X115699919Y-69954474D01*
X115645775Y-70025509D01*
X115623563Y-70065476D01*
X115604610Y-70109722D01*
X115593023Y-70153981D01*
X115586680Y-70208125D01*
X115584615Y-70246796D01*
X115590616Y-70369495D01*
X115618414Y-70480901D01*
X115667380Y-70579674D01*
X115736880Y-70664475D01*
X115809034Y-70722837D01*
X115871975Y-70761488D01*
X115933470Y-70790351D01*
X115999028Y-70810812D01*
X116074157Y-70824258D01*
X116164365Y-70832076D01*
X116255800Y-70835308D01*
X116328993Y-70835946D01*
X116397790Y-70835031D01*
X116456068Y-70832751D01*
X116497705Y-70829297D01*
X116508928Y-70827505D01*
X116581845Y-70809314D01*
X116649098Y-70787128D01*
X116704822Y-70763240D01*
X116743151Y-70739941D01*
X116750803Y-70732967D01*
X116774375Y-70690538D01*
X116779265Y-70638074D01*
X116766147Y-70581988D01*
X116735693Y-70528694D01*
X116728450Y-70519925D01*
X116696676Y-70502077D01*
X116647690Y-70498990D01*
X116584818Y-70510480D01*
X116523497Y-70531344D01*
X116438213Y-70556668D01*
X116341594Y-70570738D01*
X116243355Y-70572980D01*
X116153213Y-70562818D01*
X116121627Y-70555159D01*
X116044951Y-70521794D01*
X115987541Y-70471878D01*
X115949400Y-70405414D01*
X115937319Y-70364923D01*
X115928987Y-70298118D01*
X115936830Y-70238538D01*
X115962407Y-70184302D01*
X116007278Y-70133531D01*
X116073001Y-70084344D01*
X116161137Y-70034863D01*
X116243141Y-69996314D01*
X116367220Y-69938040D01*
X116468996Y-69882449D01*
X116551124Y-69827492D01*
X116616257Y-69771123D01*
X116667048Y-69711291D01*
X116706151Y-69645949D01*
X116711578Y-69634679D01*
X116728216Y-69595098D01*
X116738031Y-69558388D01*
X116742586Y-69515465D01*
X116743444Y-69457246D01*
X116743385Y-69449950D01*
X116731524Y-69331410D01*
X116698273Y-69226433D01*
X116643548Y-69134909D01*
X116567264Y-69056727D01*
X116469336Y-68991779D01*
X116349681Y-68939955D01*
X116349671Y-68939951D01*
X116300595Y-68924086D01*
X116257876Y-68913923D01*
X116213079Y-68908295D01*
X116157771Y-68906033D01*
X116103400Y-68905848D01*
X116026540Y-68907549D01*
G37*
X116026540Y-68907549D02*
X115964910Y-68912714D01*
X115908433Y-68922646D01*
X115847031Y-68938651D01*
X115844701Y-68939328D01*
X115773683Y-68962435D01*
X115724367Y-68985399D01*
X115693255Y-69011230D01*
X115676846Y-69042944D01*
X115671640Y-69083551D01*
X115671600Y-69088335D01*
X115679912Y-69147446D01*
X115702714Y-69195405D01*
X115736807Y-69227321D01*
X115769410Y-69237953D01*
X115799569Y-69235972D01*
X115845492Y-69227312D01*
X115898954Y-69213638D01*
X115918777Y-69207711D01*
X116028439Y-69182607D01*
X116128098Y-69179471D01*
X116220674Y-69198402D01*
X116273110Y-69219942D01*
X116326754Y-69251250D01*
X116362076Y-69286977D01*
X116385599Y-69335204D01*
X116396615Y-69372914D01*
X116404570Y-69416149D01*
X116401517Y-69452073D01*
X116389746Y-69488259D01*
X116367526Y-69531804D01*
X116334266Y-69570964D01*
X116286731Y-69608173D01*
X116221683Y-69645870D01*
X116135887Y-69686491D01*
X116113631Y-69696180D01*
X115976878Y-69759707D01*
X115863593Y-69822988D01*
X115771900Y-69887439D01*
X115699919Y-69954474D01*
X115645775Y-70025509D01*
X115623563Y-70065476D01*
X115604610Y-70109722D01*
X115593023Y-70153981D01*
X115586680Y-70208125D01*
X115584615Y-70246796D01*
X115590616Y-70369495D01*
X115618414Y-70480901D01*
X115667380Y-70579674D01*
X115736880Y-70664475D01*
X115809034Y-70722837D01*
X115871975Y-70761488D01*
X115933470Y-70790351D01*
X115999028Y-70810812D01*
X116074157Y-70824258D01*
X116164365Y-70832076D01*
X116255800Y-70835308D01*
X116328993Y-70835946D01*
X116397790Y-70835031D01*
X116456068Y-70832751D01*
X116497705Y-70829297D01*
X116508928Y-70827505D01*
X116581845Y-70809314D01*
X116649098Y-70787128D01*
X116704822Y-70763240D01*
X116743151Y-70739941D01*
X116750803Y-70732967D01*
X116774375Y-70690538D01*
X116779265Y-70638074D01*
X116766147Y-70581988D01*
X116735693Y-70528694D01*
X116728450Y-70519925D01*
X116696676Y-70502077D01*
X116647690Y-70498990D01*
X116584818Y-70510480D01*
X116523497Y-70531344D01*
X116438213Y-70556668D01*
X116341594Y-70570738D01*
X116243355Y-70572980D01*
X116153213Y-70562818D01*
X116121627Y-70555159D01*
X116044951Y-70521794D01*
X115987541Y-70471878D01*
X115949400Y-70405414D01*
X115937319Y-70364923D01*
X115928987Y-70298118D01*
X115936830Y-70238538D01*
X115962407Y-70184302D01*
X116007278Y-70133531D01*
X116073001Y-70084344D01*
X116161137Y-70034863D01*
X116243141Y-69996314D01*
X116367220Y-69938040D01*
X116468996Y-69882449D01*
X116551124Y-69827492D01*
X116616257Y-69771123D01*
X116667048Y-69711291D01*
X116706151Y-69645949D01*
X116711578Y-69634679D01*
X116728216Y-69595098D01*
X116738031Y-69558388D01*
X116742586Y-69515465D01*
X116743444Y-69457246D01*
X116743385Y-69449950D01*
X116731524Y-69331410D01*
X116698273Y-69226433D01*
X116643548Y-69134909D01*
X116567264Y-69056727D01*
X116469336Y-68991779D01*
X116349681Y-68939955D01*
X116349671Y-68939951D01*
X116300595Y-68924086D01*
X116257876Y-68913923D01*
X116213079Y-68908295D01*
X116157771Y-68906033D01*
X116103400Y-68905848D01*
X116026540Y-68907549D01*
G36*
X114560350Y-68902720D02*
G01*
X114488789Y-68910955D01*
X114411940Y-68924441D01*
X114337421Y-68941437D01*
X114272851Y-68960202D01*
X114225850Y-68978992D01*
X114225142Y-68979356D01*
X114187959Y-69011920D01*
X114168684Y-69059622D01*
X114168621Y-69118381D01*
X114173470Y-69141148D01*
X114191010Y-69190543D01*
X114214808Y-69222393D01*
X114248401Y-69237826D01*
X114295325Y-69237968D01*
X114359118Y-69223946D01*
X114397088Y-69212413D01*
X114498450Y-69188921D01*
X114598332Y-69182736D01*
X114690657Y-69193790D01*
X114758350Y-69216545D01*
X114821131Y-69252912D01*
X114861864Y-69295147D01*
X114883890Y-69348345D01*
X114890550Y-69417602D01*
X114890550Y-69418200D01*
X114889287Y-69461679D01*
X114883710Y-69497313D01*
X114871137Y-69527702D01*
X114848885Y-69555440D01*
X114814274Y-69583127D01*
X114764621Y-69613359D01*
X114697244Y-69648733D01*
X114609462Y-69691848D01*
X114606530Y-69693266D01*
X114488977Y-69751861D01*
X114392419Y-69804346D01*
X114313882Y-69853019D01*
X114250393Y-69900177D01*
X114198979Y-69948118D01*
X114156666Y-69999140D01*
X114120481Y-70055541D01*
X114107857Y-70078600D01*
X114094507Y-70106733D01*
X114085764Y-70134757D01*
X114080685Y-70169042D01*
X114078328Y-70215957D01*
X114077751Y-70281873D01*
X114077750Y-70282067D01*
X114078158Y-70346467D01*
X114080222Y-70392545D01*
X114085208Y-70427377D01*
X114094381Y-70458036D01*
X114109005Y-70491598D01*
X114118818Y-70511803D01*
X114179185Y-70606209D01*
X114259591Y-70686984D01*
X114357637Y-70752399D01*
X114470925Y-70800726D01*
X114548763Y-70821561D01*
X114603074Y-70829556D01*
X114674416Y-70835144D01*
X114755235Y-70838230D01*
X114837976Y-70838722D01*
X114915085Y-70836526D01*
X114979006Y-70831548D01*
X115007651Y-70827234D01*
X115048361Y-70817139D01*
X115099062Y-70801694D01*
X115152777Y-70783387D01*
X115202530Y-70764703D01*
X115241348Y-70748128D01*
X115261583Y-70736732D01*
X115275218Y-70710474D01*
X115277063Y-70669766D01*
X115268765Y-70621710D01*
X115251971Y-70573411D01*
X115228328Y-70531973D01*
X115209346Y-70511474D01*
X115178987Y-70500976D01*
X115129840Y-70501957D01*
X115065528Y-70513945D01*
X114989673Y-70536466D01*
X114973100Y-70542314D01*
X114925535Y-70558497D01*
X114886240Y-70568204D01*
X114846166Y-70572603D01*
X114796265Y-70572866D01*
X114749839Y-70571180D01*
X114658419Y-70563238D01*
X114587383Y-70547258D01*
X114532496Y-70521440D01*
X114489520Y-70483981D01*
X114464191Y-70449770D01*
X114429775Y-70375703D01*
X114418569Y-70301485D01*
X114430157Y-70230737D01*
X114464124Y-70167079D01*
X114501043Y-70128634D01*
X114527895Y-70110157D01*
X114572877Y-70083595D01*
X114631118Y-70051642D01*
X114697749Y-70016988D01*
X114750850Y-69990574D01*
X114880014Y-69924317D01*
X114986197Y-69861833D01*
X115071143Y-69801079D01*
X115136597Y-69740008D01*
X115184302Y-69676576D01*
X115216001Y-69608738D01*
X115233440Y-69534449D01*
X115238362Y-69451663D01*
X115237434Y-69419972D01*
X115225173Y-69319534D01*
X115197037Y-69233986D01*
X115149903Y-69156284D01*
X115091013Y-69089584D01*
X114997874Y-69013900D01*
X114889773Y-68956320D01*
X114770973Y-68918343D01*
X114645734Y-68901471D01*
X114560350Y-68902720D01*
G37*
X114560350Y-68902720D02*
X114488789Y-68910955D01*
X114411940Y-68924441D01*
X114337421Y-68941437D01*
X114272851Y-68960202D01*
X114225850Y-68978992D01*
X114225142Y-68979356D01*
X114187959Y-69011920D01*
X114168684Y-69059622D01*
X114168621Y-69118381D01*
X114173470Y-69141148D01*
X114191010Y-69190543D01*
X114214808Y-69222393D01*
X114248401Y-69237826D01*
X114295325Y-69237968D01*
X114359118Y-69223946D01*
X114397088Y-69212413D01*
X114498450Y-69188921D01*
X114598332Y-69182736D01*
X114690657Y-69193790D01*
X114758350Y-69216545D01*
X114821131Y-69252912D01*
X114861864Y-69295147D01*
X114883890Y-69348345D01*
X114890550Y-69417602D01*
X114890550Y-69418200D01*
X114889287Y-69461679D01*
X114883710Y-69497313D01*
X114871137Y-69527702D01*
X114848885Y-69555440D01*
X114814274Y-69583127D01*
X114764621Y-69613359D01*
X114697244Y-69648733D01*
X114609462Y-69691848D01*
X114606530Y-69693266D01*
X114488977Y-69751861D01*
X114392419Y-69804346D01*
X114313882Y-69853019D01*
X114250393Y-69900177D01*
X114198979Y-69948118D01*
X114156666Y-69999140D01*
X114120481Y-70055541D01*
X114107857Y-70078600D01*
X114094507Y-70106733D01*
X114085764Y-70134757D01*
X114080685Y-70169042D01*
X114078328Y-70215957D01*
X114077751Y-70281873D01*
X114077750Y-70282067D01*
X114078158Y-70346467D01*
X114080222Y-70392545D01*
X114085208Y-70427377D01*
X114094381Y-70458036D01*
X114109005Y-70491598D01*
X114118818Y-70511803D01*
X114179185Y-70606209D01*
X114259591Y-70686984D01*
X114357637Y-70752399D01*
X114470925Y-70800726D01*
X114548763Y-70821561D01*
X114603074Y-70829556D01*
X114674416Y-70835144D01*
X114755235Y-70838230D01*
X114837976Y-70838722D01*
X114915085Y-70836526D01*
X114979006Y-70831548D01*
X115007651Y-70827234D01*
X115048361Y-70817139D01*
X115099062Y-70801694D01*
X115152777Y-70783387D01*
X115202530Y-70764703D01*
X115241348Y-70748128D01*
X115261583Y-70736732D01*
X115275218Y-70710474D01*
X115277063Y-70669766D01*
X115268765Y-70621710D01*
X115251971Y-70573411D01*
X115228328Y-70531973D01*
X115209346Y-70511474D01*
X115178987Y-70500976D01*
X115129840Y-70501957D01*
X115065528Y-70513945D01*
X114989673Y-70536466D01*
X114973100Y-70542314D01*
X114925535Y-70558497D01*
X114886240Y-70568204D01*
X114846166Y-70572603D01*
X114796265Y-70572866D01*
X114749839Y-70571180D01*
X114658419Y-70563238D01*
X114587383Y-70547258D01*
X114532496Y-70521440D01*
X114489520Y-70483981D01*
X114464191Y-70449770D01*
X114429775Y-70375703D01*
X114418569Y-70301485D01*
X114430157Y-70230737D01*
X114464124Y-70167079D01*
X114501043Y-70128634D01*
X114527895Y-70110157D01*
X114572877Y-70083595D01*
X114631118Y-70051642D01*
X114697749Y-70016988D01*
X114750850Y-69990574D01*
X114880014Y-69924317D01*
X114986197Y-69861833D01*
X115071143Y-69801079D01*
X115136597Y-69740008D01*
X115184302Y-69676576D01*
X115216001Y-69608738D01*
X115233440Y-69534449D01*
X115238362Y-69451663D01*
X115237434Y-69419972D01*
X115225173Y-69319534D01*
X115197037Y-69233986D01*
X115149903Y-69156284D01*
X115091013Y-69089584D01*
X114997874Y-69013900D01*
X114889773Y-68956320D01*
X114770973Y-68918343D01*
X114645734Y-68901471D01*
X114560350Y-68902720D01*
G36*
X128169851Y-68554782D02*
G01*
X128049849Y-68554956D01*
X127949707Y-68555311D01*
X127867578Y-68555903D01*
X127801615Y-68556790D01*
X127749972Y-68558028D01*
X127710803Y-68559674D01*
X127682259Y-68561785D01*
X127662496Y-68564418D01*
X127649665Y-68567629D01*
X127641921Y-68571476D01*
X127637416Y-68576015D01*
X127634650Y-68580655D01*
X127624988Y-68611563D01*
X127624678Y-68630035D01*
X127634862Y-68649269D01*
X127659174Y-68682296D01*
X127693841Y-68724887D01*
X127735088Y-68772815D01*
X127779143Y-68821856D01*
X127822230Y-68867780D01*
X127860577Y-68906361D01*
X127890408Y-68933374D01*
X127904245Y-68943157D01*
X127916182Y-68947309D01*
X127936023Y-68950797D01*
X127965770Y-68953676D01*
X128007421Y-68956000D01*
X128062980Y-68957822D01*
X128134445Y-68959196D01*
X128223819Y-68960176D01*
X128333100Y-68960815D01*
X128464292Y-68961169D01*
X128577345Y-68961278D01*
X128721803Y-68961388D01*
X128843105Y-68961632D01*
X128943494Y-68962089D01*
X129025214Y-68962839D01*
X129090509Y-68963962D01*
X129141623Y-68965535D01*
X129180798Y-68967638D01*
X129210280Y-68970351D01*
X129232310Y-68973752D01*
X129249134Y-68977920D01*
X129262994Y-68982936D01*
X129269283Y-68985680D01*
X129318122Y-69018073D01*
X129344697Y-69052076D01*
X129361646Y-69105804D01*
X129365398Y-69170235D01*
X129356027Y-69234416D01*
X129343231Y-69270186D01*
X129333552Y-69290301D01*
X129323777Y-69307197D01*
X129311723Y-69321184D01*
X129295210Y-69332570D01*
X129272057Y-69341664D01*
X129240083Y-69348775D01*
X129197106Y-69354212D01*
X129140947Y-69358282D01*
X129069422Y-69361296D01*
X128980353Y-69363561D01*
X128871556Y-69365386D01*
X128740852Y-69367080D01*
X128651000Y-69368162D01*
X128485138Y-69370484D01*
X128344112Y-69373152D01*
X128228021Y-69376165D01*
X128136967Y-69379518D01*
X128071050Y-69383207D01*
X128030371Y-69387230D01*
X128018105Y-69389807D01*
X127920953Y-69436257D01*
X127835107Y-69503896D01*
X127761953Y-69590529D01*
X127702880Y-69693962D01*
X127659273Y-69812001D01*
X127632520Y-69942450D01*
X127625986Y-70010202D01*
X127625425Y-70130175D01*
X127641046Y-70239025D01*
X127674734Y-70346439D01*
X127704844Y-70415150D01*
X127765915Y-70524651D01*
X127833092Y-70610892D01*
X127905753Y-70673108D01*
X127921829Y-70683153D01*
X127944750Y-70696344D01*
X127966561Y-70707716D01*
X127989251Y-70717403D01*
X128014806Y-70725541D01*
X128045215Y-70732267D01*
X128082465Y-70737714D01*
X128128544Y-70742019D01*
X128185439Y-70745316D01*
X128255139Y-70747742D01*
X128339631Y-70749432D01*
X128440903Y-70750521D01*
X128560942Y-70751144D01*
X128701736Y-70751437D01*
X128865273Y-70751536D01*
X128925819Y-70751549D01*
X129090345Y-70751542D01*
X129231351Y-70751425D01*
X129350720Y-70751148D01*
X129450331Y-70750660D01*
X129532065Y-70749914D01*
X129597803Y-70748860D01*
X129649426Y-70747447D01*
X129688814Y-70745628D01*
X129717849Y-70743352D01*
X129738410Y-70740571D01*
X129752380Y-70737234D01*
X129761638Y-70733293D01*
X129767155Y-70729475D01*
X129796078Y-70691461D01*
X129801290Y-70647129D01*
X129782674Y-70599566D01*
X129772619Y-70585375D01*
X129700269Y-70493973D01*
X129635743Y-70414428D01*
X129580589Y-70348564D01*
X129536354Y-70298201D01*
X129504587Y-70265162D01*
X129490582Y-70253308D01*
X129481460Y-70248300D01*
X129468918Y-70244093D01*
X129450801Y-70240611D01*
X129424953Y-70237781D01*
X129389218Y-70235526D01*
X129341440Y-70233772D01*
X129279464Y-70232443D01*
X129201133Y-70231465D01*
X129104292Y-70230763D01*
X128986785Y-70230260D01*
X128846457Y-70229883D01*
X128816100Y-70229817D01*
X128689916Y-70229387D01*
X128570758Y-70228664D01*
X128461175Y-70227685D01*
X128363713Y-70226488D01*
X128280920Y-70225111D01*
X128215343Y-70223590D01*
X128169530Y-70221965D01*
X128146026Y-70220272D01*
X128144145Y-70219906D01*
X128106865Y-70197554D01*
X128079436Y-70158036D01*
X128062234Y-70107350D01*
X128055636Y-70051491D01*
X128060015Y-69996455D01*
X128075748Y-69948236D01*
X128103210Y-69912832D01*
X128124163Y-69900719D01*
X128145127Y-69897623D01*
X128189648Y-69894882D01*
X128255884Y-69892536D01*
X128341992Y-69890626D01*
X128446132Y-69889192D01*
X128566461Y-69888274D01*
X128701138Y-69887914D01*
X128705802Y-69887912D01*
X128850547Y-69887719D01*
X128972459Y-69887092D01*
X129074106Y-69885799D01*
X129158054Y-69883609D01*
X129226870Y-69880289D01*
X129283120Y-69875608D01*
X129329372Y-69869332D01*
X129368192Y-69861231D01*
X129402147Y-69851072D01*
X129433803Y-69838622D01*
X129465729Y-69823651D01*
X129476526Y-69818237D01*
X129552234Y-69768982D01*
X129625405Y-69701665D01*
X129689413Y-69623291D01*
X129736472Y-69543349D01*
X129778056Y-69428144D01*
X129800379Y-69303584D01*
X129803612Y-69175312D01*
X129787927Y-69048972D01*
X129753493Y-68930209D01*
X129715401Y-68849384D01*
X129670973Y-68785010D01*
X129612399Y-68719374D01*
X129548032Y-68661004D01*
X129492812Y-68622173D01*
X129470361Y-68609262D01*
X129448926Y-68598118D01*
X129426541Y-68588611D01*
X129401240Y-68580611D01*
X129371057Y-68573986D01*
X129334025Y-68568608D01*
X129288179Y-68564345D01*
X129231553Y-68561066D01*
X129162180Y-68558642D01*
X129078096Y-68556941D01*
X128977332Y-68555834D01*
X128857925Y-68555190D01*
X128717907Y-68554878D01*
X128555312Y-68554768D01*
X128476822Y-68554750D01*
X128311560Y-68554733D01*
X128169851Y-68554782D01*
G37*
X128169851Y-68554782D02*
X128049849Y-68554956D01*
X127949707Y-68555311D01*
X127867578Y-68555903D01*
X127801615Y-68556790D01*
X127749972Y-68558028D01*
X127710803Y-68559674D01*
X127682259Y-68561785D01*
X127662496Y-68564418D01*
X127649665Y-68567629D01*
X127641921Y-68571476D01*
X127637416Y-68576015D01*
X127634650Y-68580655D01*
X127624988Y-68611563D01*
X127624678Y-68630035D01*
X127634862Y-68649269D01*
X127659174Y-68682296D01*
X127693841Y-68724887D01*
X127735088Y-68772815D01*
X127779143Y-68821856D01*
X127822230Y-68867780D01*
X127860577Y-68906361D01*
X127890408Y-68933374D01*
X127904245Y-68943157D01*
X127916182Y-68947309D01*
X127936023Y-68950797D01*
X127965770Y-68953676D01*
X128007421Y-68956000D01*
X128062980Y-68957822D01*
X128134445Y-68959196D01*
X128223819Y-68960176D01*
X128333100Y-68960815D01*
X128464292Y-68961169D01*
X128577345Y-68961278D01*
X128721803Y-68961388D01*
X128843105Y-68961632D01*
X128943494Y-68962089D01*
X129025214Y-68962839D01*
X129090509Y-68963962D01*
X129141623Y-68965535D01*
X129180798Y-68967638D01*
X129210280Y-68970351D01*
X129232310Y-68973752D01*
X129249134Y-68977920D01*
X129262994Y-68982936D01*
X129269283Y-68985680D01*
X129318122Y-69018073D01*
X129344697Y-69052076D01*
X129361646Y-69105804D01*
X129365398Y-69170235D01*
X129356027Y-69234416D01*
X129343231Y-69270186D01*
X129333552Y-69290301D01*
X129323777Y-69307197D01*
X129311723Y-69321184D01*
X129295210Y-69332570D01*
X129272057Y-69341664D01*
X129240083Y-69348775D01*
X129197106Y-69354212D01*
X129140947Y-69358282D01*
X129069422Y-69361296D01*
X128980353Y-69363561D01*
X128871556Y-69365386D01*
X128740852Y-69367080D01*
X128651000Y-69368162D01*
X128485138Y-69370484D01*
X128344112Y-69373152D01*
X128228021Y-69376165D01*
X128136967Y-69379518D01*
X128071050Y-69383207D01*
X128030371Y-69387230D01*
X128018105Y-69389807D01*
X127920953Y-69436257D01*
X127835107Y-69503896D01*
X127761953Y-69590529D01*
X127702880Y-69693962D01*
X127659273Y-69812001D01*
X127632520Y-69942450D01*
X127625986Y-70010202D01*
X127625425Y-70130175D01*
X127641046Y-70239025D01*
X127674734Y-70346439D01*
X127704844Y-70415150D01*
X127765915Y-70524651D01*
X127833092Y-70610892D01*
X127905753Y-70673108D01*
X127921829Y-70683153D01*
X127944750Y-70696344D01*
X127966561Y-70707716D01*
X127989251Y-70717403D01*
X128014806Y-70725541D01*
X128045215Y-70732267D01*
X128082465Y-70737714D01*
X128128544Y-70742019D01*
X128185439Y-70745316D01*
X128255139Y-70747742D01*
X128339631Y-70749432D01*
X128440903Y-70750521D01*
X128560942Y-70751144D01*
X128701736Y-70751437D01*
X128865273Y-70751536D01*
X128925819Y-70751549D01*
X129090345Y-70751542D01*
X129231351Y-70751425D01*
X129350720Y-70751148D01*
X129450331Y-70750660D01*
X129532065Y-70749914D01*
X129597803Y-70748860D01*
X129649426Y-70747447D01*
X129688814Y-70745628D01*
X129717849Y-70743352D01*
X129738410Y-70740571D01*
X129752380Y-70737234D01*
X129761638Y-70733293D01*
X129767155Y-70729475D01*
X129796078Y-70691461D01*
X129801290Y-70647129D01*
X129782674Y-70599566D01*
X129772619Y-70585375D01*
X129700269Y-70493973D01*
X129635743Y-70414428D01*
X129580589Y-70348564D01*
X129536354Y-70298201D01*
X129504587Y-70265162D01*
X129490582Y-70253308D01*
X129481460Y-70248300D01*
X129468918Y-70244093D01*
X129450801Y-70240611D01*
X129424953Y-70237781D01*
X129389218Y-70235526D01*
X129341440Y-70233772D01*
X129279464Y-70232443D01*
X129201133Y-70231465D01*
X129104292Y-70230763D01*
X128986785Y-70230260D01*
X128846457Y-70229883D01*
X128816100Y-70229817D01*
X128689916Y-70229387D01*
X128570758Y-70228664D01*
X128461175Y-70227685D01*
X128363713Y-70226488D01*
X128280920Y-70225111D01*
X128215343Y-70223590D01*
X128169530Y-70221965D01*
X128146026Y-70220272D01*
X128144145Y-70219906D01*
X128106865Y-70197554D01*
X128079436Y-70158036D01*
X128062234Y-70107350D01*
X128055636Y-70051491D01*
X128060015Y-69996455D01*
X128075748Y-69948236D01*
X128103210Y-69912832D01*
X128124163Y-69900719D01*
X128145127Y-69897623D01*
X128189648Y-69894882D01*
X128255884Y-69892536D01*
X128341992Y-69890626D01*
X128446132Y-69889192D01*
X128566461Y-69888274D01*
X128701138Y-69887914D01*
X128705802Y-69887912D01*
X128850547Y-69887719D01*
X128972459Y-69887092D01*
X129074106Y-69885799D01*
X129158054Y-69883609D01*
X129226870Y-69880289D01*
X129283120Y-69875608D01*
X129329372Y-69869332D01*
X129368192Y-69861231D01*
X129402147Y-69851072D01*
X129433803Y-69838622D01*
X129465729Y-69823651D01*
X129476526Y-69818237D01*
X129552234Y-69768982D01*
X129625405Y-69701665D01*
X129689413Y-69623291D01*
X129736472Y-69543349D01*
X129778056Y-69428144D01*
X129800379Y-69303584D01*
X129803612Y-69175312D01*
X129787927Y-69048972D01*
X129753493Y-68930209D01*
X129715401Y-68849384D01*
X129670973Y-68785010D01*
X129612399Y-68719374D01*
X129548032Y-68661004D01*
X129492812Y-68622173D01*
X129470361Y-68609262D01*
X129448926Y-68598118D01*
X129426541Y-68588611D01*
X129401240Y-68580611D01*
X129371057Y-68573986D01*
X129334025Y-68568608D01*
X129288179Y-68564345D01*
X129231553Y-68561066D01*
X129162180Y-68558642D01*
X129078096Y-68556941D01*
X128977332Y-68555834D01*
X128857925Y-68555190D01*
X128717907Y-68554878D01*
X128555312Y-68554768D01*
X128476822Y-68554750D01*
X128311560Y-68554733D01*
X128169851Y-68554782D01*
G36*
X127379364Y-70088130D02*
G01*
X127348045Y-70108196D01*
X127302078Y-70139710D01*
X127244195Y-70180641D01*
X127177127Y-70228956D01*
X127103607Y-70282623D01*
X127026366Y-70339609D01*
X126948136Y-70397882D01*
X126871648Y-70455409D01*
X126799636Y-70510158D01*
X126734829Y-70560097D01*
X126679961Y-70603192D01*
X126637763Y-70637412D01*
X126610967Y-70660724D01*
X126602635Y-70669800D01*
X126598428Y-70701991D01*
X126604621Y-70721336D01*
X126618456Y-70751700D01*
X127012827Y-70751700D01*
X127128788Y-70751476D01*
X127221526Y-70750749D01*
X127293211Y-70749430D01*
X127346017Y-70747431D01*
X127382115Y-70744666D01*
X127403679Y-70741048D01*
X127412880Y-70736488D01*
X127413377Y-70735595D01*
X127414945Y-70718900D01*
X127416095Y-70680445D01*
X127416798Y-70623864D01*
X127417023Y-70552796D01*
X127416740Y-70470875D01*
X127416154Y-70402388D01*
X127414909Y-70303099D01*
X127413434Y-70226379D01*
X127411526Y-70169400D01*
X127408985Y-70129330D01*
X127405609Y-70103341D01*
X127401196Y-70088601D01*
X127395545Y-70082280D01*
X127393303Y-70081546D01*
X127379364Y-70088130D01*
G37*
X127379364Y-70088130D02*
X127348045Y-70108196D01*
X127302078Y-70139710D01*
X127244195Y-70180641D01*
X127177127Y-70228956D01*
X127103607Y-70282623D01*
X127026366Y-70339609D01*
X126948136Y-70397882D01*
X126871648Y-70455409D01*
X126799636Y-70510158D01*
X126734829Y-70560097D01*
X126679961Y-70603192D01*
X126637763Y-70637412D01*
X126610967Y-70660724D01*
X126602635Y-70669800D01*
X126598428Y-70701991D01*
X126604621Y-70721336D01*
X126618456Y-70751700D01*
X127012827Y-70751700D01*
X127128788Y-70751476D01*
X127221526Y-70750749D01*
X127293211Y-70749430D01*
X127346017Y-70747431D01*
X127382115Y-70744666D01*
X127403679Y-70741048D01*
X127412880Y-70736488D01*
X127413377Y-70735595D01*
X127414945Y-70718900D01*
X127416095Y-70680445D01*
X127416798Y-70623864D01*
X127417023Y-70552796D01*
X127416740Y-70470875D01*
X127416154Y-70402388D01*
X127414909Y-70303099D01*
X127413434Y-70226379D01*
X127411526Y-70169400D01*
X127408985Y-70129330D01*
X127405609Y-70103341D01*
X127401196Y-70088601D01*
X127395545Y-70082280D01*
X127393303Y-70081546D01*
X127379364Y-70088130D01*
G36*
X125537767Y-68554683D02*
G01*
X125456171Y-68555066D01*
X125394043Y-68555946D01*
X125348416Y-68557523D01*
X125316326Y-68559993D01*
X125294805Y-68563556D01*
X125280888Y-68568410D01*
X125271609Y-68574753D01*
X125266745Y-68579674D01*
X125251850Y-68600085D01*
X125253869Y-68618181D01*
X125263927Y-68635080D01*
X125276559Y-68646863D01*
X125307363Y-68672421D01*
X125354286Y-68710167D01*
X125415273Y-68758514D01*
X125488270Y-68815874D01*
X125571220Y-68880659D01*
X125662072Y-68951282D01*
X125758769Y-69026155D01*
X125859257Y-69103692D01*
X125961482Y-69182304D01*
X126063389Y-69260404D01*
X126162924Y-69336404D01*
X126258033Y-69408718D01*
X126346660Y-69475758D01*
X126426751Y-69535935D01*
X126496252Y-69587663D01*
X126507540Y-69596000D01*
X126539809Y-69621018D01*
X126561759Y-69640370D01*
X126568008Y-69648414D01*
X126558189Y-69657442D01*
X126529760Y-69680514D01*
X126484373Y-69716363D01*
X126423682Y-69763717D01*
X126349339Y-69821309D01*
X126262997Y-69887868D01*
X126166310Y-69962125D01*
X126060931Y-70042812D01*
X125948512Y-70128658D01*
X125830707Y-70218394D01*
X125709169Y-70310751D01*
X125585552Y-70404459D01*
X125461507Y-70498249D01*
X125446710Y-70509420D01*
X125388228Y-70554368D01*
X125336478Y-70595657D01*
X125295097Y-70630265D01*
X125267723Y-70655169D01*
X125258470Y-70665847D01*
X125253191Y-70692689D01*
X125265841Y-70720801D01*
X125286086Y-70751700D01*
X125625518Y-70751621D01*
X125735820Y-70751271D01*
X125823193Y-70750201D01*
X125890104Y-70748300D01*
X125939017Y-70745454D01*
X125972398Y-70741551D01*
X125992711Y-70736479D01*
X125996700Y-70734673D01*
X126014420Y-70722891D01*
X126049786Y-70697323D01*
X126100757Y-70659540D01*
X126165293Y-70611114D01*
X126241353Y-70553616D01*
X126326896Y-70488617D01*
X126419881Y-70417688D01*
X126518267Y-70342400D01*
X126620014Y-70264325D01*
X126723080Y-70185033D01*
X126825425Y-70106097D01*
X126925007Y-70029086D01*
X127019786Y-69955573D01*
X127107722Y-69887129D01*
X127186772Y-69825324D01*
X127254896Y-69771731D01*
X127310054Y-69727919D01*
X127350204Y-69695461D01*
X127373306Y-69675928D01*
X127378023Y-69671239D01*
X127384625Y-69660555D01*
X127387216Y-69650038D01*
X127383884Y-69637850D01*
X127372715Y-69622155D01*
X127351798Y-69601114D01*
X127319221Y-69572890D01*
X127273070Y-69535646D01*
X127211435Y-69487544D01*
X127132403Y-69426746D01*
X127088900Y-69393413D01*
X127017607Y-69338806D01*
X126930416Y-69272014D01*
X126831588Y-69196301D01*
X126725385Y-69114933D01*
X126616069Y-69031176D01*
X126507903Y-68948293D01*
X126411354Y-68874308D01*
X125994157Y-68554600D01*
X125641797Y-68554600D01*
X125537767Y-68554683D01*
G37*
X125537767Y-68554683D02*
X125456171Y-68555066D01*
X125394043Y-68555946D01*
X125348416Y-68557523D01*
X125316326Y-68559993D01*
X125294805Y-68563556D01*
X125280888Y-68568410D01*
X125271609Y-68574753D01*
X125266745Y-68579674D01*
X125251850Y-68600085D01*
X125253869Y-68618181D01*
X125263927Y-68635080D01*
X125276559Y-68646863D01*
X125307363Y-68672421D01*
X125354286Y-68710167D01*
X125415273Y-68758514D01*
X125488270Y-68815874D01*
X125571220Y-68880659D01*
X125662072Y-68951282D01*
X125758769Y-69026155D01*
X125859257Y-69103692D01*
X125961482Y-69182304D01*
X126063389Y-69260404D01*
X126162924Y-69336404D01*
X126258033Y-69408718D01*
X126346660Y-69475758D01*
X126426751Y-69535935D01*
X126496252Y-69587663D01*
X126507540Y-69596000D01*
X126539809Y-69621018D01*
X126561759Y-69640370D01*
X126568008Y-69648414D01*
X126558189Y-69657442D01*
X126529760Y-69680514D01*
X126484373Y-69716363D01*
X126423682Y-69763717D01*
X126349339Y-69821309D01*
X126262997Y-69887868D01*
X126166310Y-69962125D01*
X126060931Y-70042812D01*
X125948512Y-70128658D01*
X125830707Y-70218394D01*
X125709169Y-70310751D01*
X125585552Y-70404459D01*
X125461507Y-70498249D01*
X125446710Y-70509420D01*
X125388228Y-70554368D01*
X125336478Y-70595657D01*
X125295097Y-70630265D01*
X125267723Y-70655169D01*
X125258470Y-70665847D01*
X125253191Y-70692689D01*
X125265841Y-70720801D01*
X125286086Y-70751700D01*
X125625518Y-70751621D01*
X125735820Y-70751271D01*
X125823193Y-70750201D01*
X125890104Y-70748300D01*
X125939017Y-70745454D01*
X125972398Y-70741551D01*
X125992711Y-70736479D01*
X125996700Y-70734673D01*
X126014420Y-70722891D01*
X126049786Y-70697323D01*
X126100757Y-70659540D01*
X126165293Y-70611114D01*
X126241353Y-70553616D01*
X126326896Y-70488617D01*
X126419881Y-70417688D01*
X126518267Y-70342400D01*
X126620014Y-70264325D01*
X126723080Y-70185033D01*
X126825425Y-70106097D01*
X126925007Y-70029086D01*
X127019786Y-69955573D01*
X127107722Y-69887129D01*
X127186772Y-69825324D01*
X127254896Y-69771731D01*
X127310054Y-69727919D01*
X127350204Y-69695461D01*
X127373306Y-69675928D01*
X127378023Y-69671239D01*
X127384625Y-69660555D01*
X127387216Y-69650038D01*
X127383884Y-69637850D01*
X127372715Y-69622155D01*
X127351798Y-69601114D01*
X127319221Y-69572890D01*
X127273070Y-69535646D01*
X127211435Y-69487544D01*
X127132403Y-69426746D01*
X127088900Y-69393413D01*
X127017607Y-69338806D01*
X126930416Y-69272014D01*
X126831588Y-69196301D01*
X126725385Y-69114933D01*
X126616069Y-69031176D01*
X126507903Y-68948293D01*
X126411354Y-68874308D01*
X125994157Y-68554600D01*
X125641797Y-68554600D01*
X125537767Y-68554683D01*
G36*
X126733198Y-68550911D02*
G01*
X126681209Y-68551877D01*
X126643687Y-68553721D01*
X126617900Y-68556555D01*
X126601116Y-68560494D01*
X126590601Y-68565650D01*
X126586141Y-68569400D01*
X126570790Y-68599580D01*
X126580231Y-68634645D01*
X126614374Y-68674383D01*
X126640715Y-68695964D01*
X126744139Y-68773589D01*
X126846426Y-68850032D01*
X126945537Y-68923794D01*
X127039433Y-68993377D01*
X127126075Y-69057282D01*
X127203423Y-69114012D01*
X127269438Y-69162068D01*
X127322080Y-69199951D01*
X127359312Y-69226163D01*
X127379093Y-69239205D01*
X127381657Y-69240400D01*
X127396037Y-69231083D01*
X127412030Y-69212174D01*
X127418468Y-69199350D01*
X127423385Y-69179512D01*
X127426971Y-69149509D01*
X127429416Y-69106190D01*
X127430908Y-69046403D01*
X127431638Y-68966998D01*
X127431800Y-68883529D01*
X127431461Y-68782062D01*
X127430356Y-68703536D01*
X127428359Y-68645497D01*
X127425343Y-68605495D01*
X127421180Y-68581078D01*
X127415744Y-68569793D01*
X127415504Y-68569585D01*
X127397367Y-68565199D01*
X127354688Y-68561329D01*
X127288321Y-68558012D01*
X127199120Y-68555284D01*
X127087937Y-68553180D01*
X127003291Y-68552154D01*
X126891507Y-68551163D01*
X126802386Y-68550711D01*
X126733198Y-68550911D01*
G37*
X126733198Y-68550911D02*
X126681209Y-68551877D01*
X126643687Y-68553721D01*
X126617900Y-68556555D01*
X126601116Y-68560494D01*
X126590601Y-68565650D01*
X126586141Y-68569400D01*
X126570790Y-68599580D01*
X126580231Y-68634645D01*
X126614374Y-68674383D01*
X126640715Y-68695964D01*
X126744139Y-68773589D01*
X126846426Y-68850032D01*
X126945537Y-68923794D01*
X127039433Y-68993377D01*
X127126075Y-69057282D01*
X127203423Y-69114012D01*
X127269438Y-69162068D01*
X127322080Y-69199951D01*
X127359312Y-69226163D01*
X127379093Y-69239205D01*
X127381657Y-69240400D01*
X127396037Y-69231083D01*
X127412030Y-69212174D01*
X127418468Y-69199350D01*
X127423385Y-69179512D01*
X127426971Y-69149509D01*
X127429416Y-69106190D01*
X127430908Y-69046403D01*
X127431638Y-68966998D01*
X127431800Y-68883529D01*
X127431461Y-68782062D01*
X127430356Y-68703536D01*
X127428359Y-68645497D01*
X127425343Y-68605495D01*
X127421180Y-68581078D01*
X127415744Y-68569793D01*
X127415504Y-68569585D01*
X127397367Y-68565199D01*
X127354688Y-68561329D01*
X127288321Y-68558012D01*
X127199120Y-68555284D01*
X127087937Y-68553180D01*
X127003291Y-68552154D01*
X126891507Y-68551163D01*
X126802386Y-68550711D01*
X126733198Y-68550911D01*
D11*
X138807500Y-63623500D02*
X138807500Y-62293500D01*
X137477500Y-63623500D02*
X138807500Y-63623500D01*
X136207500Y-63623500D02*
X136207500Y-60963500D01*
X136207500Y-60963500D02*
X133607500Y-60963500D01*
X136207500Y-63623500D02*
X133607500Y-63623500D01*
X133607500Y-63623500D02*
X133607500Y-60963500D01*
X98773940Y-53897220D02*
X98773940Y-56497220D01*
X98773940Y-53897220D02*
X149693940Y-53897220D01*
X149693940Y-53897220D02*
X149693940Y-59097220D01*
X101373940Y-59097220D02*
X149693940Y-59097220D01*
X101373940Y-56497220D02*
X101373940Y-59097220D01*
X98773940Y-56497220D02*
X101373940Y-56497220D01*
X98773940Y-59097220D02*
X100103940Y-59097220D01*
X98773940Y-57767220D02*
X98773940Y-59097220D01*
D15*
X139071404Y-61645880D02*
X139642833Y-61645880D01*
X139757119Y-61607785D01*
X139833309Y-61531595D01*
X139871404Y-61417309D01*
X139871404Y-61341119D01*
X139147595Y-61988738D02*
X139109500Y-62026833D01*
X139071404Y-62103023D01*
X139071404Y-62293500D01*
X139109500Y-62369690D01*
X139147595Y-62407785D01*
X139223785Y-62445880D01*
X139299976Y-62445880D01*
X139414261Y-62407785D01*
X139871404Y-61950642D01*
X139871404Y-62445880D01*
X139147595Y-62750642D02*
X139109500Y-62788738D01*
X139071404Y-62864928D01*
X139071404Y-63055404D01*
X139109500Y-63131595D01*
X139147595Y-63169690D01*
X139223785Y-63207785D01*
X139299976Y-63207785D01*
X139414261Y-63169690D01*
X139871404Y-62712547D01*
X139871404Y-63207785D01*
X142639309Y-65449404D02*
X142639309Y-64649404D01*
X142334547Y-64649404D01*
X142258357Y-64687500D01*
X142220261Y-64725595D01*
X142182166Y-64801785D01*
X142182166Y-64916071D01*
X142220261Y-64992261D01*
X142258357Y-65030357D01*
X142334547Y-65068452D01*
X142639309Y-65068452D01*
X141839309Y-65449404D02*
X141839309Y-64916071D01*
X141839309Y-65068452D02*
X141801214Y-64992261D01*
X141763119Y-64954166D01*
X141686928Y-64916071D01*
X141610738Y-64916071D01*
X141229785Y-65449404D02*
X141305976Y-65411309D01*
X141344071Y-65373214D01*
X141382166Y-65297023D01*
X141382166Y-65068452D01*
X141344071Y-64992261D01*
X141305976Y-64954166D01*
X141229785Y-64916071D01*
X141115500Y-64916071D01*
X141039309Y-64954166D01*
X141001214Y-64992261D01*
X140963119Y-65068452D01*
X140963119Y-65297023D01*
X141001214Y-65373214D01*
X141039309Y-65411309D01*
X141115500Y-65449404D01*
X141229785Y-65449404D01*
X140277404Y-64916071D02*
X140277404Y-65563690D01*
X140315500Y-65639880D01*
X140353595Y-65677976D01*
X140429785Y-65716071D01*
X140544071Y-65716071D01*
X140620261Y-65677976D01*
X140277404Y-65411309D02*
X140353595Y-65449404D01*
X140505976Y-65449404D01*
X140582166Y-65411309D01*
X140620261Y-65373214D01*
X140658357Y-65297023D01*
X140658357Y-65068452D01*
X140620261Y-64992261D01*
X140582166Y-64954166D01*
X140505976Y-64916071D01*
X140353595Y-64916071D01*
X140277404Y-64954166D01*
X139896452Y-65449404D02*
X139896452Y-64916071D01*
X139896452Y-65068452D02*
X139858357Y-64992261D01*
X139820261Y-64954166D01*
X139744071Y-64916071D01*
X139667880Y-64916071D01*
X139058357Y-65449404D02*
X139058357Y-65030357D01*
X139096452Y-64954166D01*
X139172642Y-64916071D01*
X139325023Y-64916071D01*
X139401214Y-64954166D01*
X139058357Y-65411309D02*
X139134547Y-65449404D01*
X139325023Y-65449404D01*
X139401214Y-65411309D01*
X139439309Y-65335119D01*
X139439309Y-65258928D01*
X139401214Y-65182738D01*
X139325023Y-65144642D01*
X139134547Y-65144642D01*
X139058357Y-65106547D01*
X138677404Y-65449404D02*
X138677404Y-64916071D01*
X138677404Y-64992261D02*
X138639309Y-64954166D01*
X138563119Y-64916071D01*
X138448833Y-64916071D01*
X138372642Y-64954166D01*
X138334547Y-65030357D01*
X138334547Y-65449404D01*
X138334547Y-65030357D02*
X138296452Y-64954166D01*
X138220261Y-64916071D01*
X138105976Y-64916071D01*
X138029785Y-64954166D01*
X137991690Y-65030357D01*
X137991690Y-65449404D01*
X137610738Y-65449404D02*
X137610738Y-64916071D01*
X137610738Y-64992261D02*
X137572642Y-64954166D01*
X137496452Y-64916071D01*
X137382166Y-64916071D01*
X137305976Y-64954166D01*
X137267880Y-65030357D01*
X137267880Y-65449404D01*
X137267880Y-65030357D02*
X137229785Y-64954166D01*
X137153595Y-64916071D01*
X137039309Y-64916071D01*
X136963119Y-64954166D01*
X136925023Y-65030357D01*
X136925023Y-65449404D01*
X136544071Y-65449404D02*
X136544071Y-64916071D01*
X136544071Y-64649404D02*
X136582166Y-64687500D01*
X136544071Y-64725595D01*
X136505976Y-64687500D01*
X136544071Y-64649404D01*
X136544071Y-64725595D01*
X136163119Y-64916071D02*
X136163119Y-65449404D01*
X136163119Y-64992261D02*
X136125023Y-64954166D01*
X136048833Y-64916071D01*
X135934547Y-64916071D01*
X135858357Y-64954166D01*
X135820261Y-65030357D01*
X135820261Y-65449404D01*
X135096452Y-64916071D02*
X135096452Y-65563690D01*
X135134547Y-65639880D01*
X135172642Y-65677976D01*
X135248833Y-65716071D01*
X135363119Y-65716071D01*
X135439309Y-65677976D01*
X135096452Y-65411309D02*
X135172642Y-65449404D01*
X135325023Y-65449404D01*
X135401214Y-65411309D01*
X135439309Y-65373214D01*
X135477404Y-65297023D01*
X135477404Y-65068452D01*
X135439309Y-64992261D01*
X135401214Y-64954166D01*
X135325023Y-64916071D01*
X135172642Y-64916071D01*
X135096452Y-64954166D01*
X134486928Y-64649404D02*
X134486928Y-65220833D01*
X134525023Y-65335119D01*
X134601214Y-65411309D01*
X134715500Y-65449404D01*
X134791690Y-65449404D01*
X133763119Y-64916071D02*
X133763119Y-65449404D01*
X134105976Y-64916071D02*
X134105976Y-65335119D01*
X134067880Y-65411309D01*
X133991690Y-65449404D01*
X133877404Y-65449404D01*
X133801214Y-65411309D01*
X133763119Y-65373214D01*
X133382166Y-65449404D02*
X133382166Y-64916071D01*
X133382166Y-64992261D02*
X133344071Y-64954166D01*
X133267880Y-64916071D01*
X133153595Y-64916071D01*
X133077404Y-64954166D01*
X133039309Y-65030357D01*
X133039309Y-65449404D01*
X133039309Y-65030357D02*
X133001214Y-64954166D01*
X132925023Y-64916071D01*
X132810738Y-64916071D01*
X132734547Y-64954166D01*
X132696452Y-65030357D01*
X132696452Y-65449404D01*
X132315500Y-64916071D02*
X132315500Y-65716071D01*
X132315500Y-64954166D02*
X132239309Y-64916071D01*
X132086928Y-64916071D01*
X132010738Y-64954166D01*
X131972642Y-64992261D01*
X131934547Y-65068452D01*
X131934547Y-65297023D01*
X131972642Y-65373214D01*
X132010738Y-65411309D01*
X132086928Y-65449404D01*
X132239309Y-65449404D01*
X132315500Y-65411309D01*
X131286928Y-65411309D02*
X131363119Y-65449404D01*
X131515500Y-65449404D01*
X131591690Y-65411309D01*
X131629785Y-65335119D01*
X131629785Y-65030357D01*
X131591690Y-64954166D01*
X131515500Y-64916071D01*
X131363119Y-64916071D01*
X131286928Y-64954166D01*
X131248833Y-65030357D01*
X131248833Y-65106547D01*
X131629785Y-65182738D01*
X130905976Y-65449404D02*
X130905976Y-64916071D01*
X130905976Y-65068452D02*
X130867880Y-64992261D01*
X130829785Y-64954166D01*
X130753595Y-64916071D01*
X130677404Y-64916071D01*
X97859904Y-53835333D02*
X98431333Y-53835333D01*
X98545619Y-53797238D01*
X98621809Y-53721047D01*
X98659904Y-53606761D01*
X98659904Y-53530571D01*
X98659904Y-54635333D02*
X98659904Y-54178190D01*
X98659904Y-54406761D02*
X97859904Y-54406761D01*
X97974190Y-54330571D01*
X98050380Y-54254380D01*
X98088476Y-54178190D01*
M02*
