G04 #@! TF.GenerationSoftware,KiCad,Pcbnew,(5.1.5)-3*
G04 #@! TF.CreationDate,2020-04-22T10:50:03+08:00*
G04 #@! TF.ProjectId,RDMA,52444d41-2e6b-4696-9361-645f70636258,1.0*
G04 #@! TF.SameCoordinates,Original*
G04 #@! TF.FileFunction,Profile,NP*
%FSLAX46Y46*%
G04 Gerber Fmt 4.6, Leading zero omitted, Abs format (unit mm)*
G04 Created by KiCad (PCBNEW (5.1.5)-3) date 2020-04-22 10:50:03*
%MOMM*%
%LPD*%
G04 APERTURE LIST*
%ADD10C,0.100000*%
G04 APERTURE END LIST*
D10*
X135734640Y-104999020D02*
X135734640Y-89999020D01*
X96734640Y-72999020D02*
X96734640Y-88999020D01*
X153734640Y-52999020D02*
X94734640Y-52999020D01*
X156734640Y-55999020D02*
G75*
G03X153734640Y-52999020I-3000000J0D01*
G01*
X137734640Y-89999020D02*
G75*
G03X135734640Y-89999020I-1000000J0D01*
G01*
X153734640Y-108999020D02*
G75*
G03X156734640Y-105999020I0J3000000D01*
G01*
X96734640Y-72999020D02*
G75*
G03X96234640Y-72499020I-500000J0D01*
G01*
X96234640Y-89499020D02*
G75*
G03X96734640Y-88999020I0J500000D01*
G01*
X91734640Y-89999020D02*
X91734640Y-105999020D01*
X135734640Y-104999020D02*
G75*
G03X137734640Y-104999020I1000000J0D01*
G01*
X92233767Y-89499021D02*
G75*
G03X91734640Y-89999020I873J-499999D01*
G01*
X92234640Y-72499020D02*
X96234640Y-72499020D01*
X156734640Y-105999020D02*
X156734640Y-55999020D01*
X94734640Y-108999020D02*
X153734640Y-108999020D01*
X91734640Y-105999020D02*
G75*
G03X94734640Y-108999020I3000000J0D01*
G01*
X91734640Y-55999020D02*
X91734640Y-71999020D01*
X91734640Y-71999020D02*
G75*
G03X92234640Y-72499020I500000J0D01*
G01*
X137734640Y-89999020D02*
X137734640Y-104999020D01*
X96234640Y-89499020D02*
X92234640Y-89499020D01*
X94734640Y-52999020D02*
G75*
G03X91734640Y-55999020I0J-3000000D01*
G01*
M02*
